<svg fill="#fff" xmlns="http://www.w3.org/2000/svg" viewBox="0 0 500 500"><path d="M284.5 135.5l72.6-4.2c2.2-.1 4 1.5 4.1 3.7s-1.5 4-3.7 4.1l-72.9 4.2a3.85 3.85 0 0 1-4-3.8c0-2.2 1.8-4 3.9-4z"/><path d="M279.2 138.3c-3.4-54-18.1-64.4-16.2-20.3l4.4 117.8c.1 2.2-1.5 4-3.7 4.1s-4-1.5-4.1-3.7c-1-24.3-11.7-133.2 0-146.4 24.5-27.5 27.1 43.2 27.4 48 .1 2.2-1.5 4-3.7 4.1-2.1.2-4-1.4-4.1-3.6z"/><path d="M263.3 232.1c5.8-.2 79-5.8 80 4.9 7.4 76.9-4 57.1-83.6 55.1-2.2.1-4-1.5-4.1-3.7s1.5-4 3.7-4.1l48.4 1.2c34.5 1.5 30.8 8.7 27.9-45.3-14.3-2.2-60.3-.5-71.8-.2-2.2.1-4-1.5-4.1-3.7-.2-2.2 1.4-4 3.6-4.2z"/><path d="M266.3 289.2c2.7 53.8 10.2 144.1 6.1 191.3-1.1 1.9-3.5 2.4-5.4 1.3s-2.4-3.5-1.3-5.4l-7.3-186.8c-.1-2.2 1.5-4 3.7-4.1s4.1 1.5 4.2 3.7zm90.2-160.3c7.9-21.4-12.9-82.7-35.1-94.4-55.1-29-120.1-17.1-121.1 54.6-.7 52.5-3.5 105.9 1.9 157.4.1 2.2-1.5 4-3.7 4.1s-4-1.5-4.1-3.7c-5.4-51.6-2.6-105.4-1.9-158 1.1-77.8 72.2-93.3 132.6-61.5 26 13.7 48.7 78.3 38.4 105.3-1.1 1.9-3.5 2.6-5.4 1.5a3.77 3.77 0 0 1-1.6-5.3z"/><path d="M195.3 250.9c-8.2-.7-62.5-6.7-68.6.1.2 6.3 1.9 35.2 5.4 42 97.3-8.7 74.5-14.1 75 70 .1 16.3 1 112.4 7.2 128.8 10.8-.2 43.9-.5 51.5-4.4-.6-9-.4-6.7-3.6-15.9-.7-2.1.5-4.3 2.5-4.9 2.1-.7 4.3.5 4.9 2.5 12.8 36.8-11.9 30.4-56.8 30.6-18.6.1-14.4-173-11.9-201-5.2-2-24-1.2-27.5-1.1-25.9 1.2-45.2 11.9-50-5.5-18.3-67.2 9.6-54.5 72.2-49.2 2.2.1 3.9 1.9 3.8 4.1-.2 2.3-2 4-4.1 3.9zm5.6 47c0-.5.1-.9.1-1.3-.2.5-.2.9-.1 1.3z"/><path d="M118.1 249c26.4-35.7 27.7-29.8 75.7-31.1 2.2-.1 4 1.5 4.1 3.7s-1.5 4-3.7 4.1c-45 1.2-45.3-5.2-69.7 27.8-1.3 1.8-3.7 2.2-5.5.9-1.8-1.2-2.2-3.6-.9-5.4zm145.7-36.4c12.4-1.4 94.4-11.2 95 3.1.6 12.8-14.4 21-23.8 25.7-2.1.7-4.3-.5-4.9-2.5-.7-2.1.5-4.3 2.5-4.9 5-2.5 16.6-8.7 18.2-16-28.2-.9-56.1-.5-84.2 2.1-2 .8-4.3-.3-5.1-2.3-.7-2.1.3-4.4 2.3-5.2z"/><path d="M334.2 289.4c43.6-41.2 17.8-25.1 17-71.1 0-2.2 1.7-4 3.9-4s4 1.7 4 3.9v2.5c11.9 46.9 13.2 43.6-19.4 74.4-1.5 1.5-4 1.5-5.6 0-1.5-1.7-1.5-4.2.1-5.7zm23.2-158.7c24-22 16-35.2 3.1-67.9-28.7-72.6-143.7-73.1-151-3l-1 7.6c-.3 2.2-2.2 3.7-4.4 3.4s-3.7-2.2-3.4-4.4l1-7.5v.4c7-78 134.1-80 166.1.8 14.1 35.5 21.5 52.2-5.1 76.6-1.6 1.4-4.1 1.3-5.5-.3-1.5-1.7-1.4-4.2.2-5.7z"/><path d="M214.1 43.5c-15.5 76-16.6 112.1-12.8 189.1.1 2.2-1.5 4-3.7 4.1s-4-1.5-4.1-3.7c-3.9-77.8-2.6-114.5 13-191.2.5-2.1 2.6-3.5 4.7-3s3.4 2.6 2.9 4.7zm-73.8 191c8.3-8.5 3.9-4.3 13.1-12.6 2-.8 4.3.1 5.1 2.1s-.1 4.3-2.1 5.1c-6.4 6.8-2.8 3-10.8 11.2-1.6 1.4-4.1 1.3-5.5-.3s-1.4-4.1.2-5.5zm11.4 3.5c4.4-4.1 8.6-7.9 12-12.9.6-2.1 2.8-3.3 4.8-2.7 2.1.6 3.3 2.8 2.7 4.8-4.7 8-7.7 10.4-14.3 16.6-1.6 1.4-4.1 1.3-5.5-.3s-1.3-4 .3-5.5zm16.3 1.1c6.9-10.4 3.5-5.2 10.1-15.7 1.1-1.9 3.5-2.6 5.4-1.5s2.6 3.5 1.5 5.3c-6.9 11-3.4 5.6-10.5 16.4-1.3 1.8-3.7 2.2-5.5.9-1.8-1.2-2.2-3.6-1-5.4z"/><path d="M179.1 238.6l9.8-16.4c.6-2.1 2.8-3.3 4.9-2.7s3.3 2.8 2.7 4.9c-7.1 12.5-3.5 6.3-10.7 18.5-1.2 1.8-3.6 2.4-5.4 1.2-1.9-1.2-2.5-3.7-1.3-5.5zm87.3-8c4.1-11.2 4.4-8.2 9-16.2.6-2.1 2.8-3.3 4.8-2.7 2.1.6 3.3 2.8 2.7 4.9-3.9 7.5-5.9 7.6-8.8 15.7-.4 2.1-2.5 3.5-4.7 3a4.08 4.08 0 0 1-3-4.7z"/><path d="M275.2 227.5c2.9-4.8 7.4-13.6 12.6-16.4 2.1-.6 4.3.6 4.9 2.7.5 1.8-.3 3.7-1.9 4.6-2.6 2.6-7 10.2-8.9 13.2-1.1 1.9-3.5 2.4-5.4 1.3-1.8-1.1-2.4-3.5-1.3-5.4zm10.3 3.3c7.1-9 3.9-4.6 9.7-13.3.6-2.1 2.8-3.3 4.8-2.7 2.1.6 3.3 2.8 2.7 4.8-7 11.4-3.3 6.1-11.1 16-1.3 1.7-3.8 2-5.5.7-1.6-1.3-1.9-3.8-.6-5.5zm13.9-.7c3-4.5 7.5-13.5 12.5-16.1 2.1-.6 4.3.6 4.9 2.7.5 1.8-.3 3.6-1.8 4.5-2.8 3.1-6.8 9.9-9.1 13.5-1.3 1.8-3.7 2.2-5.5.9s-2.3-3.7-1-5.5zm12.8-2.4c6.8-7.8 8.3-10.3 17.4-16 2-.8 4.3.1 5.1 2.1s-.1 4.3-2.1 5.1c-6.8 4.3-9.4 8-14.5 13.9-1.4 1.6-3.9 1.8-5.5.3-1.7-1.3-1.9-3.8-.4-5.4z"/><path d="M324.5 230.2c4.6-6.9 11.3-18.5 20.6-19.6 2.2 0 3.9 1.8 3.8 4 0 2.2-1.8 3.9-4 3.8h0c-4.5 1.8-11.4 12.3-13.9 16-1.2 1.8-3.6 2.4-5.4 1.2-1.7-1.1-2.2-3.5-1.1-5.4zm12.8 14c6-5.6 7.1-7.2 14.5-11.3 2-.8 4.3.1 5.1 2.1s-.1 4.3-2.1 5.1c-5.8 3.2-7.6 5.4-12.3 9.9-1.6 1.4-4.1 1.3-5.5-.3s-1.3-4.1.3-5.5zm.8 13.9c10.8-10 5.9-5.2 14.7-14.5.6-2.1 2.8-3.3 4.8-2.7 2.1.6 3.3 2.8 2.7 4.8-10.8 13.1-5.1 7.1-17.1 18.2-1.6 1.4-4.1 1.3-5.5-.3-1.3-1.5-1.2-4 .4-5.5z"/><path d="M340.5 270.8c6.4-11.9 8.6-11.6 15.9-21.2 1.1-1.9 3.5-2.6 5.3-1.5 1.9 1.1 2.6 3.5 1.5 5.3-6.1 8.2-10.4 10.9-15.4 19.9-.7 2-3 3.1-5 2.4-2-.6-3-2.8-2.3-4.9zM266.7 6.2l1.7 5.5c.6 2.1-.5 4.3-2.6 4.9s-4.3-.5-4.9-2.6l-1.7-5.5c-.6-2.1.5-4.3 2.6-4.9s4.3.5 4.9 2.6zm14-.8l1.7 5.5c.6 2.1-.5 4.3-2.6 4.9s-4.3-.5-4.9-2.6c-4.5-14.5 2.8 9-1.7-5.5-.6-2.1.5-4.3 2.6-4.9s4.3.5 4.9 2.6zm8.4 11.1c1-5.4 1.1-7.5 6.1-10.1 2-.8 4.3.1 5.1 2.1s-.1 4.3-2.1 5.1c-1.3.7-1 2.2-1.4 4.4-.4 2.1-2.5 3.5-4.7 3-2-.3-3.4-2.4-3-4.5zm10.7 2.2c4-5.5 4.9-6.5 10.7-10.2 1.9-1 4.3-.3 5.3 1.6s.3 4.3-1.6 5.3c-4.3 2.8-4.9 3.6-7.9 7.7-1.2 1.8-3.7 2.3-5.5 1.1s-2.2-3.7-1-5.5zm17.7 3.2c3.8-1.6 5.5-3.1 9.6-3.5 2.2 0 3.9 1.8 3.8 4 0 2.1-1.8 3.9-3.9 3.8-1.7.5-5 2.3-7 3.1a3.91 3.91 0 0 1-5-2.5c-.7-2 .4-4.2 2.5-4.9zm9.6 12.5c5.9-4.2 5.5-4.6 12.9-5.5 2.2-.1 4 1.5 4.1 3.7s-1.5 4-3.7 4.1c-5.1.6-4.3.9-9 4.2-1.8 1.2-4.2.7-5.5-1.1a4 4 0 0 1 1.2-5.4zM341 44.5c1.5-.5 4.3-1.1 5.4-2.2 1.4-1.6 3.9-1.8 5.5-.3 1.6 1.4 1.8 3.9.3 5.5-2.9 3-4.5 2.9-8.3 4.2a3.95 3.95 0 0 1-5.1-2.2c-.8-2 .2-4.2 2.2-5zm4.3 16.1c7-3 3.5-1.4 10.7-4.7 2-.8 4.3.1 5.1 2.1s-.1 4.3-2.1 5.1c-7.1 3.3-3.4 1.7-11.2 4.9a3.91 3.91 0 0 1-5-2.5c-.7-2 .4-4.2 2.5-4.9zm8.6 16.5l8.6-4.1c1.6-1.5 4.1-1.4 5.6.2s1.4 4.1-.2 5.6c-7.2 4.1-3.7 2.3-10.5 5.4-2 .9-4.3.1-5.2-1.9-1.1-2-.2-4.3 1.7-5.2zm6.7 14.7l3.3-.2c1.7-1.5 3.9-1.5 6.3-1.7 2.2-.1 4 1.5 4.1 3.7s-1.5 4-3.7 4.1l-1.9.2c-2.1 1.9-5.3 1.7-8 1.8a3.85 3.85 0 0 1-4-3.8 4.08 4.08 0 0 1 3.9-4.1zm-.5 12.8c5.7-2.2 5.6-2.8 12.1-3.6 2.2-.1 4 1.5 4.1 3.7s-1.5 4-3.7 4.1c-4.7.6-5.4 1.4-10 3.2-2.1.7-4.3-.4-5-2.4-.6-2 .5-4.3 2.5-5z"/><path d="M361.4,108.3c5.7-1.9,5.7-3.1,11-3.4"/></svg>