<?xml version="1.0" encoding="utf-8"?>
<!-- Generator: Adobe Illustrator 22.0.0, SVG Export Plug-In . SVG Version: 6.00 Build 0)  -->
<svg version="1.1" id="Warstwa_1" xmlns="http://www.w3.org/2000/svg" xmlns:xlink="http://www.w3.org/1999/xlink" x="0px" y="0px"
	 viewBox="0 0 595.3 841.9" style="enable-background:new 0 0 595.3 841.9;" xml:space="preserve">
<style type="text/css">
	.st0{fill:none;stroke:#0D1645;stroke-width:1.1259;stroke-linecap:round;stroke-linejoin:round;stroke-miterlimit:22.9256;}
	.st1{fill:none;stroke:#0D1645;stroke-width:6.600000e-02;stroke-miterlimit:22.9256;}
	.st2{fill-rule:evenodd;clip-rule:evenodd;fill:#A6532E;}
	.st3{fill-rule:evenodd;clip-rule:evenodd;fill:#9BB0C7;}
	.st4{fill-rule:evenodd;clip-rule:evenodd;fill:#A16B5B;}
	.st5{fill-rule:evenodd;clip-rule:evenodd;fill:#A65431;}
	.st6{fill-rule:evenodd;clip-rule:evenodd;fill:#0D1645;}
	.st7{fill:none;stroke:#0D1645;stroke-width:6.800000e-02;stroke-miterlimit:22.9256;}
	.st8{fill-rule:evenodd;clip-rule:evenodd;fill:#C8A496;}
	.st9{fill-rule:evenodd;clip-rule:evenodd;fill:#CB6C32;}
	.st10{fill:none;stroke:#0D1645;stroke-width:0.3421;stroke-linecap:round;stroke-linejoin:round;stroke-miterlimit:22.9256;}
	.st11{fill-rule:evenodd;clip-rule:evenodd;fill:#8E4936;}
	.st12{fill-rule:evenodd;clip-rule:evenodd;fill:#884836;}
	.st13{fill-rule:evenodd;clip-rule:evenodd;fill:#8D4736;}
	.st14{fill-rule:evenodd;clip-rule:evenodd;fill:#FFFFFF;}
	.st15{fill-rule:evenodd;clip-rule:evenodd;fill:#824434;}
	.st16{fill-rule:evenodd;clip-rule:evenodd;fill:#964C37;}
</style>
<path class="st0" d="M362.6,642.5c8.3,0.9,18.7,3,23.2,5.4c24.1,12.9,41.5,46.2,41.5,46.2s8.8,39.5,79.1,37.1
	c70.3-2.4,100.9-52.6,81.5-83.4c-14.7-23.4-61.9-13.6-96.8,2.3c-2.1-37-59.9-64.6-74.4-62.9l-1.9,2.1
	c28.9-45.8,34.3-100.6,16.4-141.6c-3-6.9-6.3-13.5-9.8-19.7l0.5,0.6c13.1-11.9,61.9-28.4,69.2-33.6c16.9-22-1.9-49-11.3-54.7
	c-9.5-5.7-58.6,12-104.4,33l3.7,4.3c-16-12.3-34.6-21.4-56-27.1c-6.2-15.9-4.7-23.2-4.7-23.2h-3.4c62.5-11.1,84.6-46.7,96.1-88
	c9.3-33.3,2.5-62.4-11.8-85.3c0.6-1.7,5.1-14.3,8.3-22.3c3.4-8.7-3.1-28.7-14.2-42.4c-11-13.7-40.4,3.3-48.6,24l1.7,1.3
	c-55.1-13.3-157.8-3-200,10.9l1.3,3.9c-3-5.1-21-37.2-50.4-15.5c-30.7,24.4-9,56.5,1,73.3c-12.2,31.7-2.1,80.8,13.8,110.8
	c7.9,14.8,37.5,24.7,74,29.9l1.8,34.4c-11.8,5.3-21.9,11.3-30.6,17.7c-22.2-6.3-80.7-40.3-118.6-57.6C-1.6,303.6-4.7,362,11.5,382
	c16.2,19.8,73.3,47.9,107.3,52.5c-7.7,26.1-6.7,56.4-1.6,89.6c6.4,41.9,23.6,84.2,52.5,113.2c-8.5,14.8-12.2,34.1-11.3,49.8l3.7,1.9
	c7.3,3.3,14.6,7.2,21.7,11.5L162.1,689c-32.8-14.6-65.1-16-77.7,11c-15.4,33,22.3,53.7,76.6,60.5c54.3,6.9,89.5-13.1,79.4-53.2
	c-3.6-14.6-3.9-25.8-2.7-34.2c20.3,3.4,43.3,2.2,68.8-5.1C327.7,662.1,346.4,653.3,362.6,642.5z"/>
<path class="st1" d="M169.7,637.3c-8.5,14.8-12.2,34.1-11.3,49.8l3.7,1.9c7.3,3.3,14.6,7.2,21.7,11.5L162.1,689
	c-32.8-14.6-65.1-16-77.7,11c-15.4,33,22.3,53.7,76.6,60.5c54.3,6.9,89.5-13.1,79.4-53.2c-3.6-14.6-3.9-25.8-2.7-34.2"/>
<path class="st2" d="M395.9,617.1c37.7,10.9,64.3,55.8,64.3,55.8c50.4,30,111.2-17.6,124.7-29.2c-17.4-18.3-61-8.7-93.9,6.2
	c-2.1-37-59.8-64.6-74.4-62.9l-1.9,2.1c28.9-45.8,34.3-100.6,16.4-141.6c-3-6.9-6.3-13.5-9.8-19.7l0.5,0.6c1.1-1.1,2.6-2.2,4.3-3.3
	l-13.2-15.6c46.7-2.8,74-26.9,84.6-38.6c-1.6-14.4-11.7-27.2-17.9-30.9c-9.5-5.7-58.6,12-104.4,33l3.7,4.3
	c-16-12.3-34.6-21.4-56-27.1c-0.2-0.6-0.4-1.1-0.7-1.7c-18,10-75.9,37.2-134.5,10.2l0.1,3.2c-11.8,5.3-21.9,11.3-30.6,17.7
	c-22.2-6.3-80.7-40.3-118.6-57.6c-4.7-2.2-8.9-3.3-12.6-3.5c-11.1,53.1,122.3,99.5,122.3,99.5c-15.8,109.2,32.8,202.7,32.8,202.7
	c-6,7.2-10,12-12.7,15.2c0.4,0.5,0.9,0.9,1.3,1.3c-8.5,14.8-12.2,34.1-11.3,49.8l3.7,1.9c7.3,3.3,14.6,7.2,21.7,11.5L162.1,689
	c-24.8-11.1-49.4-14.5-65.3-3.8c-0.3,29.8,109.9,69,143.2,48.2c2.6-7.4,3-16.1,0.5-26.1c-3.6-14.6-3.9-25.8-2.7-34.2
	c20.3,3.4,43.3,2.2,68.8-5.1c21.2-6,39.9-14.8,56.1-25.6c1.8,0.2,3.6,0.4,5.5,0.7C390.8,629.2,395.9,617.1,395.9,617.1"/>
<path class="st1" d="M187.9,362.3V362c-11.8,5.3-22,11.3-30.6,17.7c1.4,0.4,2.7,0.7,3.8,0.9c9.6,34.2-34.3,53.6-41.4,54
	c-0.3-0.1-0.6-0.1-0.9-0.1c-7.7,26.1-6.7,56.4-1.6,89.6c6.4,41.9,23.6,84.2,52.5,113.2c3-5.3,6.7-10,10.9-13.7"/>
<path class="st3" d="M162.1,689l21.7,11.5C176.7,696.1,169.4,692.3,162.1,689"/>
<path class="st2" d="M96.8,685.2c-5.1,3.4-9.3,8.2-12.3,14.8c-15.4,33,22.3,53.7,76.6,60.5c40.8,5.2,70.8-4.8,79-27.2
	C206.6,754.2,96.5,715,96.8,685.2"/>
<path class="st4" d="M426.1,425.2c17.2-11.5,58.3-25.6,64.9-30.3c5.9-7.7,7.4-16.1,6.5-23.8c-10.6,11.7-38,35.8-84.6,38.6
	L426.1,425.2z"/>
<path class="st2" d="M318.2,327.1h-3.4c2.1-0.4,4.2-0.8,6.2-1.3c57.7-12.3,78.7-46.8,89.9-86.8c9.3-33.3,2.5-62.4-11.8-85.3
	c0.6-1.7,5.1-14.3,8.3-22.3c3.4-8.7-3.1-28.7-14.2-42.4c-11-13.7-40.4,3.3-48.6,24l1.8,1.3c-55.1-13.3-157.8-3-200,10.9l1.3,3.9
	c-3.1-5.1-21-37.2-50.4-15.5c-26.5,21-14.1,47.7-3.7,65.4c1.7,2.9,3.3,5.5,4.7,7.9c-12.3,31.7-2.1,80.8,13.8,110.8
	c7.9,14.8,37.5,24.7,74,29.9l1.6,31.2c58.6,27,116.5-0.2,134.5-10.2C316.9,334,318.2,327.1,318.2,327.1"/>
<path class="st5" d="M587.9,647.7c-0.9-1.4-1.9-2.7-3-3.9c-13.5,11.5-74.3,59.2-124.7,29.2c0,0-26.6-44.9-64.3-55.8
	c0,0-5.1,12.1-27.8,26.1c7,1.1,14.2,2.8,17.7,4.7c24.1,12.9,41.5,46.2,41.5,46.2s8.8,39.5,79.1,37.1
	C576.7,728.7,607.2,678.5,587.9,647.7"/>
<path class="st2" d="M117.2,524.1c6.3,41.3,23.1,82.9,51.2,111.9c2.7-3.2,6.7-8,12.7-15.2c0,0-48.6-93.5-32.8-202.7
	c0,0-133.4-46.4-122.3-99.5c-28.1-1.8-28.8,45.8-14.5,63.4c16.2,19.8,73.3,47.9,107.3,52.5C111.1,460.6,112.2,490.8,117.2,524.1"/>
<path class="st6" d="M284.9,405.2c58.3-14.7,105.5,6.1,121.9,66.9c16.4,60.7-29,86.1-61.3,101.4c-32.3,15.3-112.9-3.2-127.7-48.2
	C203,480.2,222.4,424,284.9,405.2"/>
<path class="st7" d="M284.9,405.2c58.3-14.7,105.5,6.1,121.9,66.9c16.4,60.7-29,86.1-61.3,101.4c-32.3,15.3-112.9-3.2-127.7-48.2
	C203,480.2,222.4,424,284.9,405.2z"/>
<path class="st1" d="M491.1,650.1c-1.9-37.1-59.8-64.7-74.4-63"/>
<path class="st1" d="M417.6,412.1c26.5-6.4,74.6-35.1,74.6-35.1"/>
<path class="st1" d="M145.9,421.9c-19.1,55-2,164.8,30.6,198.8"/>
<path class="st1" d="M188.6,624.6c-14.2,19.1-23.5,42.2-20.1,65.4"/>
<path class="st1" d="M146.4,125.2c43.5-14.4,151.4-24.9,205.1-9.6"/>
<path class="st1" d="M344.6,113c8.2-20.7,37.6-37.7,48.6-24c11,13.7,17.6,33.7,14.2,42.4c-3.5,8.6-8.4,22.5-8.4,22.5"/>
<path class="st6" d="M386.4,87c0,0-26.6,10.5-31.1,28.8C366.4,100,378.9,90.3,386.4,87"/>
<path class="st1" d="M386.4,87c0,0-26.6,10.5-31.1,28.8C366.4,100,378.9,90.3,386.4,87z"/>
<path class="st1" d="M101.7,192.9c-6.4-13.8-39.3-51.5-4.4-79.3c29.4-21.7,47.4,10.5,50.4,15.5"/>
<path class="st6" d="M106.1,170c-11.7-19.2-18.2-35.1-2.8-45.2c15.4-10.1,23.5-2.9,29.4,10c-11.1-12.6-22-17.9-32.9-3.7
	C88.9,145.4,103.1,163.5,106.1,170"/>
<path class="st1" d="M106.1,170c-11.7-19.2-18.2-35.1-2.8-45.2c15.4-10.1,23.5-2.9,29.4,10c-11.1-12.6-22-17.9-32.9-3.7
	C88.9,145.4,103.1,163.5,106.1,170z"/>
<path class="st1" d="M108.5,194.7c-4.7,34.8,1.3,94.4,18.8,109.9c17.5,15.4,29.9,16.9,29.9,16.9"/>
<path class="st1" d="M246.1,652.3c0,0-6.4,6-8.4,20.8c20.3,3.4,43.3,2.2,68.8-5.1c115.3-32.6,156.3-148,124.6-220.5
	c-22.2-50.8-57.1-83.6-108.2-97.2c0.6,1.6,1.3,3.3,2.1,5.2"/>
<path class="st1" d="M118.8,434.4c0.3,0,0.6,0.1,0.9,0.1c7.1-0.4,51-19.8,41.4-54c-1.1-0.2-2.4-0.4-3.8-0.9"/>
<path class="st6" d="M169.7,637.3c3-5.3,6.7-10,10.9-13.7c-15.5,7.2-18.9,14.3-18.9,14.3L169.7,637.3z"/>
<path class="st1" d="M169.7,637.3c3-5.3,6.7-10,10.9-13.7c-15.5,7.2-18.9,14.3-18.9,14.3L169.7,637.3z"/>
<path class="st6" d="M237.7,673.1c2-14.8,8.4-20.8,8.4-20.8c-6,13.1-2.8,23.6-2.8,23.6L237.7,673.1z"/>
<path class="st1" d="M237.7,673.1c2-14.8,8.4-20.8,8.4-20.8c-6,13.1-2.8,23.6-2.8,23.6L237.7,673.1z"/>
<path class="st1" d="M314.8,327.1c62.5-11.1,84.6-46.7,96.1-88c12.2-43.4-3-79.7-26.9-104.5"/>
<path class="st1" d="M98.6,186.3C86,218,96.1,267.4,112.1,297.7c7.9,14.8,37.5,24.7,73.9,29.9v-0.2"/>
<polyline class="st1" points="186.1,327.6 188.6,376.5 183.3,345.3 "/>
<path class="st1" d="M322.9,350.4c-6.2-15.9-4.7-23.2-4.7-23.2h-3.4c-3.2,0.5-6.4,1.1-9.8,1.5"/>
<path class="st6" d="M314.8,327.1c-3.2,0.6-6.4,1.1-9.8,1.5l19,1.2l1.3-4.3L314.8,327.1z"/>
<path class="st1" d="M314.8,327.1c-3.2,0.6-6.4,1.1-9.8,1.5l19,1.2l1.3-4.3L314.8,327.1z"/>
<line class="st1" x1="186.1" y1="327.4" x2="186.1" y2="327.6"/>
<path class="st6" d="M301.2,181.9c-3.2,24.4,45.3,58.6,67.3-2L301.2,181.9z"/>
<path class="st1" d="M301.2,181.9c-3.2,24.4,45.3,58.6,67.3-2L301.2,181.9z"/>
<path class="st6" d="M405.8,166.9c-13.9-28.2-27.2-37.4-27.2-37.4c16.2,12.6,29.8,29.4,29.8,29.4L405.8,166.9z"/>
<path class="st1" d="M405.8,166.9c-13.9-28.2-27.2-37.4-27.2-37.4c16.2,12.6,29.8,29.4,29.8,29.4L405.8,166.9z"/>
<path class="st6" d="M375,362.4c29.2,21.7,47.8,46.8,58.4,68.4c-5.6,5.2-5.5,8.9-5.5,8.9c-18-34.4-40.2-57.5-61.5-71
	C365.3,362.1,375,362.4,375,362.4"/>
<line class="st1" x1="132.8" y1="437.9" x2="146.9" y2="440.7"/>
<line class="st1" x1="143.7" y1="460.4" x2="131" y2="463.2"/>
<line class="st1" x1="131.4" y1="477.7" x2="140.9" y2="476.7"/>
<path class="st1" d="M145.2,496.4c0,0-10.3,2.5-11.3,1.4"/>
<line class="st1" x1="133.5" y1="514.4" x2="146.2" y2="513.7"/>
<line class="st1" x1="148.7" y1="535.5" x2="139.2" y2="536.6"/>
<line class="st1" x1="141.6" y1="556" x2="152.2" y2="552.8"/>
<line class="st1" x1="154.3" y1="565.9" x2="145.2" y2="569.7"/>
<line class="st1" x1="150.5" y1="583.1" x2="160.3" y2="580.3"/>
<line class="st1" x1="165.3" y1="596.1" x2="154.3" y2="598.6"/>
<line class="st1" x1="162.8" y1="612.4" x2="174.1" y2="610.3"/>
<line class="st1" x1="101.8" y1="200" x2="114" y2="200.6"/>
<line class="st1" x1="114.9" y1="218.5" x2="101.2" y2="220.1"/>
<line class="st1" x1="103.6" y1="249.2" x2="115.2" y2="250.5"/>
<line class="st1" x1="118.5" y1="264.7" x2="106.7" y2="264.5"/>
<line class="st1" x1="111.2" y1="285.4" x2="121.9" y2="283.3"/>
<line class="st1" x1="114.6" y1="233.7" x2="101.2" y2="233.7"/>
<line class="st1" x1="116.4" y1="295.8" x2="124.9" y2="293.6"/>
<line class="st1" x1="426.7" y1="398" x2="430.9" y2="415"/>
<line class="st1" x1="444.9" y1="407.7" x2="443.6" y2="396.4"/>
<line class="st1" x1="459.2" y1="389.1" x2="459.2" y2="400.1"/>
<line class="st1" x1="479.3" y1="389.1" x2="476.5" y2="380"/>
<path class="st6" d="M430.3,581.7c-22.5,36.2-46.8,56.8-67.5,71.2c-19.2,3.1-20.4,1.5-20.4,1.5s59.3-30.4,84.3-86.4
	C428.4,567.4,430.3,581.7,430.3,581.7"/>
<path class="st1" d="M430.3,581.7c-22.5,36.2-46.8,56.8-67.5,71.2c-19.2,3.1-20.4,1.5-20.4,1.5s59.3-30.4,84.3-86.4
	C428.4,567.4,430.3,581.7,430.3,581.7z"/>
<path class="st6" d="M509.6,632.7c-38.3,15.8-49.2,36.2-49.2,36.2c23.1-15.6,55.9-30.5,55.9-30.5L509.6,632.7z"/>
<path class="st1" d="M509.6,632.7c-38.3,15.8-49.2,36.2-49.2,36.2c23.1-15.6,55.9-30.5,55.9-30.5L509.6,632.7z"/>
<path class="st6" d="M153.2,675.4c23.5,4.4,35.6,27.5,35.6,27.5s-21.9-11.7-37.6-18.2C151.2,676.2,153.2,675.4,153.2,675.4"/>
<path class="st1" d="M153.2,675.4c23.5,4.4,35.6,27.5,35.6,27.5s-21.9-11.7-37.6-18.2C151.2,676.2,153.2,675.4,153.2,675.4z"/>
<line class="st1" x1="164.9" y1="663.2" x2="175" y2="669.7"/>
<line class="st1" x1="179.9" y1="654.7" x2="169" y2="651.1"/>
<line class="st1" x1="175.9" y1="634.5" x2="186.4" y2="637.7"/>
<path class="st8" d="M295.6,404.2c57.3-7.5,100.1,18.3,109.1,79.5c9,61.2-37.3,80.7-69.9,91.8c-32.6,11.1-107.5-16.3-116.7-62
	C208.9,467.8,233.7,415.2,295.6,404.2"/>
<path class="st9" d="M295.6,404.2c57.3-7.5,100.1,18.3,109.1,79.5c9,61.2-37.3,80.7-69.9,91.8c-32.6,11.1-107.5-16.3-116.7-62
	C208.9,467.8,233.7,415.2,295.6,404.2z"/>
<path class="st1" d="M295.6,404.2c57.3-7.5,100.1,18.3,109.1,79.5c9,61.2-37.3,80.7-69.9,91.8c-32.6,11.1-107.5-16.3-116.7-62
	C208.9,467.8,233.7,415.2,295.6,404.2z"/>
<path class="st1" d="M341.1,486.5c-7.4,7.2-8.7,18.4-3.3,16.4c5.4-1.9,2.4-13.2-1-9.5"/>
<path class="st10" d="M211.2,135.5c3.6,8.1,5.2,31,5.2,31"/>
<path class="st10" d="M201.7,152.4c11.8-0.6,30-3.3,30-3.3"/>
<path class="st10" d="M316.2,130.9c2.9,18.6,4.3,28.4,4.3,28.4"/>
<path class="st10" d="M304.5,146.6c0,0,22.2-2.9,26.7-1.9"/>
<path class="st11" d="M286,274.8c67.4,42.8,199.5-19.7,84.4-96.4C382.4,231,369.3,278.9,286,274.8"/>
<path class="st12" d="M131,133.7c-21.3-8.5-24.8,36.3-24.8,36.3C79.8,132.2,108.2,109.5,131,133.7"/>
<path class="st13" d="M82.3,726.8c-12.9-37,48.2-27.7,106.8-6.4c33.2,12.1,45.5-49,45.5-49s31.7,72.8-25.4,86.6
	C151.5,771.9,99.5,750.9,82.3,726.8"/>
<path class="st13" d="M593.5,656c-8.7-34.1-181.3,41.2-155.1,59.2c4.9,3.4,9.7,12.4,22.8,14.4C521.7,739,608.7,715.6,593.5,656"/>
<path class="st6" d="M373.3,178.7l-2.4,1.8c0.2,0,0.7,0,0.9,0.1c7.3,32.3,5.9,96.7-85.8,94.3c96.8,2.3,94.6-53.6,87.7-96
	C373.6,178.8,373.4,178.8,373.3,178.7"/>
<path class="st1" d="M373.3,178.7l-2.4,1.8c0.2,0,0.7,0,0.9,0.1c7.3,32.3,5.9,96.7-85.8,94.3c96.8,2.3,94.6-53.6,87.7-96
	C373.6,178.8,373.4,178.8,373.3,178.7z"/>
<path class="st14" d="M200.6,188.2c30.7-4,158.2-9.4,170.3-7.8l2.4-1.8C366.2,174.7,277.6,179.3,200.6,188.2"/>
<path class="st14" d="M382.7,84.1c-24.7-1.2-39.1,28.6-39.1,28.6l7.8,1.9C351.4,114.6,356.4,89.5,382.7,84.1"/>
<path class="st14" d="M115,106.1c-37.5,2.7-38.7,48.3-26.7,61.1C82,136.3,92.5,121.2,115,106.1"/>
<path class="st1" d="M588.5,658.3c-25.5,41.9-88.9,73.2-143.9,48.2"/>
<line class="st1" x1="461.8" y1="703.2" x2="467.1" y2="720.6"/>
<line class="st1" x1="488.1" y1="707.3" x2="491.8" y2="721.1"/>
<line class="st1" x1="532.2" y1="698" x2="537.9" y2="709.7"/>
<line class="st1" x1="553.7" y1="687.1" x2="556.5" y2="698.8"/>
<line class="st1" x1="573.1" y1="670.5" x2="577.1" y2="681"/>
<line class="st1" x1="521.8" y1="707.1" x2="518.5" y2="696"/>
<path class="st15" d="M116.1,438.2c0,0-17.6,134,45.9,181c57.1,42.3,4.3-101.2-7.8-204.9c0,0-142.6-104-153.4-75.3
	c-1.5,4-2.1,26.3,10,41.2c10.5,12.9,25.8,24,44,32.4C85.5,426.8,116.1,438.2,116.1,438.2"/>
<path class="st1" d="M147.1,420.7c-19.1,55-2,164.8,30.6,198.8"/>
<path class="st1" d="M120,433.2c0.3,0,0.6,0.1,0.9,0.1c7.1-0.4,51-19.8,41.4-54c-1.1-0.2-2.4-0.4-3.8-0.9"/>
<line class="st1" x1="134" y1="436.6" x2="148.1" y2="439.4"/>
<line class="st1" x1="144.9" y1="459.2" x2="132.3" y2="462"/>
<line class="st1" x1="132.6" y1="476.5" x2="142.1" y2="475.4"/>
<path class="st1" d="M146.4,495.2c0,0-10.3,2.5-11.3,1.4"/>
<line class="st1" x1="134.8" y1="513.1" x2="147.5" y2="512.4"/>
<line class="st1" x1="149.9" y1="534.3" x2="140.4" y2="535.3"/>
<line class="st1" x1="142.8" y1="554.7" x2="153.5" y2="551.6"/>
<line class="st1" x1="155.6" y1="564.6" x2="146.4" y2="568.5"/>
<line class="st1" x1="151.7" y1="581.9" x2="161.6" y2="579.1"/>
<line class="st1" x1="166.5" y1="594.9" x2="155.6" y2="597.4"/>
<line class="st1" x1="164" y1="611.2" x2="175.3" y2="609"/>
<path class="st1" d="M375,362.4c29.2,21.7,47.8,46.8,58.4,68.4c-5.6,5.2-5.5,8.9-5.5,8.9c-18-34.4-40.2-57.5-61.5-71
	C365.3,362.1,375,362.4,375,362.4z"/>
<path class="st16" d="M473.7,376c-21.3,7.9-61.4,24-61.4,24l11.4,24.2l66.3-25.4c0,0,9.2-9.5,8.9-22.4
	C498.4,359.1,483.3,372.4,473.7,376"/>
</svg>
