<?xml version="1.0" encoding="utf-8"?>
<!-- Generator: Adobe Illustrator 22.0.0, SVG Export Plug-In . SVG Version: 6.00 Build 0)  -->
<svg version="1.1" id="Warstwa_1" xmlns="http://www.w3.org/2000/svg" xmlns:xlink="http://www.w3.org/1999/xlink" x="0px" y="0px"
	 viewBox="0 0 595.3 841.9" style="enable-background:new 0 0 595.3 841.9;" xml:space="preserve">
<style type="text/css">
	.st0{fill-rule:evenodd;clip-rule:evenodd;fill:#52A6B2;}
	.st1{fill-rule:evenodd;clip-rule:evenodd;}
	.st2{fill-rule:evenodd;clip-rule:evenodd;fill:#FFED00;}
	.st3{fill:none;stroke:#000000;stroke-width:2.0001;stroke-linecap:round;stroke-linejoin:round;stroke-miterlimit:22.9256;}
	.st4{fill-rule:evenodd;clip-rule:evenodd;fill:#EF7C00;}
	.st5{fill:none;stroke:#0D1645;stroke-width:0.1689;stroke-miterlimit:22.9256;}
	.st6{fill-rule:evenodd;clip-rule:evenodd;fill:#FFCC00;}
	.st7{fill-rule:evenodd;clip-rule:evenodd;fill:#FFFBDB;}
</style>
<path class="st0" d="M549.1,625.4c39.5,19.7,6.3,51.3-101.8,34.7c-37.9,15-131.8,14.2-178.4,4c-70.3,9.5-304.7,11.1-217.9-22.9
	c86.8-34,247.1-4.7,247.1-4.7l156.3-11.1H549.1z"/>
<path class="st1" d="M465.3,167.7c7.4-18.5,12.1-20.9,3.6-51c-14.3,2.3-29.8,15.9-49.6,20.7c-0.2-15.4,8.6-24.1,4.4-34.2
	c-16.8,1.5-31.3,15.6-46.2,22c-18.3,7.8-37.7,12.7-55.7,19.3c-64.2,23.4-92.5,84.9-76.5,155.2c6,55.8,57.8,70.2,61.9,84.5
	c-81.3,4.6-118.5,26.6-162.5,43.2c-60.2,25.5-106.6-47.1-130.9-58.8c-12,16.8-15.1,22.2-13.4,47.8c33.3,111.7,33.7,129.2,87.8,182
	c71.7,55.4,168.9,69.9,277.9,58.5c54.8-7,107.1-22.4,140.5-52.8c27.8-25.3,43.5-60.4,28.6-114.8c-21.7-79.4-65.9-88.2-69.4-110.9
	c-14.3-54.6,96.5-37.1,102.9-33.8c12.6-2.8,2.6-13.2,0.6-28.3c20.3-17.1,19.1-11.6,24.9-32.8c1.6-13,2.1-3.6-2.9-11.8
	c-6.4-5.8-61-4.9-81.3-20.5C495.2,218.3,492.4,186.9,465.3,167.7"/>
<path class="st2" d="M318.2,391.7c-1.2-13.8-15.6-22.4-35.2-36.4c-57.2-57-49-164.2,37.7-202.8c18-8,29.2-7.2,49.3-13.5
	c15.7-4.9,30.7-15.6,45.9-18.5l-3.8,26.9c25.3,1.7,35-12.1,51.6-15c2.5,22.3,2.7,19.3-3.6,37.3c8.7,9,12.5,15.8,22.1,30.9
	c12.3,23.4,20.5,47.2,19,57.3c0.3,24.2,14.3,59.2-18.2,77.4c-60.3,33.8,0.2,75.6,25.4,107.1c17.3,30.9,34,76,22.1,117.1
	c-32.8,112.5-346.8,130.2-444,27.5c-55.9-59.1-54-94.4-73.4-153.7c-7.2-21.9-9.8-39.2,4.5-57c12.3,17.9,28.9,31.9,54.6,47.9
	c58.4,36.3,101.2-8.4,156.5-21.9C249,396.6,313.7,393.9,318.2,391.7"/>
<path class="st3" d="M471.5,238.7c-20.9-25.4-38.7,1.9-38.7,1.9"/>
<path class="st1" d="M160.5,472.3c-0.5,23.5,31.5,37.4,34.9,44.2l-28.4-5.3c8,51.6,56.3,95.3,117,97.2
	c70.7,2.2,200.1-40,126.7-143.6c-44.1-62.3-137.6,0.1-155,5.3C224.6,479.7,192.3,473.4,160.5,472.3 M168.4,479.9
	c30-0.5,64.9,6.9,92.9-4.5c24.9-10.1,37.2-24.9,69.1-30.2c36.6-6.1,58.9,0.3,75.1,21.6c11.9,15.6,24.5,51.3,14.2,79
	c-22.8,61.1-212.1,89.4-244-24.9c20,2.3,46.1,13,62.4,1.7C222.2,512.4,191.3,514,168.4,479.9z"/>
<path class="st4" d="M572,338.2c-15-1.2-15-1.2-15-1.2c0,0-10.7-1.2-11.5-1.3c-15.3,0.3-36.1-0.5-44.2,0.4
	c-36.2,4-114.2-44.1-84.8-57.6c15.1-6.9,87.2,20.4,84.9-25.7c36.6,9.8,47.9,20.7,89.9,23.7c-2.8,17-8.6,26-22.5,34.4
	c-0.6,0.3-6.7,3.5-5,5.6C566.7,319.9,567.7,333.5,572,338.2"/>
<path class="st1" d="M592.3,288.4c-0.6-8.2-2.9-7.5-2.2-1.9c-4,28.5-113.7,61.2-159.3,1.8c-4-4.6-5.1,1-0.6,5.5
	C489.7,350.5,595.1,317.6,592.3,288.4z"/>
<path class="st5" d="M592.3,288.4c-0.6-8.2-2.9-7.5-2.2-1.9c-4,28.5-113.7,61.2-159.3,1.8c-4-4.6-5.1,1-0.6,5.5
	C489.7,350.5,595.1,317.6,592.3,288.4z"/>
<path class="st6" d="M414.6,633.4c35.7,4.6,91.6-23.3,113-65.8c7.8-15.5,8.5-41.8,5.5-56.5c-3.3-16.3-8.6-45.3-16.6-52.9
	c-2.2-2.1,10.8,48.1-13.6,75.3C478.4,560.6,352.4,629.5,414.6,633.4"/>
<path class="st6" d="M325.6,597.4c-13.7,2.1-27,3-38.7,2.6c-47.6-1.5-87.5-28.7-106.4-65.2c6.2-0.7,12.6-1,19-1
	C256.1,533.8,304.7,560,325.6,597.4"/>
<polygon class="st7" points="454.9,168.6 461.2,181.5 473.8,195.6 502,252 495.6,227.7 483,200 460.9,169.1 465.6,154.7 
	464.9,136.1 464.4,131.8 450.3,136.9 429.1,145.6 460.5,138.5 458.8,151.6 "/>
<path class="st6" d="M111.2,607.7c8.8,6,53.7,28.9,103.8,39.2c46.6,9.6,98.4,7.9,109.6,6.3c49.3-6.8,95.5,0.6,67.4-23.9
	c-7.9-5-80.4,19.3-149.1,10.6C160.4,629.5,82.1,587.8,111.2,607.7"/>
<path class="st7" d="M502,590.8c16.6,0.7,20.6-15.4,29.4-33.7c4.1-8.5,2-50.1,0.3-58.1c-1.8-8.9-4.7-24.8-9.1-29
	c-1.2-1.1,12,51.2,1.2,66.4C513.1,551.5,480.3,583.5,502,590.8"/>
</svg>
