<svg fill="#fff" xmlns="http://www.w3.org/2000/svg" viewBox="0 0 500 336.46"><path d="M27.86 198.43c.32-3.92 1.52-8.9 1.73-12.6l.73-96.8c-.68-13.12 2.93-16.36 1.57-31.77l16.5 10c3.55 2.1-.37-.63 4 2.6l65 53.92 1.15 1 2.3 2.25a60.23 60.23 0 0 0 7.15 6.37l12.9 9.4c.36.3.94.67 1.3.94l7.1 6.37a79.12 79.12 0 0 1-7 10.71c-6.48 7.58-4.55 1.83-17.6 18.5a11.47 11.47 0 0 1-1 1.2l-6.85 8.88c17.87-6.95 36.05-34.06 42.27-31.2 8.78 4 6.53 6.43-3 20.22l-10.8 11.76-1.1 1.1-13.32 13.9a10.41 10.41 0 0 0-1.15 1.15L109 228.47l-1.05 1.2-18.9 19.5c-2 2.25-2.5 2.72-4.4 4.7l-1.1 1.1-3.4 3.45c-2 2-7.37 7.16-8.52 9.46-2.3 4.75-.26 2.1-2.1 6.53-7.32 18.18-22.1 16.93-29.94 22.62l-18 10.08zm454.52 28.84c-.78-7.58.57-7.73 3.45-11.76.73 7.68 2.3 12.86.3 19-1 3.24-1.4 2.25-2.66 4zM38.52 319.04c4.7-8.83 20.95-17.35 26-22 4.76-4.33 5.85-7.47 10.3-12.17l99.07-104.3c11.9-10.3 12.5-.73 27.32 9.3l5.28 3.6 1.3.94c13.84 10.34 14 6.94 15.4 18.86 19.28-1.62 20.27 11.9 36.47-2.82l38.6-32.2c7.06-6 5-2.4 6.7-8.93l4.5-.42c3.35 8.93 12 12.6 17.72 18.7a120.6 120.6 0 0 0 9.09 8.89l34.33 39.6c9.56 17.2-2 3.34 14.94 15.78l35.7 36.84a44.12 44.12 0 0 1 4 5.22l.94 1.3 15.82 18.3c4.23 5.6-.05-2.82 3.82 5.44-19.75 1.4 1.77-1.26-16-13-8.57-5.65-26-26.7-43.95-42-7.78-6.64-1.14-4.3-9.2-6.38 3.45 8.78 16.1 16.78 27.6 31.62l21.84 23.6c6.06 5.28 3.24.73 6.27 7.37l-21.9 3.66c-23 3-53.4.36-69.9 1.2-17.66.94-61.8-4.08-100.26-2.5-23.93 1-34.6-2.1-47.7-2.25l-116.78 6c-6.22.78-5.75 1.72-12.7.78l-20.48-5.43c-3.03-1.42-2.2-1.2-4.13-2.6zm335.55-63.38h.57c4.55-.9-3.2-5.8-2.56.16.47 4.68.16.13 2-.13zm-54.45-99.06a32.7 32.7 0 0 0 5.07-4c.37-.3.84-.78 1.2-1.1L464.6 38.86l6.8 71.84c2.1 22.26-1.62 31.2.36 51.94l1.67 65.46c1.4 14.9 3.92 56.17-3.86 69.13a53.45 53.45 0 0 1-4.81 6.37c-3.66-3.18-6.74-5.43-11.08-9.1-21.16-17.87-38.5-39.24-54.75-53.8l-54.86-53.6c-4-4.44-4.3-5.8-8.1-10.3-2.77-3.24-.16.36-4.24-4.8zm164.48 41c-1.5-16.14-5.38-35.1-3.45-50.37 2.36-18.9 0-34.22-2-55.43-1.47-15.2-.06-20.74-1.2-31.72-1.57-14.94-7.22-24.6 2.2-29.47l5 9.1c6.7 23.46 7.68 51.4 3 73.72l-.87 63.6c.36 8.25 1.2 8.5-1.4 17.45zm-226.34-1.15c-16.1-2.2-40.9-18.86-54-29.73-1.94-1.56-4.44-3.3-6.48-4.65l-41.38-34.95c-.37-.26-.9-.73-1.26-1l-34.3-28.38c-.36-.3-.83-.73-1.2-1L76.3 65.98c-6-4.76-8.62-5.23-14.58-9.83-5.12-4-8.25-7.16-13.53-11.13-7.68-5.8-6.53-2.92-11.65-10.92 17.24-1.77 42.58-6.06 55-5.8 10.5.26 11.65 1.94 25.8.53 56.22-5.6 77.53-8.68 135.48-8.68l24.1-2c9.77-.52 19.7-2 29.46-2.76 13.43-.94 11.45.47 22.42 0 8.93-.37 18-1.94 27-2.3 13.22-.52 21.8.2 42 1.25 10.92.53 36.94.42 42.53 6.43C421 22.7 334.42 23.9 315.4 20.5h-7.16c-10.66.15-10.45-1.1-12.38 5l8.36.52c1.78.1 6.84.73 8.88.94l55.75 2.72c24.72 2.82 57 1.3 85.7-1.1-3.55 6-17.3 15.42-23.88 21.63L418.5 60.78c-4.65 4.13-7.73 7.37-12 10.7l-64.32 50.16c-4.57 3.73-6.72 7.4-11.17 11.4-1.4 1.3-4.5 4-6.16 5.23-3.08 2.35-3.76 2.35-6.9 4.65-.73.52-3.08 2.5-3.7 3.08l-8.15 7.73c-2.1 1.68-2.46 1.68-4 2.93l-20.3 18.38c-1.5 1.5-3 3.4-3.18 3.6zM4.3 28.2c1.93 9.82-.52 3.2 4 7.58l7 4.07a14.22 14.22 0 0 1 1.51.73L12 84.16c-.16 10.92-.1 12.07-.9 22.1s1.15 8.52-.16 20.22l-8.9 83.8c-1.83 27.17-7.16 97.6 12.5 110.35 3.87 2.5 4.5 2.6 8.4 4.8l60.56 11c5.07-.37 5.38-1.36 13-2.56 9.1-1.46 19.85-1.88 29.26-2.82 17.82-1.78 34.17 1 63.17-1.36l45.14 2.82c11.55.94 35.43-.05 47.9-.42 28.53-.78 119.6 7.26 146.82 1.67 19.9-4.12 46.82-5 59.67-23 4.6-6.37 4.76-14.36 5.54-20.7l1.46-16.77c-.3-14.3-1-13.95.9-26.28 2.56-17.14-1.5-64.53-.42-76.8 2.77-30.82-2.2-37 1.05-50.78 4.6-19.7 2.72-35.22 2-52.3-.62-14.16-.2-32.08-8.93-44.15-9.3-12.8-17.45-19.9-36.37-21-14.9-.83-20.32-2.24-29.3-2l-32.55 1.1L360.28.2c-7.73 0-20.74 2.82-28.73 2.5-37.05-1.4-97.92 5.18-135.5 3.45-23-1.1-47.8 5.07-70.85 3.2-22.3-1.78.27-3.55-29.26.05zm443.86 100.47c3.86 41.6-1.83 48.28-1.42 62.5.58 18.24-5.95 10.7-.47 15.37 14.53 12.27 7-48.28 6.27-55.65-.83-9-.1-16.84-4.38-22.2zm-295.32 154.7c5.86-3 5.7-12.12 4.8-20.84L155 250.62c-1.73-2.92-1.78-1.88-3.35-3.34-4 1.88-4-3.76-5.12 5.17-.2 1.73 1.3 5.7 1.57 10.35zM354.26 44.8c19-1.82 11 8.83 47.8 2.25-2.66-4.9.63-2.5-4.65-4.65l-43.36.16zm8.84 236.7c-.4 1.36-5.95-.83 3.5 5.5l21.53 19.33c3-9-2.3-10.8-13.17-19.12l-7.52-6.16c-6.84-2.88-2.2-.8-4.34.46zm-180.68 3.54c.05 0 5-1.5.2-17.7a33 33 0 0 0-3-6.37c-2.88-3.82-1.67-3.1-6.7-4.4l6.7 24.2c1.6 3.36 1.43 2.52 2.8 4.28zm-36.9-222.77c4.75-1.73 5.17-.58 10.3-10 1.1-2 .9-1 1.83-4.65-7.42-2.87 1.88-4.33-13.43 1.3zm68.65-15.52c2.3-6.12 4.34-7.63 5.54-14.1-11-3.87-9.3-.68-13.37 8.52zm135.9 240.55c-.15.37-3.55 1.73 4 7.47 4 3 7.94 3.82 13 4.5-2.42-6.64-10.62-15.73-17-11.97zM176.46 54.85c5.33-2.62 1.93-.8 4.28-2.67l6.54-7.9-7.8-5.48c-6.63 5.9-5.8 7.68-3.03 16.04zm-4.18 27.58c10.6-1 9.2-1.15 10.35-10-10.5 1.17-9.1.9-10.35 10z"/></svg>