<?xml version="1.0" encoding="utf-8"?>
<svg version="1.1" id="Warstwa_1" xmlns="http://www.w3.org/2000/svg" xmlns:xlink="http://www.w3.org/1999/xlink" x="0px" y="0px"
	 viewBox="0 0 360 165" style="enable-background:new 0 0 360 165;" xml:space="preserve">
<style type="text/css">
	.st0{fill-rule:evenodd;clip-rule:evenodd;fill:#482080;}
	.st1{fill-rule:evenodd;clip-rule:evenodd;fill:#E0007A;}
	.st2{fill-rule:evenodd;clip-rule:evenodd;fill:#F77E0B;}
	.st3{fill-rule:evenodd;clip-rule:evenodd;fill:#FFEE00;}
	.st4{fill-rule:evenodd;clip-rule:evenodd;fill:#3A1667;}
	.st5{fill:none;stroke:#000E3B;stroke-width:2.0001;stroke-miterlimit:22.9256;}
	.st6{fill-rule:evenodd;clip-rule:evenodd;fill:#000E3B;}
	.st7{fill:none;stroke:#000E3B;stroke-width:2.1691;stroke-linecap:round;stroke-linejoin:round;}
	.st8{fill-rule:evenodd;clip-rule:evenodd;fill:#E54F96;}
	.st9{fill-rule:evenodd;clip-rule:evenodd;fill:#CFD40E;}
	.st10{fill:none;stroke:#000E3B;stroke-width:0.9221;stroke-linecap:round;stroke-linejoin:round;}
	.st11{fill-rule:evenodd;clip-rule:evenodd;fill:#B468A7;}
	.st12{fill-rule:evenodd;clip-rule:evenodd;fill:#91729A;}
	.st13{fill:none;stroke:#000E3B;stroke-width:3.4328;stroke-linecap:round;stroke-linejoin:round;}
	.st14{fill-rule:evenodd;clip-rule:evenodd;fill:#EA76AC;}
	.st15{fill-rule:evenodd;clip-rule:evenodd;fill:#E1B1C9;}
	.st16{fill-rule:evenodd;clip-rule:evenodd;fill:#76187E;}
	.st17{fill:none;stroke:#000E3B;stroke-width:0.1689;stroke-miterlimit:22.9256;}
	.st18{fill-rule:evenodd;clip-rule:evenodd;fill:#FFFFFF;}
	.st19{fill:none;stroke:#000E3B;stroke-width:1.1259;stroke-linecap:round;stroke-linejoin:round;}
	.st20{fill:none;stroke:#000E3B;stroke-width:6.600000e-02;stroke-miterlimit:22.9256;}
	.st21{fill-rule:evenodd;clip-rule:evenodd;fill:#94472B;}
	.st22{fill-rule:evenodd;clip-rule:evenodd;fill:#7495B3;}
	.st23{fill-rule:evenodd;clip-rule:evenodd;fill:#894E41;}
	.st24{fill-rule:evenodd;clip-rule:evenodd;fill:#93472D;}
	.st25{fill:none;stroke:#000E3B;stroke-width:6.800000e-02;stroke-miterlimit:22.9256;}
	.st26{fill-rule:evenodd;clip-rule:evenodd;fill:#B68578;}
	.st27{fill-rule:evenodd;clip-rule:evenodd;fill:#BE5628;}
	.st28{fill:none;stroke:#000E3B;stroke-width:0.3421;stroke-linecap:round;stroke-linejoin:round;}
	.st29{fill-rule:evenodd;clip-rule:evenodd;fill:#783E30;}
	.st30{fill-rule:evenodd;clip-rule:evenodd;fill:#733C2F;}
	.st31{fill-rule:evenodd;clip-rule:evenodd;fill:#773C2F;}
	.st32{fill-rule:evenodd;clip-rule:evenodd;fill:#6D382D;}
	.st33{fill-rule:evenodd;clip-rule:evenodd;fill:#814031;}
	.st34{fill:#FFFFFF;}
</style>
<path class="st0" d="M174.7,2.4c62.1,0,112.8,35.5,112.8,73c0,5.1,1.9,15.7-1.6,12.2c-3.3-3.3-3.2-12.4-5.6-16.2
	c-6.4-10.3-14.8-22.8-27.5-31.3C218,17,163-9.3,92.2,44.3C86.4,48.8,61.9,85,61.9,75.4C61.9,35.2,112.5,2.4,174.7,2.4z"/>
<path class="st1" d="M173.6,9.2c62.1,0,112.8,35.5,112.8,73c0,5.1,1.9,15.7-1.6,12.2c-3.3-3.3-3.2-12.4-5.6-16.2
	c-6.4-10.3-14.8-22.8-27.5-31.3c-34.8-23.2-89.8-49.5-160.5,4.2c-5.8,4.4-30.3,40.7-30.3,31.1C60.8,42,111.5,9.2,173.6,9.2z"/>
<path class="st2" d="M174.1,15.9c62.1,0,112.8,35.5,112.8,73c0,5.1,1.9,15.7-1.6,12.2c-3.3-3.3-3.2-12.4-5.6-16.2
	c-6.4-10.3-14.8-22.8-27.5-31.3c-34.8-23.2-89.8-49.5-160.5,4.2c-5.8,4.4-30.3,40.7-30.3,31.1C61.4,48.7,112,15.9,174.1,15.9z"/>
<path class="st3" d="M172.5,26c62.1,0,112.8,35.5,112.8,73c0,5.1,1.9,15.7-1.6,12.2c-3.3-3.3-3.2-12.4-5.6-16.2
	c-6.4-10.3-14.8-22.8-27.5-31.3c-34.8-23.2-89.8-49.5-160.5,4.2c-5.8,4.4-30.3,40.7-30.3,31.1C59.7,58.8,110.4,26,172.5,26z"/>
<path class="st4" d="M175.3,105.9C175.3,105.9,175.3,106,175.3,105.9c0,0.1,0,0.2,0,0.2L175.3,105.9
	C175.4,105.9,175.4,105.9,175.3,105.9z"/>
<path class="st0" d="M312.8,139.3c-0.5,2.5-2.9,4.1-5.3,3.6l-264.3-0.8c-2.5,0.2-4.6-1.7-4.8-4.2L41,73.7c-0.2-2.5,1.7-4.6,4.2-4.8
	l258.1-4c2.4,0.8,3.7,3.3,2.9,5.7L312.8,139.3z"/>
<path class="st5" d="M312.8,139.3c-0.5,2.5-2.9,4.1-5.3,3.6l-264.3-0.8c-2.5,0.2-4.6-1.7-4.8-4.2L41,73.7c-0.2-2.5,1.7-4.6,4.2-4.8
	l258.1-4c2.4,0.8,3.7,3.3,2.9,5.7L312.8,139.3z"/>
<path class="st4" d="M72.8,92.1c0,0-3.3-0.3-3.3-0.3h-1.7c-0.6,0-1.3,0.3-1.7,0.7c-0.5,0.5-0.7,1.1-0.7,1.7l0,5.3
	c0,0.6,0.3,1.3,0.7,1.7c0.5,0.5,1.1,0.7,1.7,0.7H70c1.9,0,3.3-0.3,4.3-0.8c0.9-0.5,2.3-1.6,2.3-4.2c0-1.2-0.4-2.3-1-3.2
	C74.9,92.9,74,92.3,72.8,92.1z M70.3,97.1c0-0.2,0-0.2,0-0.3c0.6,0,1.3,0.1,1.3,0.1c0,0,0,0.1,0,0.1C71.4,97,71,97,70.3,97.1z"/>
<path class="st4" d="M303.7,105.9c0-0.6-0.4-1.3-0.8-1.7c-0.5-0.4-1.1-0.6-1.8-0.6l0,0c-0.1-1.6-0.2-3.2-0.2-3.2
	c-0.2-2.1-0.5-3.7-1.1-4.8c-0.6-1.1-1.5-2.2-2.7-3c-1.3-0.9-3-1.4-5.2-1.7c0,0-3.2-0.2-3.2-0.2l-3.9,0.2c-3.1,0.2-5.6,0.7-7.6,1.4
	c0.2-0.2,0.4-0.4,0.5-0.6h1.4c0.7,0,1.3-0.3,1.7-0.7c0.5-0.5,0.7-1.1,0.7-1.7v-2.5c0-1.4-1.1-2.5-2.5-2.5l-10,0
	c-0.6,0-1.3,0.3-1.7,0.7c-0.5,0.5-0.7,1.1-0.7,1.7v2.5c0,0.9,0.6,1.5,1.3,2c-2.2,2.6-3.7,4.2-6.4,7.4c0-3.4,0-5.2,0-7h1.3
	c0.6,0,1.3-0.3,1.7-0.7c0.5-0.5,0.7-1.1,0.7-1.7v-2.5c0-1.4-1.1-2.5-2.4-2.5l-12.8,0c-1.4,0-2.5,1.1-2.5,2.5l0,2.5
	c0,0.1,0.1,0.2,0.1,0.4h-0.3c-0.6,0-1.3,0.3-1.7,0.7c-0.5,0.5-0.7,1.1-0.7,1.7c0,0,0,11.9,0,12c0,0.3,0,0.6,0,1
	c-0.1-0.1-0.1-0.1-0.1-0.2l-8.9-14.1c-0.4-0.7-1.2-1.1-2.1-1.1l-4,0c-1.4,0-2.5,1.1-2.5,2.5l0,16.5c-0.2,0-0.3-0.1-0.5-0.1
	c0.1-1.5,0.2-3,0.2-3c0-0.6,0.1-1.2,0.1-1.8c0-1.2-0.1-2.2-0.4-3c-0.4-1.2-1.1-2.3-2.2-3.4c-1.1-1.1-2.7-1.8-4.8-2.4
	c0,0-3.1-0.7-3.1-0.7c0,0-3.8-0.4-3.8-0.4c-4-0.3-7-0.1-9.2,0.6c-2.4,0.8-4.3,2.3-5.6,4.4c0-1.3,0-2.1,0-2.3
	c0.3-0.6,0.9-2.3,0.9-2.3c-0.1-3.1-3.8-4.1-5.1-4.5c-2.5-0.7-3.9-0.8-5-0.6c-2.7,0.7-3.3,2.3-3.4,3.2c0,0.2-0.1,0.2-0.1,0.1
	c0,0,0,0,0.1,0.1c0,0,0.3,0.7,0.5,1.3c0,0,0,0,0-0.2V94c0.1,0.3,0.2,0.6,0.3,0.6c-0.1-0.1-0.2-0.4-0.2-0.4c0-0.1,0-0.1-0.1-0.1
	c0,0.6,0,13.7,0,21c-0.2-0.1-0.3-0.2-0.5-0.3c0,0-0.1,0-0.2,0c0-3.5,0-14.8,0-14.8c0-0.6-0.3-1.3-0.7-1.7c-0.5-0.5-1.1-0.7-1.7-0.7
	l-9.9,0l-1.5,0.4c-0.1,0-0.1,0.1-0.2,0.1c-0.4-0.2-0.7-0.5-1.2-0.5l-9.8,0c-0.2,0-0.4,0-0.6,0.1c-0.1,0-0.1,0-0.2,0.1l0-0.9
	c0-0.6-0.3-1.3-0.8-1.7c-0.5-0.4-1.1-0.7-1.8-0.6l-24.3,1.4c0.1-0.4,0.2-0.9,0.2-1.5c0-0.3,0-0.5,0-0.8c0,0,0,0,0-0.1
	c-0.2-1.4-1.2-2.3-2.9-3.3c-1.5-1-2.6-1.4-3.5-1.6c-1.6-0.2-3,0.3-4,1.5c-0.2,0.2-0.3,0.4-0.4,0.7c0,0-0.3,0.9-0.5,1.3
	c-1,1.6-2,3.4-2.8,5.2c-0.4-1.1-0.7-2.2-0.9-3.3c0,0-0.2-1.6-0.2-1.6c0,0,0-0.1,0-0.1c0-0.1,0-0.1,0-0.2c0,0,0-0.1,0-0.2l-0.9-2
	c0,0-2.7-1.7-2.7-1.7c-1.5-0.2-3.1,0.6-5.7,2.5c-1.1,0.9-2.3,2-2.3,3.5c0,0,0.7,1.7,0.9,2.1c0.1,0.3,0.2,0.7,0.4,1.1l-15.8-0.9
	c-1.4-0.1-2.5,1-2.6,2.3l-0.2,4.4c0,0.2,0,0.3,0.1,0.5c-1,0.2-2,0.6-3,1.3c-0.2-0.3-0.5-0.6-0.9-0.8c0.4-0.3,0.7-0.7,1-1.1
	c1.4-1.7,2-3.9,2.1-6.4c0-2.1-0.6-4-1.7-5.7c-1.1-1.8-2.8-3.1-5.1-4.1c-2.2-0.9-5.3-1.4-9.6-1.4l-17.2,0c-1.4,0-2.5,1.1-2.5,2.5
	l0,6.7c0,1.4,1.1,2.5,2.4,2.5h0.3c0,2.7,0,6.9,0,9.6h-0.3c-1.4,0-2.5,1.1-2.5,2.5l0,6.7c0,0.6,0.3,1.3,0.7,1.7
	c0.5,0.5,1.1,0.7,1.7,0.7l16.4,0c1.4,0,2.5-1.1,2.5-2.5l0-6.7c0-0.6-0.3-1-0.6-1.5c0.7,0,1.3,0,1.9-0.1c0,0.4,0,0.7,0,0.7
	c0,0.7,0.3,1.3,0.7,1.7c0.5,0.5,1.1,0.7,1.7,0.7h0.5c0,3.1,0,9.9,0,13h-0.5c-1.4,0-2.5,1.1-2.5,2.4l0,2c0,0.6,0.3,1.3,0.7,1.7
	c0.5,0.5,1.1,0.7,1.7,0.7l9.9,0c0.7,0,1.3-0.3,1.7-0.7c0.5-0.5,0.7-1.1,0.7-1.7v-0.6l18.2,1c1.4,0.1,2.5-1,2.6-2.3l0.3-4.8
	c0-0.7-0.2-1.3-0.6-1.8c-0.4-0.5-1-0.8-1.7-0.8l-2-0.1c-1.4-0.1-2.5,1-2.6,2.3c0,0,0,0.3,0,0.4c-1.7-0.1-2.8-0.2-5.2-0.3
	c2.9-4.1,9.6-13.6,11.9-16.9c0.7,1.4,2.3,4.9,3.1,6.5c-0.5,1.3-1.7,4.5-1.7,4.5c0.1-0.2-0.4,1.8-0.4,1.8c0,1,0.4,2.4,2.2,3.6
	c0.1,0.1,3.2,1.3,3.2,1.3c2,0.6,2.8,0.7,3.4,0.6c1.4-0.2,3-1.2,3.3-4.7c0-0.1-0.2-1.9-0.2-1.9c0,0,0-0.1,0-0.2
	c0.1-0.5,0.5-2.1,3-7.9c0.5-1.1,0.9-2,1.3-3l0.3,5.3c0,0.6,0.3,1.3,0.8,1.7c0.5,0.4,1.1,0.7,1.8,0.6l5.2-0.3c0.3,0,0.5-0.3,0.7-0.4
	c0.1,2.5,0.2,3.6,0.3,4.9c-0.6,0.1-1.2,0.3-1.7,0.8c-0.4,0.5-0.6,1-0.6,1.6c0,0,0,0.1,0,0.1l0.4,6.7c0,0.6,0.3,1.3,0.8,1.7
	c0.5,0.4,1.1,0.7,1.8,0.6l15.7-0.9c1.4-0.1,2.4-1.2,2.3-2.6l-0.4-6.7c0-0.7-0.3-1.3-0.8-1.7c-0.5-0.4-1.1-0.7-1.8-0.6l0,0
	c-0.1-1.4-0.1-2.4-0.3-4.9c0.3,0.1,0.5,0.3,0.8,0.2l5.2-0.3c0.7,0,1.3-0.3,1.7-0.8c0,0,0,0,0,0c0,2.8,0,5.3,0,5.3
	c0,1,0.4,2.8,3.1,3.9c1.3,0.5,3.1,0.7,5.5,0.7l4.1-0.4c0.3-0.1,0.7-0.3,1-0.4c0.4,0.3,0.9,0.6,1.5,0.6l9.6,0v0c0,0,1.1-0.2,1.1-0.2
	c0.2,0,0.4-0.1,0.5-0.2v0.2l-0.1,0.7c0,0.3-0.1,0.7-0.1,1c0,1.1,0.3,2,0.8,2.7c0.8,1.1,2.2,1.8,4.8,2.6c2.6,0.8,4.2,1,5.4,0.6l0,0
	c0,0,0.8-0.7,1.3-1.2c1.1-0.1,5-0.3,5.2-0.4c0.5,0.1,1.8,0.3,1.8,0.3c1.6-0.2,2.9-1.2,4-3c0.3-0.4,0.4-0.9,0.4-1.3
	c0-1.3-0.9-2.6-1.9-3.6c1.7,0,3.3-0.1,4.7-0.4c0.4,0.3,0.7,0.6,1.2,0.6l12.2,0.9c0.5,0,0.9-0.1,1.4-0.3v0.9c0,1.4,1.1,2.5,2.5,2.5
	l3.4,0c0.7,0,1.3-0.3,1.7-0.7c0.5-0.5,0.7-1.1,0.7-1.7l0-11.9c0,0,0-0.7,0-1.8c0.2,0.3,0.3,0.6,0.5,0.9l8.8,14.1
	c0.4,0.7,1.2,1.2,2.1,1.2h0.4v2.1c0,1.4,1.1,2.5,2.5,2.5l12.8,0c0.7,0,1.3-0.3,1.7-0.7c0.5-0.5,0.7-1.1,0.7-1.7v-2.5
	c0-1.4-1.1-2.4-2.5-2.5c0,0-0.7,0-1.3,0c0-1.9,0-3.9,0-7.6c3,3.5,4.8,5.6,7.2,8.3c-0.5,0.4-0.8,1.1-0.8,1.8l0,2.5
	c0,0.6,0.3,1.3,0.7,1.7c0.5,0.5,1.1,0.7,1.7,0.7l12.1,0c1.4,0,2.5-1.1,2.5-2.4l0-2.5c0-0.7-0.3-1.3-0.7-1.7
	c-0.5-0.5-1.1-0.7-1.7-0.7h-1.1c-0.3-0.4-1.4-1.6-2.8-3.1c1.2,0.2,2.6,0.3,4.1,0.2c2.1-0.2,3.9-0.7,5.5-1.4c0.4,0.3,0.9,0.5,1.4,0.5
	l12.6-1c1.4-0.1,2.4-1.3,2.3-2.6L303.7,105.9z M72.3,103c0,0-4.4,0-4.4,0c-1.4,0-2.5,1.1-2.5,2.5l0,3.9c0,0.7,0.3,1.3,0.7,1.7
	c0.5,0.5,1.1,0.7,1.7,0.7h0.4v1.8c-2.9,0-8.5,0-11.5,0c0-0.8,0-1,0-1.8h0.3c1.4,0,2.5-1.1,2.5-2.5l0-14.5c0-1.4-1.1-2.4-2.4-2.5
	h-0.3v-1.8c3.6,0,14.7,0,14.7,0c4.5,0,6.7,0.5,7.7,1c1.3,0.6,2.3,1.3,2.9,2.2c0.6,1,0.9,2,0.9,3.1c0,1.4-0.3,2.5-1,3.4
	c-0.7,0.9-1.7,1.6-2.9,2C78.2,102.6,76.2,103,72.3,103z M112.8,92.5c0,0,0,0.3,0,0.5l-0.1,0c0,0,0-0.1,0-0.1
	C112.8,92.7,112.8,92.6,112.8,92.5C112.8,92.5,112.8,92.5,112.8,92.5z M86.3,124c0-3,0-8.9,0-10.4c0.4-0.4,0.9-0.7,1.4-1
	c0.1,0.3,0.1,0.7,0.4,0.9c0.5,0.5,1.1,0.7,1.7,0.7h2.5c0.3,0,0.5-0.1,0.8-0.2c-3,4.3-5.7,8.1-5.7,8.1c-0.3,0.4-0.4,0.8-0.4,1.3
	l0,0.6c0,0-0.1,0-0.1,0H86.3z M94.8,111.8l0-5.4c0-0.3,0-0.6-0.1-0.8c0,0,0.1,0,0.1-0.1c0.5-0.4,0.8-1,0.8-1.7c0,0,0-0.2,0-0.2
	c1.6,0.1,2.5,0.1,4.7,0.3C99,105.8,96.9,108.7,94.8,111.8z M126.9,95.3C126.9,95.4,126.9,95.4,126.9,95.3c-1.4,2.3-3.1,5.8-5.3,10.8
	c-2.8,6.7-3.3,8.5-3.4,9.5c0-0.1,0.2,1.8,0.2,1.8c0,0,0,0.2,0.1,0.3c-0.1,0-0.4-0.1-0.4-0.1s-1.5-0.5-1.8-0.7c0.4-1,2-5.2,2-5.2
	c0.1-0.3,0.2-0.6,0.2-0.8c0-0.4-0.1-0.7-0.2-1.1l-3.8-8c-1.3-2.8-2.2-5.2-2.7-7c0,0-0.1-0.1-0.1-0.2c0.6-0.4,1-0.7,1.4-0.9
	c0.1,0.6,0.1,1.1,0.1,1.1c0.6,3.1,1.8,6.5,3.5,10c0.4,0.9,1.3,1.4,2.3,1.3c1,0,1.8-0.6,2.2-1.5l2.1-5c0.9-1.9,1.8-3.6,2.8-5.2
	c0.1-0.2,0.3-0.5,0.3-0.7l0,0c0.5,0.2,1.1,0.6,1.1,0.6c0,0,0.2,0.1,0.2,0.2c-0.2,0.2-0.4,0.4-0.6,0.7c0,0,0-0.1,0-0.1
	C127,95.2,126.9,95.3,126.9,95.3z M154.9,106.4c-0.1-1.3-0.2-2.6-0.2-2.6c-0.1-1.4-1.2-2.4-2.6-2.3l-3.2,0.2c-0.6,0-1.3,0.3-1.7,0.8
	c-0.4,0.5-0.7,1.1-0.6,1.8l0.9,14.5c0.1,1.4,1.2,2.4,2.6,2.3h0c0,0.8,0.1,0.9,0.1,1.8c-2.8,0.2-8,0.5-10.8,0.6c0-0.8-0.1-1-0.1-1.8
	c0.6,0,1.2-0.3,1.7-0.8c0.4-0.5,0.6-1,0.6-1.6c0,0,0-0.1,0-0.1l-0.9-14.5c-0.1-1.3-1.2-2.4-2.6-2.3l-3.2,0.2c-0.7,0-1.3,0.3-1.7,0.8
	c-0.4,0.5-0.6,1-0.6,1.6c0,0,0,0.1,0,0.1c0,0,0.1,1.3,0.2,2.6c-0.2,0-0.2,0-0.3,0c-0.1-2.3-0.3-4.6-0.4-6.9
	c3.7-0.2,19.1-1.1,22.8-1.4c0.1,2.3,0.3,4.6,0.4,6.9C155.1,106.4,155.1,106.4,154.9,106.4z M167.8,115.2c-1.7,0-2.7-0.2-3.2-0.4
	c0-1.1,0-9.5,0-12.4c1.6,0,2,0,3.2,0C167.8,105.6,167.8,113.5,167.8,115.2z M180.5,115c-1.6,0-2.1,0-3.3,0c0.1-0.3,0.1-0.6,0.1-0.8
	c0,0,0-8.8,0-11.8c1.6,0,2,0,3.2,0C180.5,105.5,180.5,112.4,180.5,115z M212,109.1c0,0.1,0,0.1,0,0.1c-0.2,0-0.3,0-0.5,0
	c-0.1-0.1-0.1-0.2-0.1-0.3c0,0,0.3,0,0.3,0C211.8,109,211.9,109.1,212,109.1z M207.7,98.6c-0.2,0.1-0.4,0.3-0.6,0.4
	c-0.3,0-0.7-0.1-1.1-0.2C206.4,98.7,207,98.6,207.7,98.6z M202,109.3c0,0.5,0,1.4,1,2.4c0.8,0.8,2.3,1.3,4.3,1.5c0.4,0,0.8,0,1.2,0
	c-0.3-0.2-0.6-0.4-0.8-0.7c-0.9-1-1.4-2.3-1.3-3.8c0.1-1,0.4-1.8,0.9-2.5c-1.5,0-2.8,0.3-3.8,0.9C202.3,107.8,202.1,108.6,202,109.3
	z M203.2,119.1c0,0-0.2,0-0.3,0.1C202.9,119.2,202.9,119.2,203.2,119.1z M198.2,113.3c0,0.6,0,1.2,0,1.6c0.4,0,0.7-0.1,1.1-0.1
	C198.8,114.3,198.5,113.8,198.2,113.3z M199.7,102.6c-0.6-0.1-1.1-0.4-1.5-0.9c0,1.2,0,2.6,0,3.9c0.6-1,1.5-2,2.9-2.8
	C200.6,102.8,199.7,102.6,199.7,102.6z M197.7,126.1c0,0,0.4,0,0.4,0C198,126.1,197.9,126.1,197.7,126.1z M203.1,120.8
	C203.1,120.8,203.1,120.8,203.1,120.8C203.1,120.8,203.1,120.8,203.1,120.8c-1,0.1-5.8,0.4-5.8,0.4c-0.6,0-0.3-0.2-0.7,0.2
	c0,0-0.7,0.7-1.3,1.2c-0.3,0-0.8-0.1-2.2-0.5c-1.2-0.4-1.8-0.6-2.2-0.8l0-0.2l0.1-1.3c0,0,0-25,0-25.7c0.4,0.1,0.8,0.2,1.6,0.4
	c0.5,0.1,0.8,0.3,1.1,0.4c-0.3,0.6-0.5,1.2-0.5,1.2l0,21.5c0,0.7,0.3,1.3,0.8,1.8c0.5,0.5,1.2,0.7,1.9,0.6l5.6-0.5
	c0.1,0,0.6-0.2,0.8-0.2c0.5,0.5,1.4,1.4,1.4,1.4s0.1,0.1,0.2,0.3C203.5,120.9,203.1,120.8,203.1,120.8z M223.9,114.1
	c-2.4-0.2-5.4-0.4-7.6-0.6c-0.1-0.2-0.2-0.4-0.4-0.6c0.5-0.4,0.9-1,0.9-1.7l0.3-3.4c0-0.4-0.1-0.8-0.2-1.2c0.2-0.3,0.4-0.7,0.4-1.2
	l0-0.6l-0.1-3.3c-0.3-1-1-1.9-1.9-2.6c0.3,0,0.8,0.1,0.8,0.1c0,0,2.5,0.5,2.5,0.5c1.7,0.5,2.4,1,2.7,1.2c0.5,0.4,0.8,0.9,0.9,1.3
	c0.1,0.2,0.2,0.6,0.2,1.5c0,0.4,0,0.8-0.1,1.4l-0.4,5.4c0,0.1,0,0.1,0,0.2c0,1.3,1,2.3,2.2,2.4C223.9,113.5,223.9,113.6,223.9,114.1
	z M256.4,121.9c-0.2,0-0.2,0-0.4,0c0,0,0,0,0-0.1l0-32.6c0,0,0,0,0-0.1c0.2,0,0.2,0,0.4,0c0,0,0,0,0,0.1L256.4,121.9
	C256.4,121.8,256.4,121.8,256.4,121.9z M286.2,106.8c-0.2,0.1-0.3,0.1-0.6,0.1c-0.2-0.1-0.2-0.1-0.2-0.1c0-0.2,0.1-0.3,0.4-0.3
	c0.1,0,0.3,0,0.4,0C286.2,106.7,286.2,106.7,286.2,106.8z M280.4,96.4c-0.3,0.2-0.5,0.5-0.8,0.8c-0.3,0-0.9,0-1.6,0
	C278.7,96.9,279.4,96.6,280.4,96.4z M275.7,121.9C275.7,121.9,275.7,121.8,275.7,121.9c0-0.6-0.2-1.2-0.6-1.7c0,0-2-2.3-2.9-3.3
	c2.1,2.3,3.8,4.2,4.5,5H275.7z M267,103.8c0.7-0.8,1.8-2.1,3.1-3.6c0.1,0.2,0.2,0.5,0.3,0.7c0.4,0.7,1.2,1.1,2,1.1c0,0,1.1,0,1.7,0
	c0,0,0,0,0,0c-2.6,2-3.2,4.4-3.2,6.1C269.2,106.2,267.7,104.5,267,103.8z M282,111.6c-2.1,0.2-3.7-0.1-4.7-0.9
	c-1.2-0.9-1.4-1.7-1.4-2.3c-0.1-0.7,0.1-1.6,1.3-2.6c1-0.8,2.3-1.3,3.9-1.6c-0.5,0.8-0.7,1.8-0.6,2.8c0.1,1.5,0.8,2.7,1.9,3.6
	c0.4,0.3,0.8,0.5,1.2,0.7C283,111.5,282.5,111.6,282,111.6z M291.1,110.5c-0.2-0.3-0.4-0.5-0.6-0.6l0,0c0.5-0.5,0.7-1.2,0.7-1.9
	l-0.3-3.6c0-0.4-0.2-0.8-0.4-1.2c0.2-0.3,0.2-0.7,0.2-1.1c0-0.1,0-0.1,0-0.2l0-0.6l-0.7-3.3c-0.3-0.7-1-1.7-2.5-2.4c0.6,0,1,0,1,0
	l2.6,0.2c1.9,0.2,2.7,0.6,3,0.8c0.6,0.4,1,0.8,1.2,1.2c0.1,0.2,0.4,1,0.6,3l0.4,5.6c0,0.6,0.4,1.3,0.8,1.7c0.5,0.4,1.1,0.6,1.8,0.6
	l0,0c0,0.6,0,0.6,0.1,1.2C296.6,110.1,293.3,110.4,291.1,110.5z"/>
<path class="st4" d="M209.4,123C209.4,123,209.4,123,209.4,123C209.4,123,209.4,123,209.4,123C209.4,123,209.4,123,209.4,123z"/>
<path class="st4" d="M203.1,120.8c0.1,0,0.2,0,0.2,0C203.3,120.8,203.2,120.8,203.1,120.8z"/>
<path class="st6" d="M227.4,118.5l0-27.8h4l8.8,14.1c2,3.3,3.7,6.1,4.9,9l0.1,0c-0.3-3.7-0.4-7.1-0.4-11.4l0-11.7l3.4,0l0,27.8h-3.6
	l-8.8-14.1c-1.9-3.1-3.8-6.3-5.1-9.3l-0.1,0c0.2,3.5,0.2,6.8,0.2,11.4l0,11.9L227.4,118.5z"/>
<path class="st7" d="M227.4,118.5l0-27.8h4l8.8,14.1c2,3.3,3.7,6.1,4.9,9l0.1,0c-0.3-3.7-0.4-7.1-0.4-11.4l0-11.7l3.4,0l0,27.8h-3.6
	l-8.8-14.1c-1.9-3.1-3.8-6.3-5.1-9.3l-0.1,0c0.2,3.5,0.2,6.8,0.2,11.4l0,11.9L227.4,118.5z"/>
<path class="st6" d="M68.3,114.9l-16.4,0l0-6.7h2.7l0-14.5l-2.7,0l0-6.7l17.2,0c3.9,0,6.8,0.4,8.7,1.2c1.8,0.8,3.2,1.8,4,3.2
	c0.9,1.3,1.3,2.8,1.3,4.4c0,2-0.5,3.6-1.5,4.9c-1,1.3-2.4,2.3-4,2.8c-1.7,0.6-4.2,0.9-7.7,0.9l-4.4,0l0,3.9h2.8L68.3,114.9z
	 M65.5,93l0,5.3h2.1c1.5,0,2.6-0.2,3.2-0.5c0.6-0.3,1-1,1-2c0-0.7-0.2-1.2-0.5-1.7c-0.3-0.4-0.8-0.7-1.4-0.8
	c-0.5-0.2-1.4-0.2-2.7-0.2L65.5,93z"/>
<path class="st7" d="M68.3,114.9l-16.4,0l0-6.7h2.7l0-14.5l-2.7,0l0-6.7l17.2,0c3.9,0,6.8,0.4,8.7,1.2c1.8,0.8,3.2,1.8,4,3.2
	c0.9,1.3,1.3,2.8,1.3,4.4c0,2-0.5,3.6-1.5,4.9c-1,1.3-2.4,2.3-4,2.8c-1.7,0.6-4.2,0.9-7.7,0.9l-4.4,0l0,3.9h2.8L68.3,114.9z
	 M65.5,93l0,5.3h2.1c1.5,0,2.6-0.2,3.2-0.5c0.6-0.3,1-1,1-2c0-0.7-0.2-1.2-0.5-1.7c-0.3-0.4-0.8-0.7-1.4-0.8
	c-0.5-0.2-1.4-0.2-2.7-0.2L65.5,93z"/>
<polygon class="st6" points="150.5,123.9 134.8,124.9 134.4,118.2 136.8,118.1 135.9,103.5 132.7,103.7 133,108.8 127.8,109.1 
	127.1,97.3 154.8,95.7 155.5,107.4 150.2,107.7 149.9,102.7 146.7,102.9 147.6,117.4 150.1,117.3 "/>
<polygon class="st7" points="150.5,123.9 134.8,124.9 134.4,118.2 136.8,118.1 135.9,103.5 132.7,103.7 133,108.8 127.8,109.1 
	127.1,97.3 154.8,95.7 155.5,107.4 150.2,107.7 149.9,102.7 146.7,102.9 147.6,117.4 150.1,117.3 "/>
<path class="st6" d="M205.3,100.4l-7.6-1.4c1-1.8,2.5-3,4.4-3.6c1.9-0.6,4.7-0.8,8.3-0.5c1.3,0.1,2.5,0.2,3.6,0.4
	c1,0.2,2,0.4,2.8,0.6c1.7,0.5,2.9,1.1,3.7,1.8c0.8,0.8,1.3,1.5,1.6,2.4c0.3,0.8,0.3,2.1,0.2,3.9l-0.4,5.4l2.4,0.2l-0.5,5.9
	l-12.2-0.9l0.1-1.3c-1.8,1-4.1,1.3-6.9,1.1c-2.7-0.2-4.6-0.9-5.9-2.2c-1.3-1.3-1.8-2.7-1.7-4.3c0.1-1.8,1.1-3.1,2.8-4.1
	c1.7-1,4-1.4,6.6-1.2c2.4,0.2,4.3,0.7,5.7,1.4l0-0.6c0.1-1.2,0.1-2-0.1-2.5c-0.1-0.5-0.5-1-1.1-1.3c-0.6-0.4-1.4-0.6-2.2-0.7
	C207.5,98.7,206.2,99.2,205.3,100.4z M211.9,109.7l0.3-3.4c-0.8-0.5-1.7-0.8-2.7-0.9c-0.9-0.1-1.6,0.1-2.1,0.5
	c-0.5,0.4-0.8,1-0.9,1.8c-0.1,0.8,0.1,1.4,0.6,1.9c0.5,0.5,1.1,0.8,1.8,0.9C210.1,110.5,211.1,110.3,211.9,109.7z"/>
<path class="st7" d="M205.3,100.4l-7.6-1.4c1-1.8,2.5-3,4.4-3.6c1.9-0.6,4.7-0.8,8.3-0.5c1.3,0.1,2.5,0.2,3.6,0.4
	c1,0.2,2,0.4,2.8,0.6c1.7,0.5,2.9,1.1,3.7,1.8c0.8,0.8,1.3,1.5,1.6,2.4c0.3,0.8,0.3,2.1,0.2,3.9l-0.4,5.4l2.4,0.2l-0.5,5.9
	l-12.2-0.9l0.1-1.3c-1.8,1-4.1,1.3-6.9,1.1c-2.7-0.2-4.6-0.9-5.9-2.2c-1.3-1.3-1.8-2.7-1.7-4.3c0.1-1.8,1.1-3.1,2.8-4.1
	c1.7-1,4-1.4,6.6-1.2c2.4,0.2,4.3,0.7,5.7,1.4l0-0.6c0.1-1.2,0.1-2-0.1-2.5c-0.1-0.5-0.5-1-1.1-1.3c-0.6-0.4-1.4-0.6-2.2-0.7
	C207.5,98.7,206.2,99.2,205.3,100.4z M211.9,109.7l0.3-3.4c-0.8-0.5-1.7-0.8-2.7-0.9c-0.9-0.1-1.6,0.1-2.1,0.5
	c-0.5,0.4-0.8,1-0.9,1.8c-0.1,0.8,0.1,1.4,0.6,1.9c0.5,0.5,1.1,0.8,1.8,0.9C210.1,110.5,211.1,110.3,211.9,109.7z"/>
<polygon class="st6" points="87,124.1 87.1,122.4 102.5,100.4 90.9,99.8 90.8,102.4 88.8,102.3 89,98 106.7,98.9 106.6,100.7 
	91.3,122.4 103.4,123 103.5,120.2 105.5,120.3 105.2,125.1 "/>
<polygon class="st7" points="87,124.1 87.1,122.4 102.5,100.4 90.9,99.8 90.8,102.4 88.8,102.3 89,98 106.7,98.9 106.6,100.7 
	91.3,122.4 103.4,123 103.5,120.2 105.5,120.3 105.2,125.1 "/>
<polygon class="st6" points="256.5,104 256.5,120.6 260.2,120.6 260.2,123.1 247.5,123.1 247.5,120.6 251.2,120.6 251.2,88 
	247.5,88 247.5,85.5 260.3,85.5 260.3,88 256.5,88 256.5,104 270.3,88 266.5,88 266.5,85.5 276.5,85.5 276.5,88 274,88 261.4,102.6 
	261.6,102.8 277.6,120.6 279.8,120.6 279.8,123.1 267.7,123.1 267.7,120.6 270.9,120.6 "/>
<polygon class="st7" points="256.5,104 256.5,120.6 260.2,120.6 260.2,123.1 247.5,123.1 247.5,120.6 251.2,120.6 251.2,88 
	247.5,88 247.5,85.5 260.3,85.5 260.3,88 256.5,88 256.5,104 270.3,88 266.5,88 266.5,85.5 276.5,85.5 276.5,88 274,88 261.4,102.6 
	261.6,102.8 277.6,120.6 279.8,120.6 279.8,123.1 267.7,123.1 267.7,120.6 270.9,120.6 "/>
<path class="st6" d="M81.5,111.3l0,13.9l3,0v2l-9.9,0l0-2h3l0-17.9l-3,0l0-2l6.9,0l0,4.1c1.8-3.1,4.2-4.6,7.1-4.6
	c0.4,0,0.9,0.1,1.3,0.2l0,5.5l-2.5,0l0-2.2h-0.6C85.1,108.4,83.3,109.3,81.5,111.3z"/>
<path class="st7" d="M81.5,111.3l0,13.9l3,0v2l-9.9,0l0-2h3l0-17.9l-3,0l0-2l6.9,0l0,4.1c1.8-3.1,4.2-4.6,7.1-4.6
	c0.4,0,0.9,0.1,1.3,0.2l0,5.5l-2.5,0l0-2.2h-0.6C85.1,108.4,83.3,109.3,81.5,111.3z"/>
<path class="st6" d="M128.1,92.7c0.1,1.2-0.1,1.9-0.8,2.3c-0.4,0.2-0.6,0.3-0.5,0.3c-1.3,2-3.1,5.6-5.2,10.7c-2,4.8-3.1,7.7-3.2,8.7
	c0,0.2,0,0.5,0.1,1c0.1,0.5,0.2,0.8,0.1,1.1c-0.1,1.5-0.5,2.4-1.2,2.5c-0.3,0-1.1-0.1-2.4-0.5c-1.3-0.4-2.1-0.7-2.5-1
	c-0.8-0.5-1.2-1.1-1.2-1.6c0-0.3,0.1-0.6,0.2-0.9c0.3-0.9,1-2.7,2-5.5c-1.9-3.9-3.2-6.6-3.8-8.1c-1.3-3-2.3-5.4-2.8-7.3
	c0-0.1-0.2-0.3-0.4-0.5c-0.2-0.2-0.3-0.4-0.3-0.6c0-0.3,0.4-0.9,1.3-1.5c1.9-1.5,3.2-2.1,3.9-2.1c0.4,0,0.7,0.3,1,0.7
	c0.3,0.3,0.4,0.6,0.4,0.9c0,0.4,0.1,1.1,0.2,2.1c0.5,2.8,1.6,5.9,3.3,9.2c1.3-3.1,2-4.8,2.2-5.2c0.9-1.9,1.9-3.8,2.9-5.4
	c0.1-0.4,0.3-0.8,0.5-1.4c0.5-0.5,1.1-0.7,1.9-0.6c0.5,0.1,1.4,0.5,2.5,1.2C127.4,91.8,128,92.3,128.1,92.7z"/>
<path class="st7" d="M128.1,92.7c0.1,1.2-0.1,1.9-0.8,2.3c-0.4,0.2-0.6,0.3-0.5,0.3c-1.3,2-3.1,5.6-5.2,10.7c-2,4.8-3.1,7.7-3.2,8.7
	c0,0.2,0,0.5,0.1,1c0.1,0.5,0.2,0.8,0.1,1.1c-0.1,1.5-0.5,2.4-1.2,2.5c-0.3,0-1.1-0.1-2.4-0.5c-1.3-0.4-2.1-0.7-2.5-1
	c-0.8-0.5-1.2-1.1-1.2-1.6c0-0.3,0.1-0.6,0.2-0.9c0.3-0.9,1-2.7,2-5.5c-1.9-3.9-3.2-6.6-3.8-8.1c-1.3-3-2.3-5.4-2.8-7.3
	c0-0.1-0.2-0.3-0.4-0.5c-0.2-0.2-0.3-0.4-0.3-0.6c0-0.3,0.4-0.9,1.3-1.5c1.9-1.5,3.2-2.1,3.9-2.1c0.4,0,0.7,0.3,1,0.7
	c0.3,0.3,0.4,0.6,0.4,0.9c0,0.4,0.1,1.1,0.2,2.1c0.5,2.8,1.6,5.9,3.3,9.2c1.3-3.1,2-4.8,2.2-5.2c0.9-1.9,1.9-3.8,2.9-5.4
	c0.1-0.4,0.3-0.8,0.5-1.4c0.5-0.5,1.1-0.7,1.9-0.6c0.5,0.1,1.4,0.5,2.5,1.2C127.4,91.8,128,92.3,128.1,92.7z"/>
<path class="st6" d="M204.9,120.6c-0.6,1.1-1.3,1.7-2.1,1.8c-0.2,0-0.5,0-0.9-0.2c-0.4-0.1-0.6-0.2-0.8-0.2l-6,0.4
	c-0.2,0.1-0.4,0.3-0.6,0.7c-0.2,0.4-0.4,0.6-0.6,0.6c-0.6,0.2-1.9,0-3.9-0.6c-2-0.6-3.2-1.1-3.6-1.7c-0.3-0.4-0.4-1.1-0.3-1.9
	c0.1-0.4,0.1-0.7,0.1-1l0-26.1c-0.1-0.3-0.2-0.5-0.3-0.7c-0.2-0.2-0.2-0.3-0.2-0.5c0.1-0.5,0.5-0.9,1.5-1.1c0.6-0.1,1.8,0.1,3.8,0.6
	c2.2,0.6,3.3,1.3,3.3,2.1c0,0.2-0.1,0.5-0.5,0.9c-0.3,0.4-0.5,0.7-0.5,0.9l0,21.5l5.6-0.5c0.3-0.1,0.8-0.3,1.5-0.3
	c0.4,0,1.3,0.8,2.6,2.3C204.5,119.3,205.1,120.2,204.9,120.6z"/>
<path class="st7" d="M204.9,120.6c-0.6,1.1-1.3,1.7-2.1,1.8c-0.2,0-0.5,0-0.9-0.2c-0.4-0.1-0.6-0.2-0.8-0.2l-6,0.4
	c-0.2,0.1-0.4,0.3-0.6,0.7c-0.2,0.4-0.4,0.6-0.6,0.6c-0.6,0.2-1.9,0-3.9-0.6c-2-0.6-3.2-1.1-3.6-1.7c-0.3-0.4-0.4-1.1-0.3-1.9
	c0.1-0.4,0.1-0.7,0.1-1l0-26.1c-0.1-0.3-0.2-0.5-0.3-0.7c-0.2-0.2-0.2-0.3-0.2-0.5c0.1-0.5,0.5-0.9,1.5-1.1c0.6-0.1,1.8,0.1,3.8,0.6
	c2.2,0.6,3.3,1.3,3.3,2.1c0,0.2-0.1,0.5-0.5,0.9c-0.3,0.4-0.5,0.7-0.5,0.9l0,21.5l5.6-0.5c0.3-0.1,0.8-0.3,1.5-0.3
	c0.4,0,1.3,0.8,2.6,2.3C204.5,119.3,205.1,120.2,204.9,120.6z"/>
<path class="st6" d="M159.8,99.1h-1.7c-0.3-0.1-0.4-0.1-0.4-0.2c0-0.1,0.1-0.1,0.4-0.2l9.8,0l0,16.4c0,0.1,0.1,0.2,0.3,0.3
	c0.2,0.1,0.4,0.1,0.8,0.1c0.7,0,1.3-0.2,2-0.5c1.1-0.5,1.6-1.2,1.6-2l0-13.9l-1.8,0c-0.2,0-0.3,0-0.3,0c-0.1,0-0.1-0.1-0.1-0.2
	c0-0.1,0-0.1,0.1-0.1c0.1,0,0.2-0.1,0.3-0.1l9.9,0l0,17.1l1.5,0c0.2,0,0.3,0,0.4,0.1c0.1,0,0.2,0.1,0.2,0.1c0,0.1-0.1,0.1-0.2,0.1
	c-0.1,0-0.2,0.1-0.4,0l-9.6,0v-1.3c-1,0.5-2,0.9-3,1.2c-1,0.2-2.2,0.3-3.6,0.3c-2,0-3.6-0.2-4.6-0.6c-1-0.4-1.6-0.9-1.6-1.6
	L159.8,99.1z"/>
<path class="st7" d="M159.8,99.1h-1.7c-0.3-0.1-0.4-0.1-0.4-0.2c0-0.1,0.1-0.1,0.4-0.2l9.8,0l0,16.4c0,0.1,0.1,0.2,0.3,0.3
	c0.2,0.1,0.4,0.1,0.8,0.1c0.7,0,1.3-0.2,2-0.5c1.1-0.5,1.6-1.2,1.6-2l0-13.9l-1.8,0c-0.2,0-0.3,0-0.3,0c-0.1,0-0.1-0.1-0.1-0.2
	c0-0.1,0-0.1,0.1-0.1c0.1,0,0.2-0.1,0.3-0.1l9.9,0l0,17.1l1.5,0c0.2,0,0.3,0,0.4,0.1c0.1,0,0.2,0.1,0.2,0.1c0,0.1-0.1,0.1-0.2,0.1
	c-0.1,0-0.2,0.1-0.4,0l-9.6,0v-1.3c-1,0.5-2,0.9-3,1.2c-1,0.2-2.2,0.3-3.6,0.3c-2,0-3.6-0.2-4.6-0.6c-1-0.4-1.6-0.9-1.6-1.6
	L159.8,99.1z"/>
<path class="st8" d="M227.4,118.5l0-27.8h4l8.8,14.1c2,3.3,3.7,6.1,4.9,9l0.1,0c-0.3-3.7-0.4-7.1-0.4-11.4l0-11.7l3.4,0l0,27.8h-3.6
	l-8.8-14.1c-1.9-3.1-3.8-6.3-5.1-9.3l-0.1,0c0.2,3.5,0.2,6.8,0.2,11.4l0,11.9L227.4,118.5z"/>
<path class="st9" d="M68.3,114.9l-16.4,0l0-6.7h2.7l0-14.5l-2.7,0l0-6.7l17.2,0c3.9,0,6.8,0.4,8.7,1.2c1.8,0.8,3.2,1.8,4,3.2
	c0.9,1.3,1.3,2.8,1.3,4.4c0,2-0.5,3.6-1.5,4.9c-1,1.3-2.4,2.3-4,2.8c-1.7,0.6-4.2,0.9-7.7,0.9l-4.4,0l0,3.9h2.8L68.3,114.9z
	 M65.5,93l0,5.3h2.1c1.5,0,2.6-0.2,3.2-0.5c0.6-0.3,1-1,1-2c0-0.7-0.2-1.2-0.5-1.7c-0.3-0.4-0.8-0.7-1.4-0.8
	c-0.5-0.2-1.4-0.2-2.7-0.2L65.5,93z"/>
<polygon class="st2" points="150.5,123.9 134.8,124.9 134.4,118.2 136.8,118.1 135.9,103.5 132.7,103.7 133,108.8 127.8,109.1 
	127.1,97.3 154.8,95.7 155.5,107.4 150.2,107.7 149.9,102.7 146.7,102.9 147.6,117.4 150.1,117.3 "/>
<path class="st2" d="M205.3,100.4l-7.6-1.4c1-1.8,2.5-3,4.4-3.6c1.9-0.6,4.7-0.8,8.3-0.5c1.3,0.1,2.5,0.2,3.6,0.4
	c1,0.2,2,0.4,2.8,0.6c1.7,0.5,2.9,1.1,3.7,1.8c0.8,0.8,1.3,1.5,1.6,2.4c0.3,0.8,0.3,2.1,0.2,3.9l-0.4,5.4l2.4,0.2l-0.5,5.9
	l-12.2-0.9l0.1-1.3c-1.8,1-4.1,1.3-6.9,1.1c-2.7-0.2-4.6-0.9-5.9-2.2c-1.3-1.3-1.8-2.7-1.7-4.3c0.1-1.8,1.1-3.1,2.8-4.1
	c1.7-1,4-1.4,6.6-1.2c2.4,0.2,4.3,0.7,5.7,1.4l0-0.6c0.1-1.2,0.1-2-0.1-2.5c-0.1-0.5-0.5-1-1.1-1.3c-0.6-0.4-1.4-0.6-2.2-0.7
	C207.5,98.7,206.2,99.2,205.3,100.4z M211.9,109.7l0.3-3.4c-0.8-0.5-1.7-0.8-2.7-0.9c-0.9-0.1-1.6,0.1-2.1,0.5
	c-0.5,0.4-0.8,1-0.9,1.8c-0.1,0.8,0.1,1.4,0.6,1.9c0.5,0.5,1.1,0.8,1.8,0.9C210.1,110.5,211.1,110.3,211.9,109.7z"/>
<polygon class="st8" points="87,124.1 87.1,122.4 102.5,100.4 90.9,99.8 90.8,102.4 88.8,102.3 89,98 106.7,98.9 106.6,100.7 
	91.3,122.4 103.4,123 103.5,120.2 105.5,120.3 105.2,125.1 "/>
<polygon class="st9" points="256.5,104 256.5,120.6 260.2,120.6 260.2,123.1 247.5,123.1 247.5,120.6 251.2,120.6 251.2,88 
	247.5,88 247.5,85.5 260.3,85.5 260.3,88 256.5,88 256.5,104 270.3,88 266.5,88 266.5,85.5 276.5,85.5 276.5,88 274,88 261.4,102.6 
	261.6,102.8 277.6,120.6 279.8,120.6 279.8,123.1 267.7,123.1 267.7,120.6 270.9,120.6 "/>
<path class="st2" d="M81.5,111.3l0,13.9l3,0v2l-9.9,0l0-2h3l0-17.9l-3,0l0-2l6.9,0l0,4.1c1.8-3.1,4.2-4.6,7.1-4.6
	c0.4,0,0.9,0.1,1.3,0.2l0,5.5l-2.5,0l0-2.2h-0.6C85.1,108.4,83.3,109.3,81.5,111.3z"/>
<path class="st9" d="M128.1,92.7c0.1,1.2-0.1,1.9-0.8,2.3c-0.4,0.2-0.6,0.3-0.5,0.3c-1.3,2-3.1,5.6-5.2,10.7c-2,4.8-3.1,7.7-3.2,8.7
	c0,0.2,0,0.5,0.1,1c0.1,0.5,0.2,0.8,0.1,1.1c-0.1,1.5-0.5,2.4-1.2,2.5c-0.3,0-1.1-0.1-2.4-0.5c-1.3-0.4-2.1-0.7-2.5-1
	c-0.8-0.5-1.2-1.1-1.2-1.6c0-0.3,0.1-0.6,0.2-0.9c0.3-0.9,1-2.7,2-5.5c-1.9-3.9-3.2-6.6-3.8-8.1c-1.3-3-2.3-5.4-2.8-7.3
	c0-0.1-0.2-0.3-0.4-0.5c-0.2-0.2-0.3-0.4-0.3-0.6c0-0.3,0.4-0.9,1.3-1.5c1.9-1.5,3.2-2.1,3.9-2.1c0.4,0,0.7,0.3,1,0.7
	c0.3,0.3,0.4,0.6,0.4,0.9c0,0.4,0.1,1.1,0.2,2.1c0.5,2.8,1.6,5.9,3.3,9.2c1.3-3.1,2-4.8,2.2-5.2c0.9-1.9,1.9-3.8,2.9-5.4
	c0.1-0.4,0.3-0.8,0.5-1.4c0.5-0.5,1.1-0.7,1.9-0.6c0.5,0.1,1.4,0.5,2.5,1.2C127.4,91.8,128,92.3,128.1,92.7z"/>
<path class="st9" d="M204.9,120.6c-0.6,1.1-1.3,1.7-2.1,1.8c-0.2,0-0.5,0-0.9-0.2c-0.4-0.1-0.6-0.2-0.8-0.2l-6,0.4
	c-0.2,0.1-0.4,0.3-0.6,0.7c-0.2,0.4-0.4,0.6-0.6,0.6c-0.6,0.2-1.9,0-3.9-0.6c-2-0.6-3.2-1.1-3.6-1.7c-0.3-0.4-0.4-1.1-0.3-1.9
	c0.1-0.4,0.1-0.7,0.1-1l0-26.1c-0.1-0.3-0.2-0.5-0.3-0.7c-0.2-0.2-0.2-0.3-0.2-0.5c0.1-0.5,0.5-0.9,1.5-1.1c0.6-0.1,1.8,0.1,3.8,0.6
	c2.2,0.6,3.3,1.3,3.3,2.1c0,0.2-0.1,0.5-0.5,0.9c-0.3,0.4-0.5,0.7-0.5,0.9l0,21.5l5.6-0.5c0.3-0.1,0.8-0.3,1.5-0.3
	c0.4,0,1.3,0.8,2.6,2.3C204.5,119.3,205.1,120.2,204.9,120.6z"/>
<path class="st8" d="M159.8,99.1h-1.7c-0.3-0.1-0.4-0.1-0.4-0.2c0-0.1,0.1-0.1,0.4-0.2l9.8,0l0,16.4c0,0.1,0.1,0.2,0.3,0.3
	c0.2,0.1,0.4,0.1,0.8,0.1c0.7,0,1.3-0.2,2-0.5c1.1-0.5,1.6-1.2,1.6-2l0-13.9l-1.8,0c-0.2,0-0.3,0-0.3,0c-0.1,0-0.1-0.1-0.1-0.2
	c0-0.1,0-0.1,0.1-0.1c0.1,0,0.2-0.1,0.3-0.1l9.9,0l0,17.1l1.5,0c0.2,0,0.3,0,0.4,0.1c0.1,0,0.2,0.1,0.2,0.1c0,0.1-0.1,0.1-0.2,0.1
	c-0.1,0-0.2,0.1-0.4,0l-9.6,0v-1.3c-1,0.5-2,0.9-3,1.2c-1,0.2-2.2,0.3-3.6,0.3c-2,0-3.6-0.2-4.6-0.6c-1-0.4-1.6-0.9-1.6-1.6
	L159.8,99.1z"/>
<path class="st6" d="M279.1,98.6l-8-0.2c0.7-2,2-3.4,3.9-4.4c1.9-0.9,4.6-1.5,8.4-1.8c1.4-0.1,2.6-0.2,3.7-0.1
	c1.1,0,2.1,0.1,2.9,0.2c1.8,0.2,3.2,0.6,4.1,1.2c0.9,0.6,1.6,1.4,2,2.2c0.4,0.8,0.7,2.1,0.8,3.9l0.4,5.6l2.5-0.2l0.5,6.1l-12.6,1
	l-0.1-1.3c-1.6,1.3-3.9,2-6.8,2.2c-2.7,0.2-4.8-0.2-6.3-1.3c-1.5-1.1-2.3-2.5-2.4-4.1c-0.1-1.8,0.6-3.4,2.2-4.7
	c1.6-1.3,3.8-2,6.6-2.3c2.5-0.2,4.5,0,6.1,0.5l0-0.6c-0.1-1.2-0.2-2-0.5-2.5c-0.2-0.5-0.7-0.9-1.3-1.2c-0.7-0.3-1.5-0.4-2.4-0.3
	C281.1,96.6,279.9,97.3,279.1,98.6z M287.3,107l-0.3-3.6c-0.9-0.4-1.9-0.6-2.9-0.5c-0.9,0.1-1.6,0.4-2,0.9c-0.5,0.5-0.7,1.2-0.6,1.9
	c0.1,0.8,0.4,1.4,1,1.9c0.6,0.5,1.2,0.7,1.9,0.6C285.6,108.2,286.6,107.8,287.3,107z"/>
<path class="st7" d="M279.1,98.6l-8-0.2c0.7-2,2-3.4,3.9-4.4c1.9-0.9,4.6-1.5,8.4-1.8c1.4-0.1,2.6-0.2,3.7-0.1
	c1.1,0,2.1,0.1,2.9,0.2c1.8,0.2,3.2,0.6,4.1,1.2c0.9,0.6,1.6,1.4,2,2.2c0.4,0.8,0.7,2.1,0.8,3.9l0.4,5.6l2.5-0.2l0.5,6.1l-12.6,1
	l-0.1-1.3c-1.6,1.3-3.9,2-6.8,2.2c-2.7,0.2-4.8-0.2-6.3-1.3c-1.5-1.1-2.3-2.5-2.4-4.1c-0.1-1.8,0.6-3.4,2.2-4.7
	c1.6-1.3,3.8-2,6.6-2.3c2.5-0.2,4.5,0,6.1,0.5l0-0.6c-0.1-1.2-0.2-2-0.5-2.5c-0.2-0.5-0.7-0.9-1.3-1.2c-0.7-0.3-1.5-0.4-2.4-0.3
	C281.1,96.6,279.9,97.3,279.1,98.6z M287.3,107l-0.3-3.6c-0.9-0.4-1.9-0.6-2.9-0.5c-0.9,0.1-1.6,0.4-2,0.9c-0.5,0.5-0.7,1.2-0.6,1.9
	c0.1,0.8,0.4,1.4,1,1.9c0.6,0.5,1.2,0.7,1.9,0.6C285.6,108.2,286.6,107.8,287.3,107z"/>
<path class="st2" d="M279.1,98.6l-8-0.2c0.7-2,2-3.4,3.9-4.4c1.9-0.9,4.6-1.5,8.4-1.8c1.4-0.1,2.6-0.2,3.7-0.1
	c1.1,0,2.1,0.1,2.9,0.2c1.8,0.2,3.2,0.6,4.1,1.2c0.9,0.6,1.6,1.4,2,2.2c0.4,0.8,0.7,2.1,0.8,3.9l0.4,5.6l2.5-0.2l0.5,6.1l-12.6,1
	l-0.1-1.3c-1.6,1.3-3.9,2-6.8,2.2c-2.7,0.2-4.8-0.2-6.3-1.3c-1.5-1.1-2.3-2.5-2.4-4.1c-0.1-1.8,0.6-3.4,2.2-4.7
	c1.6-1.3,3.8-2,6.6-2.3c2.5-0.2,4.5,0,6.1,0.5l0-0.6c-0.1-1.2-0.2-2-0.5-2.5c-0.2-0.5-0.7-0.9-1.3-1.2c-0.7-0.3-1.5-0.4-2.4-0.3
	C281.1,96.6,279.9,97.3,279.1,98.6z M287.3,107l-0.3-3.6c-0.9-0.4-1.9-0.6-2.9-0.5c-0.9,0.1-1.6,0.4-2,0.9c-0.5,0.5-0.7,1.2-0.6,1.9
	c0.1,0.8,0.4,1.4,1,1.9c0.6,0.5,1.2,0.7,1.9,0.6C285.6,108.2,286.6,107.8,287.3,107z"/>
<path class="st6" d="M302.8,130.6c0.6,2.1,3.1,5.4,5.9,3.3c2.8-2.1,0.2-8.8-1.5-10.6c-1.7-1.8-5.3,1.1-8.2,6c1.1-1.5,3.3-4.1,6-5.6
	c2.7-1.5,4.6,4.8,4.3,8.2c-0.3,3.4-4.9,2.7-6.1-1.6C303.2,130.3,303.1,130.4,302.8,130.6z"/>
<path class="st6" d="M298,133l-1.4-0.4l0.3-0.4c2.1,1.9,5.8-1.5,6.2-1.9c0.5-0.4,1.9-1.4,2.8-0.2c-1.8-1.3-4.1,2.4-6.7,3L298,133z"
	/>
<path class="st10" d="M312.9,84.7c0.3,1.5,0.1,2.5,0.1,2.5"/>
<path class="st11" d="M300.3,122.1c1.6,0.7-2.7,8-3.9,7.5C295.3,129.1,298.5,122.4,300.3,122.1z"/>
<path class="st12" d="M356.6,156.6c6.6,3.3,1.1,8.6-17.1,5.8c-6.4,2.5-22.2,2.4-30,0.7c-11.8,1.6-51.2,1.9-36.6-3.8
	c14.6-5.7,41.5-0.8,41.5-0.8l26.3-1.9H356.6z"/>
<path class="st6" d="M305,153.9c0,0-0.1,0-0.1,0C304.9,153.9,305,153.9,305,153.9z M304.9,153.9c-0.5,0-1.1-0.1-1.7-0.1
	C303.8,153.9,304.3,153.9,304.9,153.9z M315.8,116.1C315.8,116.1,315.8,116.1,315.8,116.1c1-0.9,2.1-1.8,3.2-2.8
	C318,114.3,316.9,115.3,315.8,116.1z M319.3,113c7.2-6.8,14.9-16.5,16.4-21.6c0.2-2.8-14.5-9-34.4-6.3
	c22.9-13.5,25.5-24.5,26.9-45.7c0.2-2.5,0.2-5.3-4,0.6c-4.2,5.9-23.8,44.9-23.8,44.9c-3.6-16.8-17.8-34.2-25.6-39.3
	c-1.3,9,10.7,32.8,25.2,40.9c2.8,14,5,25.3,6.5,27.7c-0.2,2.5-0.7,5.8-1.2,9.4l-0.2-0.3c-0.6,0.6-1.2,1.1-1.7,1.7
	c-2.3,2.5-3.5,5-3.5,7c0,1.1,0.3,1.9,1,2.5l-0.3,0.3l1.5,0.4l1.1,0.1c0.2,0,0.3-0.1,0.5-0.2c-0.8,6.6-1.2,12.6-0.2,15.6
	c0.3,0.8,0.6,1.5,1,2.2c-0.5,0-1-0.1-1.5-0.1l0.2,1.1c-0.1,0-0.1,0-0.2,0c-0.3,0-0.5-0.1-0.8-0.1c-0.1,0-0.3,0-0.4,0
	c-0.3,0-0.6-0.1-0.9-0.1c-0.1,0-0.3,0-0.4,0c-0.3,0-0.6-0.1-1-0.1c-0.1,0-0.2,0-0.3,0c-0.4,0-0.7-0.1-1.1-0.2c0,0-0.1,0-0.1,0
	c-4.8-0.7-10.1-1.7-14.9-2.2c-0.1,0-0.2,0-0.2,0c-0.4,0-0.7-0.1-1.1-0.1c-0.1,0-0.2,0-0.4,0c-0.3,0-0.6,0-0.9-0.1
	c-0.1,0-0.3,0-0.4,0c-0.3,0-0.5,0-0.8,0c-0.2,0-0.3,0-0.5,0c-0.2,0-0.5,0-0.7,0c-0.2,0-0.3,0-0.5,0c-0.2,0-0.4,0-0.7,0
	c-0.2,0-0.3,0-0.5,0c-0.2,0-0.4,0-0.6,0c-0.2,0-0.3,0-0.5,0c-0.2,0-0.4,0-0.6,0.1c-0.1,0-0.3,0-0.4,0c-0.2,0-0.3,0-0.5,0.1
	c-0.1,0-0.3,0-0.4,0.1c-0.2,0-0.3,0.1-0.5,0.1c-0.1,0-0.3,0.1-0.4,0.1c-0.1,0-0.3,0.1-0.4,0.1c-0.1,0-0.2,0.1-0.3,0.1
	c-0.1,0.1-0.2,0.1-0.4,0.2c-0.1,0-0.2,0.1-0.3,0.1c-0.1,0.1-0.2,0.1-0.3,0.2c-0.1,0.1-0.2,0.1-0.3,0.2c-0.1,0.1-0.2,0.2-0.3,0.2
	c-0.1,0.1-0.1,0.1-0.2,0.2c-0.1,0.1-0.1,0.2-0.2,0.3c-0.1,0.1-0.1,0.1-0.2,0.2c-0.1,0.1-0.1,0.2-0.2,0.4c0,0.1-0.1,0.1-0.1,0.2
	c-0.1,0.2-0.1,0.4-0.2,0.6c0,0.2,0,0.5,0,0.7c0,0.1,0,0.1,0,0.2c0,0.2,0,0.3,0.1,0.5c0,0.1,0.1,0.1,0.1,0.2c0.1,0.2,0.1,0.3,0.2,0.4
	c0,0.1,0.1,0.1,0.1,0.2c0.1,0.1,0.2,0.3,0.3,0.4c0.1,0.1,0.1,0.1,0.2,0.2c0.1,0.1,0.3,0.3,0.4,0.4c0.1,0,0.1,0.1,0.2,0.1
	c0.2,0.1,0.3,0.2,0.5,0.4c0.1,0,0.2,0.1,0.2,0.1c0.2,0.1,0.4,0.2,0.6,0.3c0.1,0,0.2,0.1,0.2,0.1c0.2,0.1,0.5,0.2,0.7,0.3
	c0.1,0,0.1,0.1,0.2,0.1c0.3,0.1,0.5,0.2,0.8,0.3c0.1,0,0.2,0.1,0.3,0.1c0.3,0.1,0.6,0.2,0.9,0.3c0.1,0,0.2,0,0.2,0.1
	c0.3,0.1,0.7,0.2,1,0.3c0.1,0,0.1,0,0.2,0c0.4,0.1,0.7,0.2,1.1,0.2c0.1,0,0.2,0,0.2,0c0.4,0.1,0.8,0.1,1.1,0.2c0.1,0,0.1,0,0.2,0
	c0.4,0.1,0.8,0.1,1.3,0.2c0,0,0.1,0,0.2,0c0.4,0.1,0.9,0.1,1.4,0.1c0,0,0.1,0,0.1,0c0.5,0,0.9,0.1,1.4,0.1c0,0,0.1,0,0.1,0
	c0.5,0,1,0.1,1.5,0.1h0.1c0.5,0,1,0,1.5,0h0.1c0.5,0,1,0,1.6,0c0,0,0.1,0,0.1,0c0.5,0,1,0,1.6,0h0c0.5,0,1.1,0,1.6-0.1
	c0,0,0.1,0,0.1,0c0.5,0,1.1-0.1,1.6-0.1c0,0,0.1,0,0.1,0c0.5,0,1-0.1,1.6-0.2c0,0,0.1,0,0.1,0c0.5-0.1,1-0.1,1.5-0.2
	c0,0,0.1,0,0.1,0c0.5-0.1,1-0.1,1.5-0.2c0,0,0.1,0,0.2,0c0.5-0.1,0.9-0.2,1.4-0.2c0.1,0,0.1,0,0.2,0c0.4-0.1,0.9-0.2,1.3-0.3
	c0.1,0,0.2,0,0.3-0.1c0.4-0.1,0.8-0.2,1.2-0.3c0.1,0,0.2-0.1,0.3-0.1c0.4-0.1,0.7-0.2,1.1-0.3c0.1,0,0.2-0.1,0.4-0.1
	c0.3-0.1,0.7-0.2,1-0.3c0.1-0.1,0.3-0.1,0.4-0.1c0.3-0.1,0.6-0.2,0.8-0.3c0.1-0.1,0.3-0.1,0.4-0.2c0.2-0.1,0.4-0.2,0.6-0.3h0
	c0,0-0.1,0-0.1,0.1l0.6,0.7c0.2-0.1,0.3-0.2,0.4-0.2c8.4,5.4,22.3,3.4,26.5-0.5c0.2-0.2,0.3-0.3,0.5-0.5c0,0,0,0.1,0,0.1l1,0.1
	c0,0,0,0,0.1-0.1c6,0.4,22.7,1,20.6-4.1c-2.2-5.4-12.1-0.1-19.1-0.1c0,0,0-0.1,0-0.1l-1,0.1c-0.3-4.1-4.5-8.3-6-10.4
	c-0.9-1.2-3.8-5.1-6.9-9.7c0.3,0.1,0.6,0.2,0.8,0.2c-0.2-0.4-0.5-0.5-0.7-0.6c0.1,0,0.1,0,0.2,0c0,0,0,0,0.1,0c0.2,0,0.3,0,0.5,0
	c0,0,0,0,0,0c0.2,0,0.3-0.1,0.4-0.2c0,0,0,0,0.1-0.1c0.1-0.1,0.2-0.2,0.3-0.4c0.1-0.3,0.2-0.6,0.3-0.9c0-0.1,0-0.1,0-0.2
	c0-0.2,0.1-0.4,0.1-0.7c0-0.1,0-0.3,0-0.4c0-0.2,0-0.3,0-0.5c0-0.2-0.1-0.4-0.1-0.6c0-0.1,0-0.2,0-0.3c-0.1-0.2-0.1-0.5-0.2-0.7
	c0,0,0-0.1,0-0.1c-1.2-3-4.7-5.5-8.6-5.8c-0.9-1.8-1.6-3.5-1.9-4.8L319.3,113z"/>
<path class="st13" d="M305,153.9L305,153.9c0,0-0.1,0-0.1,0C304.9,153.9,305,153.9,305,153.9z M304.9,153.9c-0.5,0-1.1-0.1-1.7-0.1
	C303.8,153.9,304.3,153.9,304.9,153.9z M315.8,116.1C315.8,116.1,315.8,116.1,315.8,116.1c1-0.9,2.1-1.8,3.2-2.8
	C318,114.3,316.9,115.3,315.8,116.1z M319.3,113c7.2-6.8,14.9-16.5,16.4-21.6c0.2-2.8-14.5-9-34.4-6.3
	c22.9-13.5,25.5-24.5,26.9-45.7c0.2-2.5,0.2-5.3-4,0.6c-4.2,5.9-23.8,44.9-23.8,44.9c-3.6-16.8-17.8-34.2-25.6-39.3
	c-1.3,9,10.7,32.8,25.2,40.9c2.8,14,5,25.3,6.5,27.7c-0.2,2.5-0.7,5.8-1.2,9.4l-0.2-0.3c-0.6,0.6-1.2,1.1-1.7,1.7
	c-2.3,2.5-3.5,5-3.5,7c0,1.1,0.3,1.9,1,2.5l-0.3,0.3l1.5,0.4l1.1,0.1c0.2,0,0.3-0.1,0.5-0.2c-0.8,6.6-1.2,12.6-0.2,15.6
	c0.3,0.8,0.6,1.5,1,2.2c-0.5,0-1-0.1-1.5-0.1l0.2,1.1c-0.1,0-0.1,0-0.2,0c-0.3,0-0.5-0.1-0.8-0.1c-0.1,0-0.3,0-0.4,0
	c-0.3,0-0.6-0.1-0.9-0.1c-0.1,0-0.3,0-0.4,0c-0.3,0-0.6-0.1-1-0.1c-0.1,0-0.2,0-0.3,0c-0.4,0-0.7-0.1-1.1-0.2c0,0-0.1,0-0.1,0
	c-4.8-0.7-10.1-1.7-14.9-2.2c-0.1,0-0.2,0-0.2,0c-0.4,0-0.7-0.1-1.1-0.1c-0.1,0-0.2,0-0.4,0c-0.3,0-0.6,0-0.9-0.1
	c-0.1,0-0.3,0-0.4,0c-0.3,0-0.5,0-0.8,0c-0.2,0-0.3,0-0.5,0c-0.2,0-0.5,0-0.7,0c-0.2,0-0.3,0-0.5,0c-0.2,0-0.4,0-0.7,0
	c-0.2,0-0.3,0-0.5,0c-0.2,0-0.4,0-0.6,0c-0.2,0-0.3,0-0.5,0c-0.2,0-0.4,0-0.6,0.1c-0.1,0-0.3,0-0.4,0c-0.2,0-0.3,0-0.5,0.1
	c-0.1,0-0.3,0-0.4,0.1c-0.2,0-0.3,0.1-0.5,0.1c-0.1,0-0.3,0.1-0.4,0.1c-0.1,0-0.3,0.1-0.4,0.1c-0.1,0-0.2,0.1-0.3,0.1
	c-0.1,0.1-0.2,0.1-0.4,0.2c-0.1,0-0.2,0.1-0.3,0.1c-0.1,0.1-0.2,0.1-0.3,0.2c-0.1,0.1-0.2,0.1-0.3,0.2c-0.1,0.1-0.2,0.2-0.3,0.2
	c-0.1,0.1-0.1,0.1-0.2,0.2c-0.1,0.1-0.1,0.2-0.2,0.3c-0.1,0.1-0.1,0.1-0.2,0.2c-0.1,0.1-0.1,0.2-0.2,0.4c0,0.1-0.1,0.1-0.1,0.2
	c-0.1,0.2-0.1,0.4-0.2,0.6c0,0.2,0,0.5,0,0.7c0,0.1,0,0.1,0,0.2c0,0.2,0,0.3,0.1,0.5c0,0.1,0.1,0.1,0.1,0.2c0.1,0.2,0.1,0.3,0.2,0.4
	c0,0.1,0.1,0.1,0.1,0.2c0.1,0.1,0.2,0.3,0.3,0.4c0.1,0.1,0.1,0.1,0.2,0.2c0.1,0.1,0.3,0.3,0.4,0.4c0.1,0,0.1,0.1,0.2,0.1
	c0.2,0.1,0.3,0.2,0.5,0.4c0.1,0,0.2,0.1,0.2,0.1c0.2,0.1,0.4,0.2,0.6,0.3c0.1,0,0.2,0.1,0.2,0.1c0.2,0.1,0.5,0.2,0.7,0.3
	c0.1,0,0.1,0.1,0.2,0.1c0.3,0.1,0.5,0.2,0.8,0.3c0.1,0,0.2,0.1,0.3,0.1c0.3,0.1,0.6,0.2,0.9,0.3c0.1,0,0.2,0,0.2,0.1
	c0.3,0.1,0.7,0.2,1,0.3c0.1,0,0.1,0,0.2,0c0.4,0.1,0.7,0.2,1.1,0.2c0.1,0,0.2,0,0.2,0c0.4,0.1,0.8,0.1,1.1,0.2c0.1,0,0.1,0,0.2,0
	c0.4,0.1,0.8,0.1,1.3,0.2c0,0,0.1,0,0.2,0c0.4,0.1,0.9,0.1,1.4,0.1c0,0,0.1,0,0.1,0c0.5,0,0.9,0.1,1.4,0.1c0,0,0.1,0,0.1,0
	c0.5,0,1,0.1,1.5,0.1h0.1c0.5,0,1,0,1.5,0h0.1c0.5,0,1,0,1.6,0c0,0,0.1,0,0.1,0c0.5,0,1,0,1.6,0h0c0.5,0,1.1,0,1.6-0.1
	c0,0,0.1,0,0.1,0c0.5,0,1.1-0.1,1.6-0.1c0,0,0.1,0,0.1,0c0.5,0,1-0.1,1.6-0.2c0,0,0.1,0,0.1,0c0.5-0.1,1-0.1,1.5-0.2
	c0,0,0.1,0,0.1,0c0.5-0.1,1-0.1,1.5-0.2c0,0,0.1,0,0.2,0c0.5-0.1,0.9-0.2,1.4-0.2c0.1,0,0.1,0,0.2,0c0.4-0.1,0.9-0.2,1.3-0.3
	c0.1,0,0.2,0,0.3-0.1c0.4-0.1,0.8-0.2,1.2-0.3c0.1,0,0.2-0.1,0.3-0.1c0.4-0.1,0.7-0.2,1.1-0.3c0.1,0,0.2-0.1,0.4-0.1
	c0.3-0.1,0.7-0.2,1-0.3c0.1-0.1,0.3-0.1,0.4-0.1c0.3-0.1,0.6-0.2,0.8-0.3c0.1-0.1,0.3-0.1,0.4-0.2c0.2-0.1,0.4-0.2,0.6-0.3h0
	c0,0-0.1,0-0.1,0.1l0.6,0.7c0.2-0.1,0.3-0.2,0.4-0.2c8.4,5.4,22.3,3.4,26.5-0.5c0.2-0.2,0.3-0.3,0.5-0.5c0,0,0,0.1,0,0.1l1,0.1
	c0,0,0,0,0.1-0.1c6,0.4,22.7,1,20.6-4.1c-2.2-5.4-12.1-0.1-19.1-0.1c0,0,0-0.1,0-0.1l-1,0.1c-0.3-4.1-4.5-8.3-6-10.4
	c-0.9-1.2-3.8-5.1-6.9-9.7c0.3,0.1,0.6,0.2,0.8,0.2c-0.2-0.4-0.5-0.5-0.7-0.6c0.1,0,0.1,0,0.2,0c0,0,0,0,0.1,0c0.2,0,0.3,0,0.5,0
	c0,0,0,0,0,0c0.2,0,0.3-0.1,0.4-0.2c0,0,0,0,0.1-0.1c0.1-0.1,0.2-0.2,0.3-0.4c0.1-0.3,0.2-0.6,0.3-0.9c0-0.1,0-0.1,0-0.2
	c0-0.2,0.1-0.4,0.1-0.7c0-0.1,0-0.3,0-0.4c0-0.2,0-0.3,0-0.5c0-0.2-0.1-0.4-0.1-0.6c0-0.1,0-0.2,0-0.3c-0.1-0.2-0.1-0.5-0.2-0.7
	c0,0,0-0.1,0-0.1c-1.2-3-4.7-5.5-8.6-5.8c-0.9-1.8-1.6-3.5-1.9-4.8"/>
<path class="st14" d="M315.8,116.1c0.2,1.4,0.9,3.2,2,5.3c5.7,0.4,10.5,5.5,8.6,10.1c-0.3,0.8-1.1,0.9-1.9,0.7
	c3.2,4.7,6.3,8.9,7.2,10.1c1.4,2.1,5.7,6.3,6,10.4c7.1,0.7,17.9-5.5,20.2,0.2c2.2,5.5-16.9,4.4-21.6,4c-0.2,0.2-0.3,0.3-0.5,0.5
	c-4.3,4-19.2,6-27.4-0.1c-11.9,5.6-39.8,4.6-38.7-3.1c1.1-7.5,23.2-1.1,35.5-0.3c-0.7-1-1.2-2.1-1.6-3.4c-1-3-0.5-9.2,0.3-15.9
	c-1,0.3-2,0.4-2.8-0.3c-2.1-1.9-0.9-6.7,4.2-11.2l0.2,0.3c0.5-3.6,1-6.9,1.2-9.4c-1.5-2.4-3.6-13.7-6.5-27.7
	c-14.5-8-26.5-31.9-25.2-40.9c7.9,5.1,22,22.5,25.6,39.3c0,0,19.6-39,23.8-44.9c4.2-5.9,4.2-3.1,4-0.6c-1.4,21.2-3.9,32.2-26.9,45.7
	c19.8-2.6,34.5,3.5,34.4,6.4C333.9,97.3,323.7,109.6,315.8,116.1z"/>
<path class="st11" d="M308.4,132.3c11.3,2.5,24.9,28.5,15.7,28.9c-9.3,0.4-25.1-2.3-20.7-23.1C304.8,133.8,305.9,131.8,308.4,132.3z
	"/>
<path class="st6" d="M322,127.8c0,0-0.3,7.6-3.2,7.8c-2.9,0.2-3.5-4.2-2.6-9.5c1-5.3,2.6-4.3,6.4-1.1c-2.1-1.5-4.7-3.6-5.5-1.5
	c-0.8,2.1-2.6,11.1,1.4,11.5C320.8,135.3,321.5,129.7,322,127.8z"/>
<path class="st15" d="M330,155.6c-13,1-18.3-16.6-7.5-18.8C326.6,136.7,343,154.6,330,155.6z"/>
<path class="st16" d="M324.8,132.6c3.9,5.8,3.9,5.8,9,12.4c-4.3-5.5-20.4-5.2-30.9,2.7c-0.5-8.6,0.7-12.7,0.7-12.7
	c1.9-1.1,3.3-2.2,3.3-2.2c2.3,5.5,6.3,3.9,7,1.4c0.7-2.5-1.5-9.9-4.1-9.4c-2,0.4-3.9,2.6-3.9,2.6c0.4-2.7-0.7-4.1-0.7-4.1l0.6-3.7
	c4.6,1,8.2,3.5,8.2,3.5l2.9-3.6l0.9,1.9c0,0,3.7,0.3,4.9,1.6c-0.3,1.3-0.7,1.6-0.7,1.6s-2.9-2.7-3.9-2.2c-1,0.5-2,2-2.3,7.7
	c-0.1,2.8,0.5,5.3,2.6,5.5c2.3,0.2,3.1-4.4,3.1-4.4L324.8,132.6z"/>
<path class="st17" d="M308.4,157.2c-11.8,5.7-40,4.7-38.8-3c1-7.1,21-1.7,33.5-0.4"/>
<path class="st6" d="M275.8,49.9c0,0,18,17.9,22.4,32.3C297.9,79.5,287.7,63.7,275.8,49.9z"/>
<path class="st17" d="M275.8,49.9c0,0,18,17.9,22.4,32.3C297.9,79.5,287.7,63.7,275.8,49.9z"/>
<path class="st6" d="M304.3,81.2c1.8-7.1,14.2-28.1,21.9-39.9C319.2,53,305.8,78,304.3,81.2z"/>
<path class="st17" d="M304.3,81.2c1.8-7.1,14.2-28.1,21.9-39.9C319.2,53,305.8,78,304.3,81.2z"/>
<path class="st6" d="M302.9,152.7c2.5,0.4,6.2-0.1,6.2-0.1s0.1,0.3,0.3,1.3c-1.7,0.2-3.9,0.1-6.3-0.1L302.9,152.7z"/>
<path class="st17" d="M302.9,152.7c2.5,0.4,6.2-0.1,6.2-0.1s0.1,0.3,0.3,1.3c-1.7,0.2-3.9,0.1-6.3-0.1L302.9,152.7z"/>
<path class="st6" d="M308.7,158.1c1.5-0.7,2.5-1.4,3.3-2.1l-0.6-0.7c-0.8,0.7-1.9,1.4-3.3,2.1L308.7,158.1z"/>
<path class="st17" d="M308.7,158.1c1.5-0.7,2.5-1.4,3.3-2.1l-0.6-0.7c-0.8,0.7-1.9,1.4-3.3,2.1L308.7,158.1z"/>
<path class="st10" d="M318.5,87.7c-0.7,0-2.4,0.1-2.4,0.1"/>
<path class="st18" d="M275,45.4c5.6,3.2,19.5,17.8,25.4,38.6C293.9,69.4,281.7,48.3,275,45.4z"/>
<path class="st11" d="M298.3,82.2c-9.6-16.5-17.9-29-22.4-32.3C286.4,68.2,293,76,298.3,82.2z"/>
<path class="st11" d="M305.5,158.1c-13,6.3-36.3,2.4-35.8-3.3c0.5-5.7,19.5,1.6,21.5,2.3C293.2,157.8,307.3,155.1,305.5,158.1z"/>
<path class="st11" d="M318.3,124.1c2.4,1.2,1.8,10.7,0.3,10.4C317.1,134.3,315,123.3,318.3,124.1z"/>
<path class="st18" d="M336.1,90.7c0.6,1.3-4.5,8.2-4.5,8.2c3.5-7.1,3.4-8.7-1-10.7c-3.9-1.7-15.1-4.2-23.5-3.8
	C326.5,82.9,335.6,89.4,336.1,90.7z"/>
<path class="st18" d="M317.3,141.4l-1-4.2l2.6-0.9l0.9,0.8l0.2,1.4l-0.9,0.7l-1.3,0.1l0.5,1.8L317.3,141.4z M318.9,138.2l-0.3-1
	l-1.3,0.3l0.3,1L318.9,138.2z"/>
<path class="st17" d="M317.3,141.4l-1-4.2l2.6-0.9l0.9,0.8l0.2,1.4l-0.9,0.7l-1.3,0.1l0.5,1.8L317.3,141.4z M318.9,138.2l-0.3-1
	l-1.3,0.3l0.3,1L318.9,138.2z"/>
<path class="st6" d="M331.4,95.2c-0.1-1.4-0.5-1.2-0.4-0.3c0.4,5.6-16.9,11.1-26.8,0.3c-0.7-0.8-0.9,0.2-0.1,0.9
	C314.1,105.5,331.8,100.1,331.4,95.2z"/>
<path class="st17" d="M331.4,95.2c-0.1-1.4-0.5-1.2-0.4-0.3c0.4,5.6-16.9,11.1-26.8,0.3c-0.7-0.8-0.9,0.2-0.1,0.9
	C314.1,105.5,331.8,100.1,331.4,95.2z"/>
<path class="st6" d="M322.4,94.8c-0.2-0.3-1.8-3.5-3.8-5.1c2.5-0.1,5.4-0.1,7.7,0.1C325.8,94.4,322.6,95.1,322.4,94.8z"/>
<path class="st17" d="M322.4,94.8c-0.2-0.3-1.8-3.5-3.8-5.1c2.5-0.1,5.4-0.1,7.7,0.1C325.8,94.4,322.6,95.1,322.4,94.8z"/>
<path class="st18" d="M312.8,90c1.1-0.2,3.3-0.4,5.9-0.5c2.5-0.1,5.4-0.1,7.7,0.1c1.2,0.1,2.3,0.3,3.2,0.6
	C325.6,89.1,312.8,90,312.8,90z"/>
<path class="st19" d="M46.6,71.9c1.1,0.1,2.4,0.4,3,0.7c3.1,1.6,5.3,5.9,5.3,5.9s1.1,5,10.1,4.7c9-0.3,12.9-6.7,10.4-10.6
	c-1.9-3-7.9-1.7-12.4,0.3c-0.3-4.7-7.6-8.2-9.5-8l-0.2,0.3c3.7-5.8,4.4-12.8,2.1-18.1c-0.4-0.9-0.8-1.7-1.2-2.5l0.1,0.1
	c1.7-1.5,7.9-3.6,8.8-4.3c2.2-2.8-0.2-6.3-1.4-7c-1.2-0.7-7.5,1.5-13.3,4.2l0.5,0.5c-2-1.6-4.4-2.7-7.1-3.5c-0.8-2-0.6-3-0.6-3h-0.4
	c8-1.4,10.8-6,12.3-11.2c1.2-4.3,0.3-8-1.5-10.9c0.1-0.2,0.6-1.8,1.1-2.8c0.4-1.1-0.4-3.7-1.8-5.4c-1.4-1.8-5.2,0.4-6.2,3.1l0.2,0.2
	c-7-1.7-20.1-0.4-25.5,1.4l0.2,0.5c-0.4-0.6-2.7-4.7-6.4-2c-3.9,3.1-1.1,7.2,0.1,9.4c-1.6,4-0.3,10.3,1.8,14.1
	c1,1.9,4.8,3.2,9.4,3.8l0.2,4.4c-1.5,0.7-2.8,1.4-3.9,2.3c-2.8-0.8-10.3-5.1-15.1-7.3c-5.1-2.4-5.5,5.1-3.5,7.6
	c2.1,2.5,9.3,6.1,13.7,6.7c-1,3.3-0.8,7.2-0.2,11.4c0.8,5.3,3,10.7,6.7,14.4c-1.1,1.9-1.6,4.3-1.4,6.4l0.5,0.2
	c0.9,0.4,1.9,0.9,2.8,1.5L21,77.8c-4.2-1.9-8.3-2-9.9,1.4c-2,4.2,2.8,6.8,9.8,7.7c6.9,0.9,11.4-1.7,10.1-6.8
	c-0.5-1.9-0.5-3.3-0.3-4.4c2.6,0.4,5.5,0.3,8.8-0.6C42.2,74.4,44.6,73.2,46.6,71.9z"/>
<path class="st20" d="M22,71.2c-1.1,1.9-1.6,4.3-1.4,6.4l0.5,0.2c0.9,0.4,1.9,0.9,2.8,1.5L21,77.8c-4.2-1.9-8.3-2-9.9,1.4
	c-2,4.2,2.8,6.8,9.8,7.7c6.9,0.9,11.4-1.7,10.1-6.8c-0.5-1.9-0.5-3.3-0.3-4.4"/>
<path class="st21" d="M50.9,68.6c4.8,1.4,8.2,7.1,8.2,7.1c6.4,3.8,14.2-2.3,15.9-3.7c-2.2-2.3-7.8-1.1-12,0.8
	c-0.3-4.7-7.6-8.2-9.5-8l-0.2,0.3c3.7-5.8,4.4-12.8,2.1-18.1c-0.4-0.9-0.8-1.7-1.2-2.5l0.1,0.1c0.1-0.1,0.3-0.3,0.5-0.4l-1.7-2
	c6-0.4,9.4-3.4,10.8-4.9c-0.2-1.8-1.5-3.5-2.3-3.9c-1.2-0.7-7.5,1.5-13.3,4.2l0.5,0.5c-2-1.6-4.4-2.7-7.1-3.5c0-0.1-0.1-0.1-0.1-0.2
	c-2.3,1.3-9.7,4.7-17.2,1.3l0,0.4c-1.5,0.7-2.8,1.4-3.9,2.3c-2.8-0.8-10.3-5.1-15.1-7.3c-0.6-0.3-1.1-0.4-1.6-0.4
	c-1.4,6.8,15.6,12.7,15.6,12.7c-2,13.9,4.2,25.9,4.2,25.9c-0.8,0.9-1.3,1.5-1.6,1.9c0.1,0.1,0.1,0.1,0.2,0.2
	c-1.1,1.9-1.6,4.3-1.4,6.4l0.5,0.2c0.9,0.4,1.9,0.9,2.8,1.5L21,77.8c-3.2-1.4-6.3-1.9-8.3-0.5c0,3.8,14,8.8,18.3,6.1
	c0.3-0.9,0.4-2.1,0.1-3.3c-0.5-1.9-0.5-3.3-0.3-4.4c2.6,0.4,5.5,0.3,8.8-0.6c2.7-0.8,5.1-1.9,7.2-3.3c0.2,0,0.5,0.1,0.7,0.1
	C50.2,70.2,50.9,68.6,50.9,68.6z"/>
<path class="st20" d="M24.3,36.1L24.3,36.1c-1.5,0.6-2.8,1.4-3.9,2.2c0.2,0.1,0.3,0.1,0.5,0.1c1.2,4.4-4.4,6.8-5.3,6.9
	c0,0-0.1,0-0.1,0c-1,3.3-0.8,7.2-0.2,11.4c0.8,5.3,3,10.7,6.7,14.4c0.4-0.7,0.8-1.3,1.4-1.8"/>
<path class="st22" d="M21,77.8l2.8,1.5C22.9,78.7,22,78.2,21,77.8z"/>
<path class="st21" d="M12.7,77.3c-0.6,0.4-1.2,1.1-1.6,1.9c-2,4.2,2.8,6.8,9.8,7.7c5.2,0.7,9-0.6,10.1-3.5
	C26.7,86.1,12.7,81.1,12.7,77.3z"/>
<path class="st23" d="M54.7,44.1c2.2-1.5,7.4-3.3,8.3-3.9c0.8-1,0.9-2,0.8-3c-1.4,1.5-4.8,4.6-10.8,4.9L54.7,44.1z"/>
<path class="st21" d="M41,31.6h-0.4c0.3-0.1,0.5-0.1,0.8-0.2c7.4-1.6,10-6,11.5-11.1c1.2-4.3,0.3-8-1.5-10.9
	c0.1-0.2,0.6-1.8,1.1-2.8c0.4-1.1-0.4-3.7-1.8-5.4c-1.4-1.8-5.2,0.4-6.2,3.1l0.2,0.2c-7-1.7-20.1-0.4-25.5,1.4l0.2,0.5
	c-0.4-0.6-2.7-4.7-6.4-2c-3.4,2.7-1.8,6.1-0.5,8.3c0.2,0.4,0.4,0.7,0.6,1c-1.6,4-0.3,10.3,1.8,14.1c1,1.9,4.8,3.2,9.4,3.8l0.2,4
	c7.5,3.4,14.9,0,17.2-1.3C40.8,32.5,41,31.6,41,31.6z"/>
<path class="st24" d="M75.4,72.5c-0.1-0.2-0.2-0.3-0.4-0.5c-1.7,1.5-9.5,7.6-15.9,3.7c0,0-3.4-5.7-8.2-7.1c0,0-0.6,1.5-3.5,3.3
	c0.9,0.1,1.8,0.4,2.3,0.6c3.1,1.6,5.3,5.9,5.3,5.9s1.1,5,10.1,4.7C73.9,82.9,77.8,76.5,75.4,72.5z"/>
<path class="st21" d="M15.3,56.8c0.8,5.3,2.9,10.6,6.5,14.3c0.3-0.4,0.9-1,1.6-1.9c0,0-6.2-11.9-4.2-25.9c0,0-17-5.9-15.6-12.7
	c-3.6-0.2-3.7,5.8-1.9,8.1c2.1,2.5,9.3,6.1,13.7,6.7C14.5,48.7,14.7,52.5,15.3,56.8z"/>
<path class="st6" d="M36.7,41.6c7.4-1.9,13.5,0.8,15.6,8.5c2.1,7.7-3.7,11-7.8,12.9C40.3,65,30,62.7,28.1,56.9
	C26.2,51.2,28.7,44,36.7,41.6z"/>
<path class="st25" d="M36.7,41.6c7.4-1.9,13.5,0.8,15.6,8.5c2.1,7.7-3.7,11-7.8,12.9C40.3,65,30,62.7,28.1,56.9
	C26.2,51.2,28.7,44,36.7,41.6z"/>
<path class="st20" d="M63,72.8c-0.2-4.7-7.6-8.3-9.5-8"/>
<path class="st20" d="M53.6,42.5c3.4-0.8,9.5-4.5,9.5-4.5"/>
<path class="st20" d="M19,43.7c-2.4,7-0.3,21,3.9,25.4"/>
<path class="st20" d="M24.4,69.6c-1.8,2.4-3,5.4-2.6,8.3"/>
<path class="st20" d="M19,5.9C24.6,4,38.4,2.7,45.2,4.6"/>
<path class="st20" d="M44.3,4.3c1.1-2.6,4.8-4.8,6.2-3.1c1.4,1.7,2.2,4.3,1.8,5.4c-0.4,1.1-1.1,2.9-1.1,2.9"/>
<path class="st6" d="M49.7,1c0,0-3.4,1.3-4,3.7C47.1,2.6,48.7,1.4,49.7,1z"/>
<path class="st20" d="M49.7,1c0,0-3.4,1.3-4,3.7C47.1,2.6,48.7,1.4,49.7,1z"/>
<path class="st20" d="M13.3,14.5c-0.8-1.8-5-6.6-0.6-10.1c3.8-2.8,6,1.3,6.4,2"/>
<path class="st6" d="M13.9,11.6c-1.5-2.4-2.3-4.5-0.4-5.8c2-1.3,3-0.4,3.8,1.3c-1.4-1.6-2.8-2.3-4.2-0.5
	C11.7,8.4,13.5,10.7,13.9,11.6z"/>
<path class="st20" d="M13.9,11.6c-1.5-2.4-2.3-4.5-0.4-5.8c2-1.3,3-0.4,3.8,1.3c-1.4-1.6-2.8-2.3-4.2-0.5
	C11.7,8.4,13.5,10.7,13.9,11.6z"/>
<path class="st20" d="M14.2,14.7c-0.6,4.4,0.2,12,2.4,14c2.2,2,3.8,2.2,3.8,2.2"/>
<path class="st20" d="M31.8,73.1c0,0-0.8,0.8-1.1,2.7c2.6,0.4,5.5,0.3,8.8-0.6C54.2,71,59.4,56.2,55.4,47
	c-2.8-6.5-7.3-10.7-13.8-12.4c0.1,0.2,0.2,0.4,0.3,0.7"/>
<path class="st20" d="M15.5,45.3c0,0,0.1,0,0.1,0c0.9-0.1,6.5-2.5,5.3-6.9c-0.1,0-0.3-0.1-0.5-0.1"/>
<path class="st6" d="M22,71.2c0.4-0.7,0.8-1.3,1.4-1.8c-2,0.9-2.4,1.8-2.4,1.8L22,71.2z"/>
<path class="st20" d="M22,71.2c0.4-0.7,0.8-1.3,1.4-1.8c-2,0.9-2.4,1.8-2.4,1.8L22,71.2z"/>
<path class="st6" d="M30.7,75.8c0.3-1.9,1.1-2.7,1.1-2.7c-0.8,1.7-0.4,3-0.4,3L30.7,75.8z"/>
<path class="st20" d="M30.7,75.8c0.3-1.9,1.1-2.7,1.1-2.7c-0.8,1.7-0.4,3-0.4,3L30.7,75.8z"/>
<path class="st20" d="M40.5,31.6c8-1.4,10.8-6,12.3-11.2c1.6-5.5-0.4-10.2-3.4-13.3"/>
<path class="st20" d="M12.9,13.7c-1.6,4-0.3,10.4,1.7,14.2c1,1.9,4.8,3.2,9.4,3.8v0"/>
<polyline class="st20" points="24.1,31.7 24.4,37.9 23.7,33.9 "/>
<path class="st20" d="M41.6,34.6c-0.8-2-0.6-3-0.6-3h-0.4c-0.4,0.1-0.8,0.1-1.2,0.2"/>
<path class="st6" d="M40.5,31.6c-0.4,0.1-0.8,0.1-1.2,0.2l2.4,0.2l0.2-0.6L40.5,31.6z"/>
<path class="st20" d="M40.5,31.6c-0.4,0.1-0.8,0.1-1.2,0.2l2.4,0.2l0.2-0.6L40.5,31.6z"/>
<line class="st20" x1="24.1" y1="31.7" x2="24.1" y2="31.7"/>
<path class="st6" d="M38.8,13.1c-0.4,3.1,5.8,7.5,8.6-0.3L38.8,13.1z"/>
<path class="st20" d="M38.8,13.1c-0.4,3.1,5.8,7.5,8.6-0.3L38.8,13.1z"/>
<path class="st6" d="M52.1,11.2c-1.8-3.6-3.5-4.8-3.5-4.8c2.1,1.6,3.8,3.8,3.8,3.8L52.1,11.2z"/>
<path class="st20" d="M52.1,11.2c-1.8-3.6-3.5-4.8-3.5-4.8c2.1,1.6,3.8,3.8,3.8,3.8L52.1,11.2z"/>
<path class="st6" d="M48.2,36.1c3.7,2.8,6.1,6,7.4,8.7c-0.7,0.7-0.7,1.1-0.7,1.1c-2.3-4.4-5.1-7.3-7.8-9.1
	C47,36.1,48.2,36.1,48.2,36.1z"/>
<line class="st20" x1="17.3" y1="45.8" x2="19.1" y2="46.1"/>
<line class="st20" x1="18.7" y1="48.6" x2="17.1" y2="49"/>
<line class="st20" x1="17.1" y1="50.8" x2="18.3" y2="50.7"/>
<path class="st20" d="M18.9,53.2c0,0-1.3,0.3-1.4,0.2"/>
<line class="st20" x1="17.4" y1="55.5" x2="19" y2="55.4"/>
<line class="st20" x1="19.3" y1="58.2" x2="18.1" y2="58.3"/>
<line class="st20" x1="18.4" y1="60.8" x2="19.8" y2="60.4"/>
<line class="st20" x1="20" y1="62.1" x2="18.9" y2="62.6"/>
<line class="st20" x1="19.5" y1="64.3" x2="20.8" y2="63.9"/>
<line class="st20" x1="21.4" y1="66" x2="20" y2="66.3"/>
<line class="st20" x1="21.1" y1="68" x2="22.6" y2="67.8"/>
<line class="st20" x1="13.3" y1="15.4" x2="14.9" y2="15.5"/>
<line class="st20" x1="15" y1="17.8" x2="13.3" y2="18"/>
<line class="st20" x1="13.6" y1="21.7" x2="15" y2="21.8"/>
<line class="st20" x1="15.5" y1="23.7" x2="14" y2="23.6"/>
<line class="st20" x1="14.5" y1="26.3" x2="15.9" y2="26"/>
<line class="st20" x1="15" y1="19.7" x2="13.3" y2="19.7"/>
<line class="st20" x1="15.2" y1="27.6" x2="16.3" y2="27.4"/>
<line class="st20" x1="54.8" y1="40.7" x2="55.3" y2="42.8"/>
<line class="st20" x1="57.1" y1="41.9" x2="57" y2="40.5"/>
<line class="st20" x1="58.9" y1="39.5" x2="58.9" y2="40.9"/>
<line class="st20" x1="61.5" y1="39.5" x2="61.2" y2="38.4"/>
<path class="st6" d="M55.3,64.1c-2.9,4.6-6,7.3-8.6,9.1c-2.4,0.4-2.6,0.2-2.6,0.2s7.6-3.9,10.8-11C55,62.3,55.3,64.1,55.3,64.1z"/>
<path class="st20" d="M55.3,64.1c-2.9,4.6-6,7.3-8.6,9.1c-2.4,0.4-2.6,0.2-2.6,0.2s7.6-3.9,10.8-11C55,62.3,55.3,64.1,55.3,64.1z"/>
<path class="st6" d="M65.4,70.6c-4.9,2-6.3,4.6-6.3,4.6c2.9-2,7.1-3.9,7.1-3.9L65.4,70.6z"/>
<path class="st20" d="M65.4,70.6c-4.9,2-6.3,4.6-6.3,4.6c2.9-2,7.1-3.9,7.1-3.9L65.4,70.6z"/>
<path class="st6" d="M19.9,76.1c3,0.6,4.5,3.5,4.5,3.5s-2.8-1.5-4.8-2.3C19.6,76.2,19.9,76.1,19.9,76.1z"/>
<path class="st20" d="M19.9,76.1c3,0.6,4.5,3.5,4.5,3.5s-2.8-1.5-4.8-2.3C19.6,76.2,19.9,76.1,19.9,76.1z"/>
<line class="st20" x1="21.4" y1="74.5" x2="22.7" y2="75.3"/>
<line class="st20" x1="23.3" y1="73.4" x2="21.9" y2="73"/>
<line class="st20" x1="22.8" y1="70.8" x2="24.1" y2="71.3"/>
<path class="st26" d="M38.1,41.5c7.3-1,12.8,2.3,13.9,10.1c1.1,7.8-4.8,10.3-8.9,11.7c-4.2,1.4-13.7-2.1-14.9-7.9
	C27,49.6,30.2,42.9,38.1,41.5z"/>
<path class="st27" d="M38.1,41.5c7.3-1,12.8,2.3,13.9,10.1c1.1,7.8-4.8,10.3-8.9,11.7c-4.2,1.4-13.7-2.1-14.9-7.9
	C27,49.6,30.2,42.9,38.1,41.5z"/>
<path class="st20" d="M38.1,41.5c7.3-1,12.8,2.3,13.9,10.1c1.1,7.8-4.8,10.3-8.9,11.7c-4.2,1.4-13.7-2.1-14.9-7.9
	C27,49.6,30.2,42.9,38.1,41.5z"/>
<path class="st20" d="M43.9,52c-1,0.9-1.1,2.3-0.4,2.1c0.7-0.2,0.3-1.7-0.1-1.2"/>
<path class="st28" d="M27.3,7.2c0.5,1,0.7,4,0.7,4"/>
<path class="st28" d="M26.1,9.3c1.5-0.1,3.8-0.4,3.8-0.4"/>
<path class="st28" d="M40.7,6.6c0.4,2.4,0.5,3.6,0.5,3.6"/>
<path class="st28" d="M39.2,8.6c0,0,2.8-0.4,3.4-0.2"/>
<path class="st29" d="M36.8,24.9c8.6,5.5,25.5-2.5,10.8-12.3C49.1,19.4,47.5,25.5,36.8,24.9z"/>
<path class="st30" d="M17.1,6.9c-2.7-1.1-3.2,4.6-3.2,4.6C10.5,6.8,14.2,3.9,17.1,6.9z"/>
<path class="st31" d="M10.8,82.6c-1.6-4.7,6.1-3.5,13.6-0.8c4.2,1.5,5.8-6.2,5.8-6.2s4,9.3-3.2,11C19.7,88.4,13,85.7,10.8,82.6z"/>
<path class="st31" d="M76.1,73.6c-1.1-4.4-23.1,5.3-19.8,7.6c0.6,0.4,1.2,1.6,2.9,1.8C66.9,84.2,78,81.2,76.1,73.6z"/>
<path class="st6" d="M48,12.7l-0.3,0.2c0,0,0.1,0,0.1,0c0.9,4.1,0.8,12.3-11,12C49.2,25.2,48.9,18.1,48,12.7
	C48,12.7,48,12.7,48,12.7z"/>
<path class="st20" d="M48,12.7l-0.3,0.2c0,0,0.1,0,0.1,0c0.9,4.1,0.8,12.3-11,12C49.2,25.2,48.9,18.1,48,12.7
	C48,12.7,48,12.7,48,12.7z"/>
<path class="st18" d="M25.9,13.9c3.9-0.5,20.2-1.2,21.7-1l0.3-0.2C47.1,12.2,35.8,12.8,25.9,13.9z"/>
<path class="st18" d="M49.2,0.6c-3.2-0.1-5,3.7-5,3.7l1,0.2C45.2,4.5,45.8,1.3,49.2,0.6z"/>
<path class="st18" d="M15,3.4c-4.8,0.3-4.9,6.2-3.4,7.8C10.8,7.3,12.1,5.3,15,3.4z"/>
<path class="st20" d="M75.4,73.9c-3.3,5.4-11.3,9.3-18.4,6.1"/>
<line class="st20" x1="59.3" y1="79.6" x2="59.9" y2="81.8"/>
<line class="st20" x1="62.6" y1="80.1" x2="63.1" y2="81.9"/>
<line class="st20" x1="68.3" y1="78.9" x2="69" y2="80.4"/>
<line class="st20" x1="71" y1="77.6" x2="71.4" y2="79.1"/>
<line class="st20" x1="73.5" y1="75.4" x2="74" y2="76.8"/>
<line class="st20" x1="66.9" y1="80.1" x2="66.5" y2="78.7"/>
<path class="st32" d="M15.2,45.8c0,0-2.2,17.1,5.9,23.1c7.3,5.4,0.5-12.9-1-26.1c0,0-18.2-13.3-19.6-9.6c-0.2,0.5-0.3,3.4,1.3,5.3
	C3.1,40,5,41.5,7.3,42.5C11.3,44.3,15.2,45.8,15.2,45.8z"/>
<path class="st20" d="M19.1,43.6c-2.4,7-0.3,21,3.9,25.4"/>
<path class="st20" d="M15.7,45.2c0,0,0.1,0,0.1,0c0.9-0.1,6.5-2.5,5.3-6.9c-0.1,0-0.3-0.1-0.5-0.1"/>
<line class="st20" x1="17.4" y1="45.6" x2="19.2" y2="46"/>
<line class="st20" x1="18.8" y1="48.5" x2="17.2" y2="48.8"/>
<line class="st20" x1="17.3" y1="50.7" x2="18.5" y2="50.5"/>
<path class="st20" d="M19,53.1c0,0-1.3,0.3-1.4,0.2"/>
<line class="st20" x1="17.5" y1="55.4" x2="19.2" y2="55.3"/>
<line class="st20" x1="19.5" y1="58.1" x2="18.3" y2="58.2"/>
<line class="st20" x1="18.6" y1="60.7" x2="19.9" y2="60.3"/>
<line class="st20" x1="20.2" y1="61.9" x2="19" y2="62.4"/>
<line class="st20" x1="19.7" y1="64.1" x2="21" y2="63.8"/>
<line class="st20" x1="21.6" y1="65.8" x2="20.2" y2="66.1"/>
<line class="st20" x1="21.3" y1="67.9" x2="22.7" y2="67.6"/>
<path class="st20" d="M48.2,36.1c3.7,2.8,6.1,6,7.4,8.7c-0.7,0.7-0.7,1.1-0.7,1.1c-2.3-4.4-5.1-7.3-7.8-9.1
	C47,36.1,48.2,36.1,48.2,36.1z"/>
<path class="st33" d="M60.8,37.9c-2.7,1-7.8,3.1-7.8,3.1l1.4,3.1l8.5-3.2c0,0,1.2-1.2,1.1-2.9C63.9,35.7,62,37.4,60.8,37.9z"/>
<g>
	<path class="st34" d="M124.2,139.2h-0.7c-0.1,0-0.2-0.1-0.2-0.2v-9.8c0-0.1,0.1-0.2,0.2-0.2h3.7c0.7,0,1.3,0.2,1.7,0.6
		c0.4,0.4,0.6,1,0.6,1.7v1.8c0,0.7-0.2,1.3-0.6,1.7s-1,0.6-1.7,0.6h-2.6c-0.1,0-0.2,0-0.2,0.1v3.4
		C124.5,139.2,124.4,139.2,124.2,139.2z M124.6,134.4h2.5c0.9,0,1.3-0.5,1.3-1.4v-1.7c0-0.9-0.4-1.4-1.3-1.4h-2.5
		c-0.1,0-0.2,0-0.2,0.1v4.2C124.5,134.4,124.5,134.4,124.6,134.4z"/>
	<path class="st34" d="M134.3,139.2h-0.7c-0.1,0-0.2-0.1-0.2-0.2v-9.8c0-0.1,0.1-0.2,0.2-0.2h3.7c0.7,0,1.3,0.2,1.7,0.6
		c0.4,0.4,0.6,1,0.6,1.7v1.5c0,0.6-0.1,1.1-0.4,1.5c-0.3,0.4-0.7,0.6-1.2,0.8v0.1l1.9,3.9c0.1,0.2,0,0.3-0.2,0.3H139
		c-0.2,0-0.3-0.1-0.4-0.2l-1.8-3.9h-2.1c-0.1,0-0.2,0-0.2,0.1v3.7C134.6,139.2,134.5,139.2,134.3,139.2z M134.7,134.2h2.4
		c0.9,0,1.4-0.5,1.4-1.4v-1.4c0-0.9-0.5-1.4-1.4-1.4h-2.4c-0.1,0-0.2,0-0.2,0.1v3.9C134.6,134.1,134.6,134.2,134.7,134.2z"/>
	<path class="st34" d="M143.1,139v-0.6c0-0.2,0-0.3,0.1-0.4l5-7.9V130h-4.6c-0.1,0-0.2-0.1-0.2-0.2v-0.6c0-0.1,0.1-0.2,0.2-0.2h5.7
		c0.1,0,0.2,0.1,0.2,0.2v0.8c0,0.2,0,0.3-0.1,0.4l-4.8,7.7v0.1h4.9c0.1,0,0.2,0.1,0.2,0.2v0.6c0,0.2-0.1,0.2-0.2,0.2h-6
		C143.2,139.2,143.1,139.2,143.1,139z"/>
	<path class="st34" d="M158.5,139.2h-5c-0.1,0-0.2-0.1-0.2-0.2v-9.8c0-0.1,0.1-0.2,0.2-0.2h5c0.1,0,0.2,0.1,0.2,0.2v0.6
		c0,0.2-0.1,0.2-0.2,0.2h-3.9c-0.1,0-0.2,0-0.2,0.1v3.2c0,0.1,0.1,0.1,0.2,0.1h3.4c0.1,0,0.2,0.1,0.2,0.2v0.6c0,0.1-0.1,0.2-0.2,0.2
		h-3.4c-0.1,0-0.2,0-0.2,0.1v3.4c0,0.1,0.1,0.1,0.2,0.1h3.9c0.1,0,0.2,0.1,0.2,0.2v0.6C158.7,139.2,158.6,139.2,158.5,139.2z"/>
	<path class="st34" d="M162.6,139v-9.8c0-0.1,0.1-0.2,0.2-0.2h3.9c0.7,0,1.3,0.2,1.7,0.6c0.4,0.4,0.6,1,0.6,1.7v5.6
		c0,0.7-0.2,1.3-0.6,1.7c-0.4,0.4-1,0.6-1.7,0.6h-3.9C162.7,139.2,162.6,139.2,162.6,139z M163.9,138.2h2.7c0.9,0,1.3-0.5,1.3-1.4
		v-5.5c0-0.9-0.4-1.4-1.3-1.4h-2.7c-0.1,0-0.2,0-0.2,0.1v8C163.8,138.2,163.8,138.2,163.9,138.2z"/>
	<path class="st34" d="M173.1,136.9v-0.5c0-0.1,0.1-0.2,0.2-0.2h0.7c0.1,0,0.2,0.1,0.2,0.2v0.4c0,1,0.5,1.4,1.4,1.4h1.4
		c0.9,0,1.4-0.5,1.4-1.5v-0.5c0-0.8-0.6-1.3-1.9-1.5c-0.5-0.1-1.1-0.2-1.6-0.3c-0.5-0.1-1-0.4-1.4-0.7s-0.6-0.9-0.6-1.5v-0.8
		c0-0.7,0.2-1.3,0.6-1.7c0.4-0.4,1-0.6,1.7-0.6h1.8c0.7,0,1.3,0.2,1.7,0.6c0.4,0.4,0.6,1,0.6,1.7v0.4c0,0.2-0.1,0.2-0.2,0.2h-0.7
		c-0.1,0-0.2-0.1-0.2-0.2v-0.3c0-1-0.5-1.5-1.4-1.5h-1.4c-0.9,0-1.4,0.5-1.4,1.5v0.6c0,0.5,0.4,0.9,1.1,1.1c0.3,0.1,0.7,0.2,1.1,0.2
		c0.4,0.1,0.8,0.2,1.2,0.3c0.4,0.1,0.7,0.3,1.1,0.4c0.3,0.2,0.6,0.4,0.8,0.8c0.2,0.3,0.3,0.7,0.3,1.2v0.7c0,0.7-0.2,1.3-0.6,1.7
		s-1,0.6-1.7,0.6h-1.8c-0.7,0-1.3-0.2-1.7-0.6C173.3,138.2,173.1,137.6,173.1,136.9z"/>
	<path class="st34" d="M183.2,139v-0.6c0-0.2,0-0.3,0.1-0.4l5-7.9V130h-4.6c-0.1,0-0.2-0.1-0.2-0.2v-0.6c0-0.1,0.1-0.2,0.2-0.2h5.7
		c0.2,0,0.2,0.1,0.2,0.2v0.8c0,0.2,0,0.3-0.1,0.4l-4.8,7.7v0.1h4.9c0.2,0,0.2,0.1,0.2,0.2v0.6c0,0.2-0.1,0.2-0.2,0.2h-6
		C183.3,139.2,183.2,139.2,183.2,139z"/>
	<path class="st34" d="M194.2,139.2h-0.7c-0.1,0-0.2-0.1-0.2-0.2v-9.8c0-0.1,0.1-0.2,0.2-0.2h0.7c0.1,0,0.2,0.1,0.2,0.2v5.5h0
		c0.1-0.2,0.2-0.4,0.4-0.7l3.6-4.9c0.1-0.1,0.2-0.2,0.4-0.2h0.9c0.2,0,0.2,0.1,0.1,0.2l-3.2,4.3l3.6,5.5c0.1,0.2,0.1,0.3-0.1,0.3
		h-0.7c-0.2,0-0.4-0.1-0.5-0.2l-3.1-4.7l-1.5,1.7v2.9C194.5,139.2,194.4,139.2,194.2,139.2z"/>
	<path class="st34" d="M207.7,139.2h-1.9c-0.7,0-1.3-0.2-1.7-0.6c-0.4-0.4-0.6-1-0.6-1.7v-5.6c0-0.7,0.2-1.3,0.6-1.7
		c0.4-0.4,1-0.6,1.7-0.6h1.9c0.7,0,1.3,0.2,1.7,0.6c0.4,0.4,0.6,1,0.6,1.7v5.6c0,0.7-0.2,1.3-0.6,1.7
		C209,139,208.4,139.2,207.7,139.2z M205.9,138.2h1.6c0.9,0,1.3-0.5,1.3-1.4v-5.5c0-0.9-0.4-1.4-1.3-1.4h-1.6
		c-0.9,0-1.3,0.5-1.3,1.4v5.5C204.6,137.7,205,138.2,205.9,138.2z"/>
	<path class="st34" d="M219.5,139.2h-5.1c-0.1,0-0.2-0.1-0.2-0.2v-9.8c0-0.1,0.1-0.2,0.2-0.2h0.7c0.1,0,0.2,0.1,0.2,0.2v8.9
		c0,0.1,0.1,0.1,0.2,0.1h4c0.1,0,0.2,0.1,0.2,0.2v0.6C219.7,139.2,219.6,139.2,219.5,139.2z"/>
	<path class="st34" d="M228.3,139.2h-5c-0.1,0-0.2-0.1-0.2-0.2v-9.8c0-0.1,0.1-0.2,0.2-0.2h5c0.1,0,0.2,0.1,0.2,0.2v0.6
		c0,0.2-0.1,0.2-0.2,0.2h-3.9c-0.1,0-0.2,0-0.2,0.1v3.2c0,0.1,0.1,0.1,0.2,0.1h3.4c0.1,0,0.2,0.1,0.2,0.2v0.6c0,0.1-0.1,0.2-0.2,0.2
		h-3.4c-0.1,0-0.2,0-0.2,0.1v3.4c0,0.1,0.1,0.1,0.2,0.1h3.9c0.1,0,0.2,0.1,0.2,0.2v0.6C228.5,139.2,228.4,139.2,228.3,139.2z"/>
</g>
<path class="st34" d="M119.3,85.5h-0.7c-0.2,0-0.2-0.1-0.2-0.2V74.8c0-0.2,0.1-0.2,0.2-0.2h0.7c0.1,0,0.2,0,0.3,0.1l4.7,8.2h0.1
	v-8.1c0-0.2,0.1-0.2,0.2-0.2h0.7c0.2,0,0.2,0.1,0.2,0.2v10.5c0,0.2-0.1,0.2-0.2,0.2h-0.6c-0.1,0-0.2-0.1-0.4-0.2l-4.7-8.2h-0.1v8.1
	C119.6,85.4,119.5,85.5,119.3,85.5z"/>
<path class="st34" d="M131.3,74.8v10.5c0,0.2-0.1,0.2-0.2,0.2h-0.8c-0.2,0-0.2-0.1-0.2-0.2V74.8c0-0.2,0.1-0.2,0.2-0.2h0.8
	C131.3,74.5,131.3,74.6,131.3,74.8z"/>
<path class="st34" d="M141.5,85.5h-5.3c-0.2,0-0.2-0.1-0.2-0.2V74.8c0-0.2,0.1-0.2,0.2-0.2h5.3c0.2,0,0.2,0.1,0.2,0.2v0.6
	c0,0.2-0.1,0.2-0.2,0.2h-4.2c-0.1,0-0.2,0.1-0.2,0.2v3.4c0,0.1,0.1,0.2,0.2,0.2h3.6c0.2,0,0.2,0.1,0.2,0.2v0.6
	c0,0.2-0.1,0.2-0.2,0.2h-3.6c-0.1,0-0.2,0.1-0.2,0.2v3.6c0,0.1,0.1,0.2,0.2,0.2h4.2c0.2,0,0.2,0.1,0.2,0.2v0.6
	C141.7,85.4,141.6,85.5,141.5,85.5z"/>
<path class="st34" d="M146.8,85.5h-0.8c-0.2,0-0.2-0.1-0.2-0.2V74.8c0-0.2,0.1-0.2,0.2-0.2h4c0.8,0,1.4,0.2,1.8,0.7s0.7,1.1,0.7,1.8
	v1.9c0,0.8-0.2,1.4-0.7,1.9c-0.4,0.4-1.1,0.7-1.8,0.7h-2.8c-0.1,0-0.2,0.1-0.2,0.2v3.6C147.1,85.4,147,85.5,146.8,85.5z M147.2,80.3
	h2.6c1,0,1.4-0.5,1.4-1.5v-1.8c0-1-0.5-1.5-1.4-1.5h-2.6c-0.1,0-0.2,0.1-0.2,0.2v4.4C147.1,80.3,147.1,80.3,147.2,80.3z"/>
<path class="st34" d="M162.4,74.5h0.8c0.2,0,0.2,0.1,0.2,0.2v8.2c0,0.8-0.2,1.4-0.7,1.9c-0.4,0.4-1.1,0.7-1.8,0.7H159
	c-0.8,0-1.4-0.2-1.8-0.7c-0.4-0.4-0.7-1.1-0.7-1.9v-8.2c0-0.2,0.1-0.2,0.2-0.2h0.8c0.2,0,0.2,0.1,0.2,0.2v8.1c0,1,0.5,1.5,1.4,1.5
	h1.6c1,0,1.4-0.5,1.4-1.5v-8.1C162.2,74.6,162.2,74.5,162.4,74.5z"/>
<path class="st34" d="M167.8,85.2V74.8c0-0.2,0.1-0.2,0.2-0.2h4c0.8,0,1.4,0.2,1.8,0.7s0.7,1,0.7,1.8v0.9c0,1-0.5,1.7-1.4,2
	c0.4,0,0.8,0.2,1.1,0.6s0.5,0.8,0.5,1.4V83c0,0.8-0.2,1.4-0.7,1.8c-0.4,0.4-1.1,0.7-1.8,0.7H168C167.8,85.5,167.8,85.4,167.8,85.2z
	 M169.2,79.4h2.6c1,0,1.5-0.5,1.5-1.4V77c0-1-0.5-1.4-1.4-1.4h-2.7c-0.1,0-0.2,0.1-0.2,0.2v3.5C169,79.3,169.1,79.4,169.2,79.4z
	 M169.2,84.4h2.8c1,0,1.5-0.5,1.5-1.4v-1.1c0-1-0.5-1.4-1.6-1.4h-2.7c-0.1,0-0.2,0.1-0.2,0.2v3.7C169,84.3,169.1,84.4,169.2,84.4z"
	/>
<path class="st34" d="M184.6,85.5h-5.5c-0.2,0-0.2-0.1-0.2-0.2V74.8c0-0.2,0.1-0.2,0.2-0.2h0.8c0.2,0,0.2,0.1,0.2,0.2v9.4
	c0,0.1,0.1,0.2,0.2,0.2h4.3c0.2,0,0.2,0.1,0.2,0.3v0.6C184.8,85.4,184.7,85.5,184.6,85.5z"/>
<path class="st34" d="M189.7,74.8v10.5c0,0.2-0.1,0.2-0.2,0.2h-0.8c-0.2,0-0.2-0.1-0.2-0.2V74.8c0-0.2,0.1-0.2,0.2-0.2h0.8
	C189.6,74.5,189.7,74.6,189.7,74.8z"/>
<path class="st34" d="M198.6,85.5h-2c-0.8,0-1.4-0.2-1.8-0.7c-0.4-0.4-0.7-1.1-0.7-1.9V77c0-0.8,0.2-1.4,0.7-1.9
	c0.4-0.4,1.1-0.7,1.8-0.7h2c0.8,0,1.4,0.2,1.8,0.7c0.4,0.4,0.7,1.1,0.7,1.9v0.8c0,0.2-0.1,0.2-0.2,0.2h-0.8c-0.2,0-0.2-0.1-0.2-0.2
	v-0.8c0-1-0.5-1.5-1.4-1.5h-1.8c-0.9,0-1.4,0.5-1.4,1.5v5.8c0,1,0.5,1.5,1.4,1.5h1.8c1,0,1.4-0.5,1.4-1.5v-0.8
	c0-0.2,0.1-0.2,0.2-0.2h0.8c0.2,0,0.2,0.1,0.2,0.2v0.8c0,0.8-0.2,1.4-0.7,1.9C200,85.2,199.4,85.5,198.6,85.5z"/>
<path class="st34" d="M204.6,85.2v-0.6c0-0.2,0-0.4,0.1-0.4l5.3-8.4v-0.1h-4.9c-0.2,0-0.2-0.1-0.2-0.2v-0.7c0-0.2,0.1-0.2,0.2-0.2h6
	c0.2,0,0.2,0.1,0.2,0.2v0.8c0,0.2,0,0.3-0.1,0.5l-5.1,8.2v0.1h5.2c0.2,0,0.2,0.1,0.2,0.2v0.7c0,0.2-0.1,0.3-0.2,0.3h-6.4
	C204.7,85.5,204.6,85.4,204.6,85.2z"/>
<path class="st34" d="M216.3,85.5h-0.7c-0.2,0-0.2-0.1-0.2-0.2V74.8c0-0.2,0.1-0.2,0.2-0.2h0.7c0.1,0,0.2,0,0.3,0.1l4.7,8.2h0.1
	v-8.1c0-0.2,0.1-0.2,0.2-0.2h0.7c0.2,0,0.2,0.1,0.2,0.2v10.5c0,0.2-0.1,0.2-0.2,0.2h-0.6c-0.1,0-0.2-0.1-0.4-0.2l-4.7-8.2h-0.1v8.1
	C216.6,85.4,216.5,85.5,216.3,85.5z"/>
<path class="st34" d="M232.6,85.5h-5.3c-0.2,0-0.2-0.1-0.2-0.2V74.8c0-0.2,0.1-0.2,0.2-0.2h5.3c0.2,0,0.2,0.1,0.2,0.2v0.6
	c0,0.2-0.1,0.2-0.2,0.2h-4.2c-0.1,0-0.2,0.1-0.2,0.2v3.4c0,0.1,0.1,0.2,0.2,0.2h3.6c0.2,0,0.2,0.1,0.2,0.2v0.6
	c0,0.2-0.1,0.2-0.2,0.2h-3.6c-0.1,0-0.2,0.1-0.2,0.2v3.6c0,0.1,0.1,0.2,0.2,0.2h4.2c0.2,0,0.2,0.1,0.2,0.2v0.6
	C232.8,85.4,232.8,85.5,232.6,85.5z"/>
</svg>
