<svg width="1991" height="1990" xmlns="http://www.w3.org/2000/svg">
 <style type="text/css">.st0{fill:none;stroke:#0D1645;stroke-width:0.9221;stroke-linecap:round;stroke-linejoin:round;stroke-miterlimit:22.9256;}
	.st1{fill-rule:evenodd;clip-rule:evenodd;fill:#B292B2;}
	.st2{fill-rule:evenodd;clip-rule:evenodd;fill:#0D1645;}
	.st3{fill:none;stroke:#0D1645;stroke-width:3.4328;stroke-linecap:round;stroke-linejoin:round;stroke-miterlimit:22.9256;}
	.st4{fill-rule:evenodd;clip-rule:evenodd;fill:#F08EBA;}
	.st5{fill-rule:evenodd;clip-rule:evenodd;fill:#CD7FB4;}
	.st6{fill-rule:evenodd;clip-rule:evenodd;fill:#EECADC;}
	.st7{fill-rule:evenodd;clip-rule:evenodd;fill:#951981;}
	.st8{fill:none;stroke:#0D1645;stroke-width:0.1689;stroke-miterlimit:22.9256;}
	.st9{fill-rule:evenodd;clip-rule:evenodd;fill:#FFFFFF;}</style>

 <g>
  <title>background</title>
  <rect fill="none" id="canvas_background" height="1992" width="1993" y="-1" x="-1"/>
 </g>
 <g>
  <title>Layer 1</title>
  <g stroke="null" id="svg_44">
   <path stroke="null" id="svg_1" d="m515.418237,493.393821c3.419739,14.773644 0.777213,24.881926 0.777213,24.881926" class="st0"/>
   <path stroke="null" id="svg_2" d="m956.720047,1220.257093c66.995801,33.435088 10.725546,87.242254 -172.852276,58.939063c-64.353276,25.503974 -223.83748,24.104366 -302.957812,6.687018c-119.224547,16.173252 -517.313288,18.816957 -369.953613,-38.87801c147.359674,-57.694967 419.539833,-8.086626 419.539833,-8.086626l265.34068,-18.816957l160.883189,0l0,0.155512z" class="st1"/>
   <path stroke="null" id="svg_3" d="m435.36525,1193.042486l0,0c-0.310885,0 -0.932656,0 -1.243542,0c0.310885,0 0.777213,0 1.243542,0m-1.398984,0c-5.440494,-0.311024 -11.036431,-0.77756 -16.787811,-1.399608c5.75138,0.466536 11.347317,1.088584 16.787811,1.399608m110.053428,-382.248593c0,-0.155512 0,-0.155512 0,-0.155512c10.414661,-8.553162 21.140206,-18.039397 32.176638,-28.303191c-9.948332,10.419307 -21.140206,20.061053 -32.176638,28.458703m35.596377,-31.724456c72.280853,-68.269785 150.0022,-166.553394 165.857355,-218.027879c1.70987,-28.458703 -146.893346,-90.508007 -347.25898,-64.07096c231.609615,-136.384058 257.568545,-247.419655 271.247502,-461.870757c1.554427,-25.19295 2.020755,-53.185117 -40.415101,6.220482c-42.435856,59.094575 -240.158963,453.162083 -240.158963,453.162083c-36.839919,-170.130171 -179.38087,-345.858775 -258.812086,-396.866724c-13.212629,90.974543 107.87723,331.70718 254.615134,412.884464c28.756898,141.671468 50.363433,255.195256 65.285932,279.921671c-2.487083,25.037438 -7.150364,58.317015 -12.590858,94.862344l-1.70987,-3.110241c-6.528593,5.598433 -12.279973,11.196867 -17.565024,16.950812c-23.62729,25.503974 -34.974606,51.007949 -35.130049,70.446954c0,10.730331 3.264297,19.594517 9.948332,25.348462l-2.487083,3.265753l14.611613,4.043313l11.191874,1.088584c1.70987,-0.466536 3.419739,-0.933072 4.974166,-1.55512c-7.927577,66.403641 -11.969087,127.675384 -2.487083,157.222672c2.642526,8.086626 5.906822,15.551204 9.79289,22.549246c-5.129609,-0.311024 -10.103775,-0.77756 -14.767056,-1.55512l1.865312,11.352379c-0.621771,0 -1.243542,-0.155512 -1.70987,-0.155512c-2.642526,-0.311024 -5.285052,-0.466536 -7.927577,-0.933072c-1.398984,-0.155512 -2.797969,-0.311024 -4.196953,-0.466536c-2.797969,-0.311024 -5.75138,-0.622048 -8.549348,-1.088584c-1.243542,-0.155512 -2.487083,-0.311024 -3.730625,-0.466536c-3.264297,-0.466536 -6.37315,-0.77756 -9.637447,-1.244096c-0.932656,-0.155512 -1.865312,-0.155512 -2.797969,-0.311024c-3.575182,-0.466536 -7.305807,-1.088584 -11.036431,-1.55512c-0.466328,0 -0.932656,-0.155512 -1.398984,-0.155512c-48.653563,-7.153554 -102.436736,-16.639788 -150.0022,-21.771686c-0.777213,-0.155512 -1.70987,-0.155512 -2.487083,-0.311024c-3.575182,-0.466536 -7.150364,-0.77756 -10.570103,-1.088584c-1.243542,0 -2.487083,-0.155512 -3.575182,-0.311024c-3.108854,-0.311024 -6.062265,-0.466536 -9.015676,-0.77756c-1.398984,-0.155512 -2.797969,-0.155512 -4.196953,-0.311024c-2.642526,-0.155512 -5.440494,-0.311024 -8.08302,-0.466536c-1.554427,0 -3.108854,-0.155512 -4.507838,-0.155512c-2.487083,-0.155512 -4.974166,-0.155512 -7.305807,-0.311024c-1.554427,0 -3.108854,0 -4.663281,-0.155512c-2.176198,0 -4.507838,0 -6.528593,0c-1.554427,0 -3.108854,0 -4.663281,0c-2.020755,0 -4.04151,0.155512 -6.062265,0.311024c-1.554427,0 -3.108854,0.155512 -4.507838,0.311024c-1.865312,0.155512 -3.730625,0.311024 -5.595937,0.466536c-1.554427,0.155512 -2.953411,0.311024 -4.352395,0.466536c-1.70987,0.155512 -3.419739,0.466536 -5.129609,0.77756c-1.398984,0.155512 -2.797969,0.466536 -4.196953,0.77756c-1.554427,0.311024 -3.108854,0.622048 -4.663281,1.088584c-1.243542,0.311024 -2.642526,0.622048 -3.886067,0.933072c-1.398984,0.466536 -2.797969,0.77756 -4.196953,1.244096c-1.243542,0.311024 -2.33164,0.77756 -3.419739,1.244096c-1.243542,0.466536 -2.487083,1.088584 -3.730625,1.710632c-1.088099,0.466536 -2.020755,0.933072 -3.108854,1.55512c-1.088099,0.622048 -2.176198,1.399608 -3.264297,2.021657c-0.932656,0.622048 -1.70987,1.088584 -2.642526,1.710632c-0.932656,0.77756 -1.865312,1.55512 -2.642526,2.332681c-0.777213,0.622048 -1.554427,1.244096 -2.176198,2.021657c-0.777213,0.933072 -1.554427,1.866144 -2.176198,2.954729c-0.466328,0.77756 -1.088099,1.399608 -1.554427,2.177169c-0.777213,1.088584 -1.243542,2.332681 -1.70987,3.576777c-0.310885,0.77756 -0.777213,1.399608 -1.088099,2.177169c-0.777213,2.021657 -1.243542,4.198825 -1.554427,6.531506c-0.466328,2.488193 -0.466328,4.820873 -0.310885,7.153554c0,0.622048 0.310885,1.244096 0.310885,1.866144c0.310885,1.55512 0.466328,3.265753 1.088099,4.820873c0.310885,0.622048 0.621771,1.244096 0.932656,1.866144c0.621771,1.55512 1.243542,2.954729 2.020755,4.509849c0.310885,0.622048 0.932656,1.088584 1.243542,1.710632c0.932656,1.399608 2.020755,2.799217 3.108854,4.198825c0.466328,0.622048 1.243542,1.088584 1.70987,1.710632c1.398984,1.244096 2.642526,2.643705 4.196953,3.887801c0.621771,0.466536 1.398984,0.933072 2.020755,1.399608c1.554427,1.244096 3.264297,2.488193 5.129609,3.576777c0.777213,0.466536 1.554427,0.933072 2.487083,1.399608c1.865312,1.088584 3.886067,2.177169 5.906822,3.421265c0.777213,0.311024 1.554427,0.77756 2.33164,1.088584c2.33164,1.088584 4.663281,2.177169 7.150364,3.265753c0.777213,0.311024 1.554427,0.622048 2.33164,0.77756c2.642526,1.088584 5.440494,2.177169 8.238463,3.110241c0.777213,0.311024 1.70987,0.622048 2.642526,0.77756c2.953411,0.933072 5.906822,1.866144 9.015676,2.799217c0.777213,0.155512 1.554427,0.466536 2.33164,0.622048c3.264297,0.933072 6.684036,1.710632 10.103775,2.488193c0.777213,0.155512 1.398984,0.311024 2.176198,0.466536c3.575182,0.77756 7.305807,1.55512 11.191874,2.332681c0.777213,0.155512 1.554427,0.311024 2.487083,0.466536c3.730625,0.622048 7.616692,1.399608 11.658202,2.021657c0.621771,0 1.243542,0.155512 1.865312,0.155512c4.196953,0.622048 8.393906,1.244096 12.746301,1.710632c0.466328,0 1.088099,0.155512 1.554427,0.155512c4.507838,0.466536 9.015676,0.933072 13.678957,1.399608c0.466328,0.155512 0.777213,0.155512 1.243542,0.155512c4.818724,0.311024 9.637447,0.77756 14.456171,1.088584c0.310885,0 0.777213,0 1.243542,0c4.818724,0.311024 9.948332,0.622048 14.767056,0.622048l0.777213,0c5.285052,0.155512 10.414661,0.311024 15.699712,0.311024l0.621771,0c5.285052,0.155512 10.570103,0.155512 15.855155,0c0.310885,0 0.621771,0 0.932656,0c5.285052,-0.155512 10.570103,-0.155512 15.699712,-0.466536l0.466328,0c5.440494,-0.155512 10.880989,-0.466536 16.16604,-0.77756c0.310885,0 0.466328,0 0.777213,0c5.285052,-0.311024 10.570103,-0.77756 15.855155,-1.088584c0.310885,0 0.466328,0 0.777213,-0.155512c5.285052,-0.466536 10.570103,-0.933072 15.699712,-1.55512c0.310885,0 0.777213,0 1.088099,-0.155512c5.129609,-0.622048 10.259218,-1.244096 15.233384,-1.866144c0.310885,0 0.777213,0 1.088099,-0.155512c4.974166,-0.77756 9.948332,-1.399608 14.922499,-2.332681c0.466328,0 0.932656,-0.155512 1.554427,-0.311024c4.663281,-0.77756 9.482004,-1.710632 14.145285,-2.488193c0.621771,-0.155512 1.243542,-0.311024 2.020755,-0.466536c4.352395,-0.933072 8.860234,-1.866144 13.212629,-2.799217c0.932656,-0.155512 1.70987,-0.466536 2.642526,-0.622048c4.04151,-0.933072 8.08302,-1.866144 11.969087,-2.954729c1.088099,-0.311024 2.020755,-0.466536 3.108854,-0.77756c3.730625,-1.088584 7.305807,-2.021657 10.880989,-3.110241c1.243542,-0.466536 2.33164,-0.77756 3.575182,-1.088584c3.264297,-1.088584 6.528593,-2.177169 9.79289,-3.265753c1.398984,-0.466536 2.642526,-0.933072 3.886067,-1.55512c2.797969,-1.088584 5.75138,-2.177169 8.549348,-3.265753c1.554427,-0.622048 2.953411,-1.244096 4.352395,-1.866144c2.176198,-0.933072 4.352395,-1.866144 6.37315,-2.799217l0.155443,0c-0.466328,0.311024 -0.932656,0.466536 -1.398984,0.77756l6.062265,7.62009c1.554427,-0.77756 2.953411,-1.55512 4.507838,-2.332681c84.560826,54.11819 225.236464,34.212649 267.516877,-5.131897c1.865312,-1.710632 3.419739,-3.421265 4.974166,-5.131897c-0.155443,0.311024 -0.466328,0.622048 -0.466328,0.622048l10.103775,1.088584c0,0 0.310885,-0.466536 0.777213,-1.088584c60.156323,3.887801 228.967089,10.263795 208.137768,-41.366202c-22.072863,-54.584726 -121.867073,-0.622048 -193.215269,-1.088584c0,-0.466536 0.155443,-0.933072 0,-1.399608l-10.414661,1.088584c-2.797969,-41.521714 -45.700152,-84.132013 -60.311765,-104.815114c-8.860234,-12.596475 -38.394346,-51.941021 -69.949213,-97.817073c3.108854,0.933072 6.062265,1.866144 8.549348,2.177169c-2.020755,-3.887801 -5.440494,-5.598433 -7.305807,-6.06497c0.621771,0 1.088099,0.155512 1.554427,0.155512c0.155443,0 0.466328,0 0.621771,0c1.70987,0 3.419739,-0.155512 4.974166,-0.466536c0.155443,0 0.310885,0 0.466328,0c1.554427,-0.466536 2.797969,-1.244096 4.04151,-2.177169c0.310885,-0.155512 0.466328,-0.466536 0.621771,-0.622048c1.088099,-1.088584 2.020755,-2.488193 2.642526,-4.198825c1.243542,-2.954729 2.176198,-5.909457 2.953411,-8.864186c0.155443,-0.622048 0.155443,-1.244096 0.310885,-2.021657c0.466328,-2.177169 0.932656,-4.509849 1.088099,-6.84253c0.155443,-1.399608 0,-2.799217 0,-4.043313c0,-1.55512 0.155443,-3.110241 0,-4.665361c-0.155443,-2.021657 -0.621771,-4.043313 -0.932656,-5.909457c-0.155443,-0.933072 -0.155443,-1.866144 -0.466328,-2.643705c-0.621771,-2.488193 -1.398984,-4.976385 -2.33164,-7.464578c-0.155443,-0.311024 -0.155443,-0.622048 -0.310885,-0.933072c-11.813645,-30.635872 -47.254579,-55.67331 -86.737024,-58.783551c-9.482004,-18.505933 -16.16604,-34.990209 -19.119451,-48.364244" class="st2"/>
   <path stroke="null" id="svg_4" d="m435.36525,1193.042486l0,0c-0.310885,0 -0.932656,0 -1.243542,0c0.310885,0 0.777213,0 1.243542,0zm-1.398984,0c-5.440494,-0.311024 -11.036431,-0.77756 -16.787811,-1.399608c5.75138,0.466536 11.347317,1.088584 16.787811,1.399608zm110.053428,-382.248593c0,-0.155512 0,-0.155512 0,-0.155512c10.414661,-8.553162 21.140206,-18.039397 32.176638,-28.303191c-9.948332,10.419307 -21.140206,20.061053 -32.176638,28.458703zm35.596377,-31.724456c72.280853,-68.269785 150.0022,-166.553394 165.857355,-218.027879c1.70987,-28.458703 -146.893346,-90.508007 -347.25898,-64.07096c231.609615,-136.384058 257.568545,-247.419655 271.247502,-461.870757c1.554427,-25.19295 2.020755,-53.185117 -40.415101,6.220482c-42.435856,59.094575 -240.158963,453.162083 -240.158963,453.162083c-36.839919,-170.130171 -179.38087,-345.858775 -258.812086,-396.866724c-13.212629,90.974543 107.87723,331.70718 254.615134,412.884464c28.756898,141.671468 50.363433,255.195256 65.285932,279.921671c-2.487083,25.037438 -7.150364,58.317015 -12.590858,94.862344l-1.70987,-3.110241c-6.528593,5.598433 -12.279973,11.196867 -17.565024,16.950812c-23.62729,25.503974 -34.974606,51.007949 -35.130049,70.446954c0,10.730331 3.264297,19.594517 9.948332,25.348462l-2.487083,3.265753l14.611613,4.043313l11.191874,1.088584c1.70987,-0.466536 3.419739,-0.933072 4.974166,-1.55512c-7.927577,66.403641 -11.969087,127.675384 -2.487083,157.222672c2.642526,8.086626 5.906822,15.551204 9.79289,22.549246c-5.129609,-0.311024 -10.103775,-0.77756 -14.767056,-1.55512l1.865312,11.352379c-0.621771,0 -1.243542,-0.155512 -1.70987,-0.155512c-2.642526,-0.311024 -5.285052,-0.466536 -7.927577,-0.933072c-1.398984,-0.155512 -2.797969,-0.311024 -4.196953,-0.466536c-2.797969,-0.311024 -5.75138,-0.622048 -8.549348,-1.088584c-1.243542,-0.155512 -2.487083,-0.311024 -3.730625,-0.466536c-3.264297,-0.466536 -6.37315,-0.77756 -9.637447,-1.244096c-0.932656,-0.155512 -1.865312,-0.155512 -2.797969,-0.311024c-3.575182,-0.466536 -7.305807,-1.088584 -11.036431,-1.55512c-0.466328,0 -0.932656,-0.155512 -1.398984,-0.155512c-48.653563,-7.153554 -102.436736,-16.639788 -150.0022,-21.771686c-0.777213,-0.155512 -1.70987,-0.155512 -2.487083,-0.311024c-3.575182,-0.466536 -7.150364,-0.77756 -10.570103,-1.088584c-1.243542,0 -2.487083,-0.155512 -3.575182,-0.311024c-3.108854,-0.311024 -6.062265,-0.466536 -9.015676,-0.77756c-1.398984,-0.155512 -2.797969,-0.155512 -4.196953,-0.311024c-2.642526,-0.155512 -5.440494,-0.311024 -8.08302,-0.466536c-1.554427,0 -3.108854,-0.155512 -4.507838,-0.155512c-2.487083,-0.155512 -4.974166,-0.155512 -7.305807,-0.311024c-1.554427,0 -3.108854,0 -4.663281,-0.155512c-2.176198,0 -4.507838,0 -6.528593,0c-1.554427,0 -3.108854,0 -4.663281,0c-2.020755,0 -4.04151,0.155512 -6.062265,0.311024c-1.554427,0 -3.108854,0.155512 -4.507838,0.311024c-1.865312,0.155512 -3.730625,0.311024 -5.595937,0.466536c-1.554427,0.155512 -2.953411,0.311024 -4.352395,0.466536c-1.70987,0.155512 -3.419739,0.466536 -5.129609,0.77756c-1.398984,0.155512 -2.797969,0.466536 -4.196953,0.77756c-1.554427,0.311024 -3.108854,0.622048 -4.663281,1.088584c-1.243542,0.311024 -2.642526,0.622048 -3.886067,0.933072c-1.398984,0.466536 -2.797969,0.77756 -4.196953,1.244096c-1.243542,0.311024 -2.33164,0.77756 -3.419739,1.244096c-1.243542,0.466536 -2.487083,1.088584 -3.730625,1.710632c-1.088099,0.466536 -2.020755,0.933072 -3.108854,1.55512c-1.088099,0.622048 -2.176198,1.399608 -3.264297,2.021657c-0.932656,0.622048 -1.70987,1.088584 -2.642526,1.710632c-0.932656,0.77756 -1.865312,1.55512 -2.642526,2.332681c-0.777213,0.622048 -1.554427,1.244096 -2.176198,2.021657c-0.777213,0.933072 -1.554427,1.866144 -2.176198,2.954729c-0.466328,0.77756 -1.088099,1.399608 -1.554427,2.177169c-0.777213,1.088584 -1.243542,2.332681 -1.70987,3.576777c-0.310885,0.77756 -0.777213,1.399608 -1.088099,2.177169c-0.777213,2.021657 -1.243542,4.198825 -1.554427,6.531506c-0.466328,2.488193 -0.466328,4.820873 -0.310885,7.153554c0,0.622048 0.310885,1.244096 0.310885,1.866144c0.310885,1.55512 0.466328,3.265753 1.088099,4.820873c0.310885,0.622048 0.621771,1.244096 0.932656,1.866144c0.621771,1.55512 1.243542,2.954729 2.020755,4.509849c0.310885,0.622048 0.932656,1.088584 1.243542,1.710632c0.932656,1.399608 2.020755,2.799217 3.108854,4.198825c0.466328,0.622048 1.243542,1.088584 1.70987,1.710632c1.398984,1.244096 2.642526,2.643705 4.196953,3.887801c0.621771,0.466536 1.398984,0.933072 2.020755,1.399608c1.554427,1.244096 3.264297,2.488193 5.129609,3.576777c0.777213,0.466536 1.554427,0.933072 2.487083,1.399608c1.865312,1.088584 3.886067,2.177169 5.906822,3.421265c0.777213,0.311024 1.554427,0.77756 2.33164,1.088584c2.33164,1.088584 4.663281,2.177169 7.150364,3.265753c0.777213,0.311024 1.554427,0.622048 2.33164,0.77756c2.642526,1.088584 5.440494,2.177169 8.238463,3.110241c0.777213,0.311024 1.70987,0.622048 2.642526,0.77756c2.953411,0.933072 5.906822,1.866144 9.015676,2.799217c0.777213,0.155512 1.554427,0.466536 2.33164,0.622048c3.264297,0.933072 6.684036,1.710632 10.103775,2.488193c0.777213,0.155512 1.398984,0.311024 2.176198,0.466536c3.575182,0.77756 7.305807,1.55512 11.191874,2.332681c0.777213,0.155512 1.554427,0.311024 2.487083,0.466536c3.730625,0.622048 7.616692,1.399608 11.658202,2.021657c0.621771,0 1.243542,0.155512 1.865312,0.155512c4.196953,0.622048 8.393906,1.244096 12.746301,1.710632c0.466328,0 1.088099,0.155512 1.554427,0.155512c4.507838,0.466536 9.015676,0.933072 13.678957,1.399608c0.466328,0.155512 0.777213,0.155512 1.243542,0.155512c4.818724,0.311024 9.637447,0.77756 14.456171,1.088584c0.310885,0 0.777213,0 1.243542,0c4.818724,0.311024 9.948332,0.622048 14.767056,0.622048l0.777213,0c5.285052,0.155512 10.414661,0.311024 15.699712,0.311024l0.621771,0c5.285052,0.155512 10.570103,0.155512 15.855155,0c0.310885,0 0.621771,0 0.932656,0c5.285052,-0.155512 10.570103,-0.155512 15.699712,-0.466536l0.466328,0c5.440494,-0.155512 10.880989,-0.466536 16.16604,-0.77756c0.310885,0 0.466328,0 0.777213,0c5.285052,-0.311024 10.570103,-0.77756 15.855155,-1.088584c0.310885,0 0.466328,0 0.777213,-0.155512c5.285052,-0.466536 10.570103,-0.933072 15.699712,-1.55512c0.310885,0 0.777213,0 1.088099,-0.155512c5.129609,-0.622048 10.259218,-1.244096 15.233384,-1.866144c0.310885,0 0.777213,0 1.088099,-0.155512c4.974166,-0.77756 9.948332,-1.399608 14.922499,-2.332681c0.466328,0 0.932656,-0.155512 1.554427,-0.311024c4.663281,-0.77756 9.482004,-1.710632 14.145285,-2.488193c0.621771,-0.155512 1.243542,-0.311024 2.020755,-0.466536c4.352395,-0.933072 8.860234,-1.866144 13.212629,-2.799217c0.932656,-0.155512 1.70987,-0.466536 2.642526,-0.622048c4.04151,-0.933072 8.08302,-1.866144 11.969087,-2.954729c1.088099,-0.311024 2.020755,-0.466536 3.108854,-0.77756c3.730625,-1.088584 7.305807,-2.021657 10.880989,-3.110241c1.243542,-0.466536 2.33164,-0.77756 3.575182,-1.088584c3.264297,-1.088584 6.528593,-2.177169 9.79289,-3.265753c1.398984,-0.466536 2.642526,-0.933072 3.886067,-1.55512c2.797969,-1.088584 5.75138,-2.177169 8.549348,-3.265753c1.554427,-0.622048 2.953411,-1.244096 4.352395,-1.866144c2.176198,-0.933072 4.352395,-1.866144 6.37315,-2.799217l0.155443,0c-0.466328,0.311024 -0.932656,0.466536 -1.398984,0.77756l6.062265,7.62009c1.554427,-0.77756 2.953411,-1.55512 4.507838,-2.332681c84.560826,54.11819 225.236464,34.212649 267.516877,-5.131897c1.865312,-1.710632 3.419739,-3.421265 4.974166,-5.131897c-0.155443,0.311024 -0.466328,0.622048 -0.466328,0.622048l10.103775,1.088584c0,0 0.310885,-0.466536 0.777213,-1.088584c60.156323,3.887801 228.967089,10.263795 208.137768,-41.366202c-22.072863,-54.584726 -121.867073,-0.622048 -193.215269,-1.088584c0,-0.466536 0.155443,-0.933072 0,-1.399608l-10.414661,1.088584c-2.797969,-41.521714 -45.700152,-84.132013 -60.311765,-104.815114c-8.860234,-12.596475 -38.394346,-51.941021 -69.949213,-97.817073c3.108854,0.933072 6.062265,1.866144 8.549348,2.177169c-2.020755,-3.887801 -5.440494,-5.598433 -7.305807,-6.06497c0.621771,0 1.088099,0.155512 1.554427,0.155512c0.155443,0 0.466328,0 0.621771,0c1.70987,0 3.419739,-0.155512 4.974166,-0.466536c0.155443,0 0.310885,0 0.466328,0c1.554427,-0.466536 2.797969,-1.244096 4.04151,-2.177169c0.310885,-0.155512 0.466328,-0.466536 0.621771,-0.622048c1.088099,-1.088584 2.020755,-2.488193 2.642526,-4.198825c1.243542,-2.954729 2.176198,-5.909457 2.953411,-8.864186c0.155443,-0.622048 0.155443,-1.244096 0.310885,-2.021657c0.466328,-2.177169 0.932656,-4.509849 1.088099,-6.84253c0.155443,-1.399608 0,-2.799217 0,-4.043313c0,-1.55512 0.155443,-3.110241 0,-4.665361c-0.155443,-2.021657 -0.621771,-4.043313 -0.932656,-5.909457c-0.155443,-0.933072 -0.155443,-1.866144 -0.466328,-2.643705c-0.621771,-2.488193 -1.398984,-4.976385 -2.33164,-7.464578c-0.155443,-0.311024 -0.155443,-0.622048 -0.310885,-0.933072c-11.813645,-30.635872 -47.254579,-55.67331 -86.737024,-58.783551c-9.482004,-18.505933 -16.16604,-34.990209 -19.119451,-48.364244" class="st3"/>
   <path stroke="null" id="svg_5" d="m544.019693,810.482869c2.020755,13.996084 9.637447,32.81304 20.20755,53.807166c57.358354,4.509849 106.16736,55.67331 86.426138,102.17141c-2.642526,7.775602 -10.725546,8.708674 -19.430337,6.687018c32.642966,47.897708 64.04239,89.419423 73.213509,102.326922c14.456171,20.838613 57.513797,63.448912 60.311765,104.815114c71.659082,6.531506 180.468968,-55.828822 203.62993,1.55512c22.383748,55.051262 -170.986964,44.165419 -218.552429,40.744154c-1.554427,1.710632 -3.264297,3.421265 -5.129609,5.131897c-43.83484,40.744154 -193.526155,60.805207 -276.687996,-0.77756c-119.690875,56.606382 -402.130251,46.4981 -390.627491,-31.25792c11.191874,-75.734363 234.563026,-10.730331 357.984526,-2.954729c-6.684036,-10.108283 -12.279973,-21.460661 -16.321483,-34.057137c-9.637447,-30.169336 -5.285052,-92.840687 2.797969,-160.643937c-10.103775,3.421265 -20.518436,3.732289 -28.601456,-3.265753c-21.451092,-18.816957 -9.171119,-67.958761 42.435856,-112.746228l1.70987,3.110241c5.285052,-36.545329 10.103775,-69.980418 12.590858,-94.862344c-14.922499,-24.570902 -36.529033,-138.094691 -65.285932,-279.921671c-146.737904,-81.021772 -267.827763,-321.909921 -254.615134,-412.884464c79.431217,51.007949 221.972168,226.892065 258.812086,397.022236c0,0 197.87855,-394.067508 240.314406,-453.473107c42.435856,-59.405599 41.969528,-31.413432 40.415101,-6.220482c-13.8344,214.451102 -39.637887,325.64221 -271.402945,462.026269c200.365633,-26.281535 348.813407,35.612257 347.25898,64.226472c-18.497681,60.027647 -121.400744,183.970742 -201.453732,249.441311" class="st4"/>
   <path stroke="null" id="svg_6" d="m469.873528,974.081534c114.405823,25.659486 251.817165,287.697273 158.240663,291.740586c-93.731945,4.198825 -253.527035,-23.171294 -208.914982,-232.957035c14.300728,-42.921323 25.026274,-63.759936 50.674318,-58.783551" class="st5"/>
   <path stroke="null" id="svg_7" d="m606.663099,929.449579c0,0 -3.108854,76.822947 -32.798409,78.689092c-29.534112,1.866144 -35.596377,-42.610299 -25.803487,-95.795416c9.79289,-53.185117 26.269815,-43.698883 64.975046,-10.730331c-21.451092,-14.773644 -47.254579,-36.545329 -55.182157,-14.929156c-8.08302,21.616173 -26.580701,112.279692 14.456171,116.478517c22.694633,1.399608 29.689555,-55.206774 34.352836,-73.712707" class="st2"/>
   <path stroke="null" id="svg_8" d="m688.115071,1210.304322c-130.882749,10.574819 -185.132249,-167.953002 -76.011478,-189.724688c41.658642,-1.866144 206.738784,179.305381 76.011478,189.724688" class="st6"/>
   <path stroke="null" id="svg_9" d="m634.953669,977.813823c39.79333,58.628039 39.171559,58.317015 91.244862,125.653728c-43.679397,-55.051262 -205.806128,-52.874093 -311.973488,26.903583c-4.818724,-87.397766 6.684036,-128.14192 6.684036,-128.14192c19.119451,-11.352379 33.420179,-21.771686 33.420179,-21.771686c23.160961,55.984334 63.576062,39.344546 70.260098,13.840571c6.684036,-25.659486 -15.077941,-100.305265 -41.658642,-95.173368c-20.518436,3.887801 -39.171559,26.281535 -39.171559,26.281535c3.575182,-27.681143 -7.305807,-41.677227 -7.305807,-41.677227l6.217708,-37.789426c46.477366,10.419307 82.695514,35.767769 82.695514,35.767769l29.378669,-36.078793l9.326562,19.127981c0,0 36.995361,3.110241 49.741662,15.862228c-2.797969,13.374035 -6.839479,16.328764 -6.839479,16.328764s-29.223227,-26.903583 -39.79333,-22.08271c-10.414661,4.665361 -20.518436,20.527589 -22.850076,78.067044c-1.243542,28.458703 5.129609,53.807166 26.736143,55.362286c23.62729,1.710632 31.243982,-44.320931 31.243982,-44.320931l32.642966,13.840571z" class="st7"/>
   <path stroke="null" id="svg_10" d="m469.4072,1226.322062c-119.069104,57.383942 -403.684678,47.586684 -392.181918,-30.48036c10.570103,-71.846562 212.490163,-16.950812 338.554189,-4.509849" class="st8"/>
   <path stroke="null" id="svg_11" d="m140.490458,141.7811c0,0 181.867953,181.016014 226.635449,326.108746c-3.575182,-26.748071 -106.633688,-186.147911 -226.635449,-326.108746" class="st2"/>
   <path stroke="null" id="svg_12" d="m140.490458,141.7811c0,0 181.867953,181.016014 226.635449,326.108746c-3.575182,-26.748071 -106.633688,-186.147911 -226.635449,-326.108746z" class="st8"/>
   <path stroke="null" id="svg_13" d="m427.748558,458.092588c18.497681,-71.69105 143.62905,-283.964984 220.728626,-402.776182c-69.949213,118.18915 -205.495242,370.896214 -220.728626,402.776182" class="st2"/>
   <path stroke="null" id="svg_14" d="m427.748558,458.092588c18.497681,-71.69105 143.62905,-283.964984 220.728626,-402.776182c-69.949213,118.18915 -205.495242,370.896214 -220.728626,402.776182z" class="st8"/>
   <path stroke="null" id="svg_15" d="m601.378047,960.085451c18.031353,11.818915 33.109294,13.529547 33.109294,13.529547s5.75138,1.088584 8.549348,6.531506c-13.989843,-2.177169 -41.658642,-16.01774 -41.658642,-16.01774l0,-4.043313z" class="st2"/>
   <path stroke="null" id="svg_16" d="m413.914158,1179.979474c24.715388,4.198825 62.487963,-0.622048 62.487963,-0.622048s1.088099,2.954729 3.419739,13.218523c-16.943254,2.177169 -38.860674,1.399608 -64.04239,-1.088584l-1.865312,-11.507891z" class="st2"/>
   <path stroke="null" id="svg_17" d="m413.914158,1179.979474c24.715388,4.198825 62.487963,-0.622048 62.487963,-0.622048s1.088099,2.954729 3.419739,13.218523c-16.943254,2.177169 -38.860674,1.399608 -64.04239,-1.088584l-1.865312,-11.507891z" class="st8"/>
   <path stroke="null" id="svg_18" d="m472.671496,1235.34176c14.922499,-7.309066 25.492602,-13.996084 33.731065,-21.305149l-6.062265,-7.464578c-8.238463,7.309066 -18.808566,13.996084 -33.731065,21.305149l6.062265,7.464578z" class="st2"/>
   <path stroke="null" id="svg_19" d="m472.671496,1235.34176c14.922499,-7.309066 25.492602,-13.996084 33.731065,-21.305149l-6.062265,-7.464578c-8.238463,7.309066 -18.808566,13.996084 -33.731065,21.305149l6.062265,7.464578z" class="st8"/>
   <path stroke="null" id="svg_20" d="m775.007537,1179.512938c1.865312,19.439005 -15.544269,45.098491 -15.544269,45.098491l-10.103775,-1.088584c0,0 17.254139,-24.41539 15.388827,-42.921323l10.259218,-1.088584z" class="st2"/>
   <path stroke="null" id="svg_21" d="m571.222165,524.185205c-7.305807,-0.466536 -24.559946,0.622048 -24.559946,0.622048" class="st0"/>
   <path stroke="null" id="svg_22" d="m658.736402,522.31906c0.621771,4.665361 -0.777213,14.618132 -1.088099,15.551204" class="st0"/>
   <path stroke="null" id="svg_23" d="m667.907521,532.271831c-6.37315,-2.332681 -18.031353,-3.265753 -18.031353,-3.265753" class="st0"/>
   <path stroke="null" id="svg_24" d="m132.562881,96.371585c56.581141,32.03548 196.945894,180.238454 256.169561,390.335219c-65.441374,-148.047461 -189.018317,-361.098955 -256.169561,-390.335219" class="st9"/>
   <path stroke="null" id="svg_25" d="m367.125907,467.734334c-96.996241,-166.708906 -181.090739,-293.295706 -226.635449,-325.953234c106.478246,184.592791 173.62949,263.281883 226.635449,325.953234" class="st5"/>
   <path stroke="null" id="svg_26" d="m440.183973,1235.186248c-130.882749,63.759936 -366.222988,24.104366 -361.248822,-33.124064c4.974166,-57.22843 197.101337,16.639788 216.998002,23.171294c19.896665,6.687018 162.437616,-20.683101 144.250821,9.952771" class="st5"/>
   <path stroke="null" id="svg_27" d="m931.382888,1180.601523c20.673878,22.393734 43.057626,53.029605 -169.121652,43.076835l9.171119,-22.393734c0.155443,0 141.763737,-34.057137 159.950533,-20.683101" class="st5"/>
   <path stroke="null" id="svg_28" d="m569.356852,892.12669c24.093618,12.440963 18.186795,107.769843 3.264297,105.281651c-14.922499,-2.488193 -36.373591,-113.679301 -3.264297,-105.281651" class="st5"/>
   <path stroke="null" id="svg_29" d="m644.591117,22.81439c25.026274,-37.633914 25.95893,-7.775602 24.870831,11.974427c-3.264297,-23.482318 -12.901744,-25.19295 -24.870831,-11.974427" class="st9"/>
   <path stroke="null" id="svg_30" d="m749.20405,553.888004c5.75138,13.063011 -45.54471,83.198941 -45.54471,83.198941c35.285492,-71.69105 34.663721,-88.330838 -10.259218,-107.614331c-39.79333,-17.106324 -152.644726,-42.299275 -237.360995,-38.255962c196.168681,-16.173252 287.87987,50.230389 293.164922,62.671352" class="st9"/>
   <path stroke="null" id="svg_31" d="m559.097635,1065.98915l-10.103775,-42.299275l26.580701,-9.17521l9.015676,7.931114l1.865312,14.307108l-8.704791,7.464578l-13.523514,1.399608l5.129609,17.883885l-10.259218,2.488193zm16.943254,-32.03548l-3.108854,-10.419307l-12.590858,3.421265l2.642526,9.952771l13.057186,-2.954729z" class="st9"/>
   <path stroke="null" id="svg_32" d="m559.097635,1065.98915l-10.103775,-42.299275l26.580701,-9.17521l9.015676,7.931114l1.865312,14.307108l-8.704791,7.464578l-13.523514,1.399608l5.129609,17.883885l-10.259218,2.488193zm16.943254,-32.03548l-3.108854,-10.419307l-12.590858,3.421265l2.642526,9.952771l13.057186,-2.954729z" class="st8"/>
   <path stroke="null" id="svg_33" d="m701.483143,599.29752c-0.932656,-13.840571 -4.818724,-12.596475 -3.730625,-3.265753c4.04151,56.295358 -170.986964,112.12418 -270.470289,3.110241c-6.684036,-7.775602 -8.704791,1.55512 -1.088099,9.330722c101.037751,95.639904 279.952293,40.277618 275.289012,-9.17521" class="st2"/>
   <path stroke="null" id="svg_34" d="m701.483143,599.29752c-0.932656,-13.840571 -4.818724,-12.596475 -3.730625,-3.265753c4.04151,56.295358 -170.986964,112.12418 -270.470289,3.110241c-6.684036,-7.775602 -8.704791,1.55512 -1.088099,9.330722c101.037751,95.639904 279.952293,40.277618 275.289012,-9.17521z" class="st8"/>
   <path stroke="null" id="svg_35" d="m611.32638,595.720743c-2.176198,-2.643705 -18.497681,-35.612257 -38.705231,-51.785509c25.492602,-0.933072 54.094058,-0.933072 77.87679,1.244096c-4.974166,46.653612 -37.150804,53.185117 -39.171559,50.541413" class="st2"/>
   <path stroke="null" id="svg_36" d="m611.32638,595.720743c-2.176198,-2.643705 -18.497681,-35.612257 -38.705231,-51.785509c25.492602,-0.933072 54.094058,-0.933072 77.87679,1.244096c-4.974166,46.653612 -37.150804,53.185117 -39.171559,50.541413z" class="st8"/>
   <path stroke="null" id="svg_37" d="m514.485581,547.356499c10.725546,-1.710632 33.264737,-3.887801 59.223667,-4.820873c25.337159,-1.088584 54.094058,-1.088584 77.87679,1.244096c12.590858,1.244096 23.62729,3.110241 32.33208,5.753945c-40.881429,-11.818915 -169.432537,-2.177169 -169.432537,-2.177169" class="st9"/>
   <ellipse stroke="#ff0000" ry="158.532554" rx="158.461862" id="svg_43" cy="998.718057" cx="1006.946104" stroke-width="15" fill="none"/>
  </g>
 </g>
</svg>