<svg fill="#fff" xmlns="http://www.w3.org/2000/svg" viewBox="0 0 311.97 500"><path d="M12 412.75c10.24-1.4 48.82-.46 61.3 0 5.8.2 11.77-2.1 17.55-1.5s0 1.1 7.76 1.27c17.1.33 33.52 0 49.9 1.93 11.54 1.3 45.33.4 60 1.76 18.33 1.7 30.82-2.3 48.66.23l16.57 1.4c.65 7.92-5.32 35.6-6.4 42.8-3.56 23.64-1.73 22.76-27.5 24.16l-36.6 2c-8.67.6-3.45-1-10.24-1.05l-22.86.14-12-.66-20.58-1c-4.14-.5-7.24-1-11.5-1.2-14.42-.62-11.94-3.55-21.46-3-14.74.85-30.86-3.32-45.37-6.2l-18-4.24c-7.4-1.73-12.36-3.53-17.65-8.06-8.9-7.58-9.15-31.7-11.6-48.77zM20.38 89.7c5.8-.78 10.53-1.43 16.08-2.64 10.14-2.2 43.2-1.93 58.34-2.87 5.58-.36 9.66 1.5 14.35.88 10-1.3 21.43 2 34 1.27l44.52 2.45c19.4-.2 41.48-2.48 57.82-.3 6 .82 9.72-.7 22.34.26 4.27.33 7-.16 10.92.46 5.64.88 3.3 1.3 11 .36 2.68 19.34.46 23.22 1.44 32.35 1.86 17.84 3 8 1.07 25.9-.2 1.95 0 2.83-.26 4.82-1.07 10.93-3.55 10.8-1.4 29l-4.66 79.1c-2.48 18.82.94 46-4 69.63-2.32 11.05-2.15 19-2.6 28.24-.4 8-2.48 17.35-1 30.4-10.47 1.2-34.83.23-44.8-.42-15.82-1-27.7-1.37-45.86 1l.36 2.8c12.1 1.2 28.5-1.86 36.37-1.63l9.7.75a62.59 62.59 0 0 1 11.81.62c2 .26 2.4.36 5.28.7l2.45.3 6.88 1a34.29 34.29 0 0 1 5.8.65c3.07.52 6.6 1.17 10.1 1.57.75 5.2.3 5.93-.1 9.9-13.37 1.8-55.8 1.5-67.38-.33l-24.66-2.08c-2.83-.23-3.9-.75-6.68-1.1-14.87-2-53.78-1.73-67.7.06l-49.44.85c-8.67.75-8.6-1-15.8-.68-18.92.7-5.35-2.25-32.35 1.33l-1.54-35.87c.46-7.76-2.44-45.23.07-50.45l7.07 37.8c.72 5.28-.94 3.35 0 9.3.52 3.3-.62 1.14 1.14 4.24 5.64-8.77 1.17-29.58-.3-39.62-2.16-15.08-2.06-32.7-3.76-45-2.77-20.38-1.3-45.1-.13-66.46.26-4.5 1-4.34 1.2-7.86s-.56-5.54-.36-9.07c.88-15.9 3.88-24.85 1.82-47.42zm104.46-79c5.22-.23 4 .62 9.9.1 3.23-.26 6.5-1 9.72-1.17l62.62 1.5c6.85 1 11.25-1.37 23.8-1.5 4-.06 12.4 1.47 17.12 2.2 3 .42 5 .3 8.22.68.3 0 7.76 1.2 7.82 1.24 3.92.95 3.13.9 7.47 5 15.13 14.35 17.58 58.9 17.55 59-1.93 4.63-20 .6-25-.3-3.7-.7-3.88-.3-8.2-.75-4.56-.46-3.52-1.37-9.13-1.17-3.1.1-6.7 1-9.78 1.3-8.84.75-6.23-2-17.06-.62l-67.64-1.5c-8.18-.72-17.9 2.67-25.24 1.76-18.6-2.35-89.75 4-107.62 6.36l6.2-50.53c5.3-6.94 47.25-14.77 58.83-16.3zm-78.8 4.7c-3.33.72-8 2-12.13 3.23-4.3 1.24-18.4 8.64-19.86 12.37-1.66 4.34 1 3.36-.94 10.47-2.32 8.38-4.47 14.9-4.14 24.46.36 11.65.42 17.48-.62 27.1-1.28 11.78 1.1 28.47-1.86 40-1.47 5.74.16 4.46.13 11.18l-.02 55.12c.85 9-.78 6.5-.9 13.08-.1 4.4.72 9.78.55 12.75l-.58 4.63c-.8 9.3 1.1 22.15-.56 34.77s0 28-.68 40.8l-.82 13.17c-.32 3.88.23 9-.26 13.7-.65 6.42-.36 5.64-.1 11.06.26 5.12 1.47 10.33 1.67 15.06.26 7.18-1.83 4.8-1.14 12.92l.7 25.47c.7 8.93 1.14 6.4-4.43 10.5 3.4 6.55 0-.65 2.74 2.9 2.6 3.4 1.6 9 2.38 14.8 2.48 18.4-.3 19 0 21.3l2.57 19.5c1.28 9.52 17.7 16.33 27.9 19.2l21.46 6.33c10.82 2.74 28.92 3.75 40.7 4.08 17.58.52 43.47 5.25 58.9 3.23 15.62-2 22.5-.82 34.5.78 16.67 2.22 32.52-2.32 50 .06 8.3 1.1 7.37.43 15-2.25 8.45-2.93 13.5-3.58 18.82-10.66 8.45-11.25 10-59.84 9.42-72.95-.42-8.65 2.42-16.08 2.26-24.56-.23-12.6-.7-12.7 1.2-25.37.26-1.73.92-5.52 1.3-7.77.78-4.24.42-3.5 1-8l.56-3.33c1.24-6.68.2-21.78 1.9-29.9 2.84-13.83 3.3-42.46 4.9-48.85 1.08-4.37 2.94-10 2.16-15.85l1.33-16.54c.36-4 .78-4.4.88-8.1l3.05-35.3c.94-7.2-1.3-6.66-2.12-12.85s.13.94 1.14-5c0-.23.07-.65.1-.85l.3-2.4c0-.2.1-.62.13-.85.75-4.24 1.8-6.8 1.08-12.53l2.12 2.2c.2.16.52.52.75.68 2.48 1.9 0 1.2 3.52 2l-3.2-7.3c-4.66-6.5-2.08-16.15-3.42-24.7L299 45c-1.37-7.33-5.64-14.54-7.24-26.67-1.15-8.64-14.6-12.52-21.3-14.64C260.2.43 249.6 1.73 238.75.92c-6.1-.46-14 2-20.7.9-.46-.1-1.67-.42-2.12-.52l-2.1-.52C205.06-.9 197.3.65 189.03.35L173.9.9c-21.6 3-50.5-.1-72.08 4.66l-38.54 5.67c-6.75 1.24-12.14 3.07-17.22 4.18zm79.16 416.4c-4.7 2.15-3.33.13-7.27 4.53l-4 5.32a4.59 4.59 0 0 0-.69 2.15c-3.9 18.55.3 30.23 24.13 23.67 20.2-5.54 21.5-30.75 5.35-35.7-7.6-2.34-11.6-2.7-17.52.04zM30.36 143.66c2.25 4.18.85 3.62 10 5.06 7 1.08 7.2.36 14.54.62l18.07 1.82c8.12 1.08 3.72.62 3.16 2.52-.42 1.56-11.77 1.76-21.8 5.8-5.3 2.12-13.5 2.06-19 5.45l-3.1 2.64c3 7.24 9.6 4.37 18.07 5.84 7.7 1.3-4.34-1 2.12.5 7.47 1.66 6.42.75 8.3 5.47-20.28 3.17-15.94 7.34-15.55 10.5 7.14-5.12 4.5-2.12 13.27-4.73l12-7.05c-3.92-5.8-1.8-5.6-10.3-7.8l-13.9-3.2c5.64-4.6 27.23-6.78 36.56-9.62 6.13-1.86 7.3-2.05 8-7.6-5.48-3.62-27.07-4.43-36-5.3a40.72 40.72 0 0 0-4.72-.07c-1.86-.06-.07.36-2.7-.23a6.11 6.11 0 0 1-2.81-1c5.74-.9 4.2-1.5 8.45-2.32l41.32-2.18c6.6.8 4.37 3.33 17.48-1.57-1.47-5.93 1.7-4-5.93-3.65-2.58.1-6.8 1.2-9.9 1.4-13.43.88-21.85-1.7-43.9 2.2-13.42 2.34-16.03 5.3-21.74 6.5zM161.3 39.86c12.9-1.7 22.7-2.15 31.5-8.42-1.86-11.64-3.65-6.5-13.33-7.07-7.73-.46 4.66-1.83-18.66-.2-20.15 1.44-43.57-5.93-48.14 3.75l-.55 1.9c-.13 4.37-.23 1.1.95 2.48 3.58 4.2-2-1.07 1.6 1.14a8 8 0 0 0 1 .46c6.7 3.33 18.5 5 25.73 5.84z"/><path d="M268.2 161.9c.36 2.7-4.82 6.72 3.88 8l1.52-27.7c.13-6.1-.9-10.24-.4-15.33l-.46-16.63c-.7-5.35.4-.56-1.92-4-8.06 2-5.64 8-5 13.15a329.36 329.36 0 0 0 .26 3.3c.3 3.26.82 6.43 1.08 9.6.84 10.22-1.9 7.5 1.03 29.62zM52.73 119.47c1.9 7.8 1.8 3.62 16.08 1.2l35.4-2.93c6.42.58 12 1.63 14.57-2.78-1.33-2.5.62-3.06-4.82-3.3a7 7 0 0 0-2.81.59l-3.23 1c-4 .8-4.4.22-7.82-.07l-23.8 3c-6.6 1.6-16.54 2.36-23.55 3.28zM163.6 443.73c3.9 4.47 6.3 2.84 7.27 10.37.8 6.5-.3 3.82-1.83 10a22.21 22.21 0 0 0-.72 4.47c10.83-2.35 9.85-17.7 9-20.62a7.66 7.66 0 0 0-.36-.78 8 8 0 0 0-.39-.85l-.9-1.85c-2.7-6-.1-4.47-5.77-7.24zm23.33 15.37c6-3.94 7.67-2.3 6.75-12.06-3.52-2.12-1.46-1.67-5.8-2.25a35.18 35.18 0 0 0-.95 14.31zM157.9 229a79.83 79.83 0 0 1 .94 8.38c.3 6.23-3 2.5 2.32 5.35l1.56-16.25a8.76 8.76 0 0 0-.22-1.5c-.6-2.15-.2-.88-1.14-2.12zm-2.83-32.3c3.7-3.5 5.84-8.05 2.5-13.1-6.4 2.7-6.3 7.18-2.5 13.1zM50.45 241.73c1.8-5.8.68-2.35-.85-5.32l-1.56-3c-.17-.32-.26-.75-.43-1.07l-1.63-2.8c-5.7 5.38-1.1 11.47 4.47 12.2zm206.35 134.4c-4.86-2.3-18.75-1.8-24.17-1.05l17.98 2.84c5.4.5 5.08-.92 6.2-1.8zM271.76 221l-1.1-18.2c-.88-2.67-.6-1.4-1.66-2.74l-.56 16c.72 5.48-.45 2.84 3.33 4.94zM49.6 203.54c-5.57 1.37-4.1-.6-3.2 4.86 0 .1 1.14 5.1 1.2 5.15 6.92 7.6 2.38-7.43 2-10zm155 260.3c4.86-4.4 3.82-3.26 2.67-11.7-3.74 3.52-6.15 6.5-2.67 11.7z"/></svg>