<?xml version="1.0" encoding="utf-8"?>
<!-- Generator: Adobe Illustrator 22.0.0, SVG Export Plug-In . SVG Version: 6.00 Build 0)  -->
<svg version="1.1" id="Warstwa_1" xmlns="http://www.w3.org/2000/svg" xmlns:xlink="http://www.w3.org/1999/xlink" x="0px" y="0px"
	 viewBox="0 0 595.3 841.9" style="enable-background:new 0 0 595.3 841.9;" xml:space="preserve">
<style type="text/css">
	.st0{fill:none;stroke:#0D1645;stroke-width:0.9221;stroke-linecap:round;stroke-linejoin:round;stroke-miterlimit:22.9256;}
	.st1{fill-rule:evenodd;clip-rule:evenodd;fill:#B292B2;}
	.st2{fill-rule:evenodd;clip-rule:evenodd;fill:#0D1645;}
	.st3{fill:none;stroke:#0D1645;stroke-width:3.4328;stroke-linecap:round;stroke-linejoin:round;stroke-miterlimit:22.9256;}
	.st4{fill-rule:evenodd;clip-rule:evenodd;fill:#F08EBA;}
	.st5{fill-rule:evenodd;clip-rule:evenodd;fill:#CD7FB4;}
	.st6{fill-rule:evenodd;clip-rule:evenodd;fill:#EECADC;}
	.st7{fill-rule:evenodd;clip-rule:evenodd;fill:#951981;}
	.st8{fill:none;stroke:#0D1645;stroke-width:0.1689;stroke-miterlimit:22.9256;}
	.st9{fill-rule:evenodd;clip-rule:evenodd;fill:#FFFFFF;}
</style>
<path class="st0" d="M290.4,324c2.2,9.5,0.5,16,0.5,16"/>
<path class="st1" d="M574.3,791.4c43.1,21.5,6.9,56.1-111.2,37.9c-41.4,16.4-144,15.5-194.9,4.3c-76.7,10.4-332.8,12.1-238-25
	c94.8-37.1,269.9-5.2,269.9-5.2l170.7-12.1H574.3z"/>
<path class="st2" d="M238.9,773.9L238.9,773.9c-0.2,0-0.6,0-0.8,0C238.3,773.9,238.6,773.9,238.9,773.9 M238,773.9
	c-3.5-0.2-7.1-0.5-10.8-0.9C230.9,773.3,234.5,773.7,238,773.9 M308.8,528.1c0-0.1,0-0.1,0-0.1c6.7-5.5,13.6-11.6,20.7-18.2
	C323.1,516.5,315.9,522.7,308.8,528.1 M331.7,507.7c46.5-43.9,96.5-107.1,106.7-140.2c1.1-18.3-94.5-58.2-223.4-41.2
	c149-87.7,165.7-159.1,174.5-297c1-16.2,1.3-34.2-26,4C336.2,71.3,209,324.7,209,324.7C185.3,215.3,93.6,102.3,42.5,69.5
	C34,128,111.9,282.8,206.3,335c18.5,91.1,32.4,164.1,42,180c-1.6,16.1-4.6,37.5-8.1,61l-1.1-2c-4.2,3.6-7.9,7.2-11.3,10.9
	c-15.2,16.4-22.5,32.8-22.6,45.3c0,6.9,2.1,12.6,6.4,16.3l-1.6,2.1l9.4,2.6l7.2,0.7c1.1-0.3,2.2-0.6,3.2-1
	c-5.1,42.7-7.7,82.1-1.6,101.1c1.7,5.2,3.8,10,6.3,14.5c-3.3-0.2-6.5-0.5-9.5-1l1.2,7.3c-0.4,0-0.8-0.1-1.1-0.1
	c-1.7-0.2-3.4-0.3-5.1-0.6c-0.9-0.1-1.8-0.2-2.7-0.3c-1.8-0.2-3.7-0.4-5.5-0.7c-0.8-0.1-1.6-0.2-2.4-0.3c-2.1-0.3-4.1-0.5-6.2-0.8
	c-0.6-0.1-1.2-0.1-1.8-0.2c-2.3-0.3-4.7-0.7-7.1-1c-0.3,0-0.6-0.1-0.9-0.1c-31.3-4.6-65.9-10.7-96.5-14c-0.5-0.1-1.1-0.1-1.6-0.2
	c-2.3-0.3-4.6-0.5-6.8-0.7c-0.8,0-1.6-0.1-2.3-0.2c-2-0.2-3.9-0.3-5.8-0.5c-0.9-0.1-1.8-0.1-2.7-0.2c-1.7-0.1-3.5-0.2-5.2-0.3
	c-1,0-2-0.1-2.9-0.1c-1.6-0.1-3.2-0.1-4.7-0.2c-1,0-2,0-3-0.1c-1.4,0-2.9,0-4.2,0c-1,0-2,0-3,0c-1.3,0-2.6,0.1-3.9,0.2
	c-1,0-2,0.1-2.9,0.2c-1.2,0.1-2.4,0.2-3.6,0.3c-1,0.1-1.9,0.2-2.8,0.3c-1.1,0.1-2.2,0.3-3.3,0.5c-0.9,0.1-1.8,0.3-2.7,0.5
	c-1,0.2-2,0.4-3,0.7c-0.8,0.2-1.7,0.4-2.5,0.6c-0.9,0.3-1.8,0.5-2.7,0.8c-0.8,0.2-1.5,0.5-2.2,0.8c-0.8,0.3-1.6,0.7-2.4,1.1
	c-0.7,0.3-1.3,0.6-2,1c-0.7,0.4-1.4,0.9-2.1,1.3c-0.6,0.4-1.1,0.7-1.7,1.1c-0.6,0.5-1.2,1-1.7,1.5c-0.5,0.4-1,0.8-1.4,1.3
	c-0.5,0.6-1,1.2-1.4,1.9c-0.3,0.5-0.7,0.9-1,1.4c-0.5,0.7-0.8,1.5-1.1,2.3c-0.2,0.5-0.5,0.9-0.7,1.4c-0.5,1.3-0.8,2.7-1,4.2
	c-0.3,1.6-0.3,3.1-0.2,4.6c0,0.4,0.2,0.8,0.2,1.2c0.2,1,0.3,2.1,0.7,3.1c0.2,0.4,0.4,0.8,0.6,1.2c0.4,1,0.8,1.9,1.3,2.9
	c0.2,0.4,0.6,0.7,0.8,1.1c0.6,0.9,1.3,1.8,2,2.7c0.3,0.4,0.8,0.7,1.1,1.1c0.9,0.8,1.7,1.7,2.7,2.5c0.4,0.3,0.9,0.6,1.3,0.9
	c1,0.8,2.1,1.6,3.3,2.3c0.5,0.3,1,0.6,1.6,0.9c1.2,0.7,2.5,1.4,3.8,2.2c0.5,0.2,1,0.5,1.5,0.7c1.5,0.7,3,1.4,4.6,2.1
	c0.5,0.2,1,0.4,1.5,0.5c1.7,0.7,3.5,1.4,5.3,2c0.5,0.2,1.1,0.4,1.7,0.5c1.9,0.6,3.8,1.2,5.8,1.8c0.5,0.1,1,0.3,1.5,0.4
	c2.1,0.6,4.3,1.1,6.5,1.6c0.5,0.1,0.9,0.2,1.4,0.3c2.3,0.5,4.7,1,7.2,1.5c0.5,0.1,1,0.2,1.6,0.3c2.4,0.4,4.9,0.9,7.5,1.3
	c0.4,0,0.8,0.1,1.2,0.1c2.7,0.4,5.4,0.8,8.2,1.1c0.3,0,0.7,0.1,1,0.1c2.9,0.3,5.8,0.6,8.8,0.9c0.3,0.1,0.5,0.1,0.8,0.1
	c3.1,0.2,6.2,0.5,9.3,0.7c0.2,0,0.5,0,0.8,0c3.1,0.2,6.4,0.4,9.5,0.4h0.5c3.4,0.1,6.7,0.2,10.1,0.2h0.4c3.4,0.1,6.8,0.1,10.2,0
	c0.2,0,0.4,0,0.6,0c3.4-0.1,6.8-0.1,10.1-0.3h0.3c3.5-0.1,7-0.3,10.4-0.5c0.2,0,0.3,0,0.5,0c3.4-0.2,6.8-0.5,10.2-0.7
	c0.2,0,0.3,0,0.5-0.1c3.4-0.3,6.8-0.6,10.1-1c0.2,0,0.5,0,0.7-0.1c3.3-0.4,6.6-0.8,9.8-1.2c0.2,0,0.5,0,0.7-0.1
	c3.2-0.5,6.4-0.9,9.6-1.5c0.3,0,0.6-0.1,1-0.2c3-0.5,6.1-1.1,9.1-1.6c0.4-0.1,0.8-0.2,1.3-0.3c2.8-0.6,5.7-1.2,8.5-1.8
	c0.6-0.1,1.1-0.3,1.7-0.4c2.6-0.6,5.2-1.2,7.7-1.9c0.7-0.2,1.3-0.3,2-0.5c2.4-0.7,4.7-1.3,7-2c0.8-0.3,1.5-0.5,2.3-0.7
	c2.1-0.7,4.2-1.4,6.3-2.1c0.9-0.3,1.7-0.6,2.5-1c1.8-0.7,3.7-1.4,5.5-2.1c1-0.4,1.9-0.8,2.8-1.2c1.4-0.6,2.8-1.2,4.1-1.8h0.1
	c-0.3,0.2-0.6,0.3-0.9,0.5l3.9,4.9c1-0.5,1.9-1,2.9-1.5c54.4,34.8,144.9,22,172.1-3.3c1.2-1.1,2.2-2.2,3.2-3.3
	c-0.1,0.2-0.3,0.4-0.3,0.4l6.5,0.7c0,0,0.2-0.3,0.5-0.7c38.7,2.5,147.3,6.6,133.9-26.6c-14.2-35.1-78.4-0.4-124.3-0.7
	c0-0.3,0.1-0.6,0-0.9l-6.7,0.7c-1.8-26.7-29.4-54.1-38.8-67.4c-5.7-8.1-24.7-33.4-45-62.9c2,0.6,3.9,1.2,5.5,1.4
	c-1.3-2.5-3.5-3.6-4.7-3.9c0.4,0,0.7,0.1,1,0.1c0.1,0,0.3,0,0.4,0c1.1,0,2.2-0.1,3.2-0.3c0.1,0,0.2,0,0.3,0c1-0.3,1.8-0.8,2.6-1.4
	c0.2-0.1,0.3-0.3,0.4-0.4c0.7-0.7,1.3-1.6,1.7-2.7c0.8-1.9,1.4-3.8,1.9-5.7c0.1-0.4,0.1-0.8,0.2-1.3c0.3-1.4,0.6-2.9,0.7-4.4
	c0.1-0.9,0-1.8,0-2.6c0-1,0.1-2,0-3c-0.1-1.3-0.4-2.6-0.6-3.8c-0.1-0.6-0.1-1.2-0.3-1.7c-0.4-1.6-0.9-3.2-1.5-4.8
	c-0.1-0.2-0.1-0.4-0.2-0.6c-7.6-19.7-30.4-35.8-55.8-37.8c-6.1-11.9-10.4-22.5-12.3-31.1"/>
<path class="st3" d="M238.9,773.9L238.9,773.9c-0.2,0-0.6,0-0.8,0C238.3,773.9,238.6,773.9,238.9,773.9z M238,773.9
	c-3.5-0.2-7.1-0.5-10.8-0.9C230.9,773.3,234.5,773.7,238,773.9z M308.8,528.1c0-0.1,0-0.1,0-0.1c6.7-5.5,13.6-11.6,20.7-18.2
	C323.1,516.5,315.9,522.7,308.8,528.1z M331.7,507.7c46.5-43.9,96.5-107.1,106.7-140.2c1.1-18.3-94.5-58.2-223.4-41.2
	c149-87.7,165.7-159.1,174.5-297c1-16.2,1.3-34.2-26,4C336.2,71.3,209,324.7,209,324.7C185.3,215.3,93.6,102.3,42.5,69.5
	C34,128,111.9,282.8,206.3,335c18.5,91.1,32.4,164.1,42,180c-1.6,16.1-4.6,37.5-8.1,61l-1.1-2c-4.2,3.6-7.9,7.2-11.3,10.9
	c-15.2,16.4-22.5,32.8-22.6,45.3c0,6.9,2.1,12.6,6.4,16.3l-1.6,2.1l9.4,2.6l7.2,0.7c1.1-0.3,2.2-0.6,3.2-1
	c-5.1,42.7-7.7,82.1-1.6,101.1c1.7,5.2,3.8,10,6.3,14.5c-3.3-0.2-6.5-0.5-9.5-1l1.2,7.3c-0.4,0-0.8-0.1-1.1-0.1
	c-1.7-0.2-3.4-0.3-5.1-0.6c-0.9-0.1-1.8-0.2-2.7-0.3c-1.8-0.2-3.7-0.4-5.5-0.7c-0.8-0.1-1.6-0.2-2.4-0.3c-2.1-0.3-4.1-0.5-6.2-0.8
	c-0.6-0.1-1.2-0.1-1.8-0.2c-2.3-0.3-4.7-0.7-7.1-1c-0.3,0-0.6-0.1-0.9-0.1c-31.3-4.6-65.9-10.7-96.5-14c-0.5-0.1-1.1-0.1-1.6-0.2
	c-2.3-0.3-4.6-0.5-6.8-0.7c-0.8,0-1.6-0.1-2.3-0.2c-2-0.2-3.9-0.3-5.8-0.5c-0.9-0.1-1.8-0.1-2.7-0.2c-1.7-0.1-3.5-0.2-5.2-0.3
	c-1,0-2-0.1-2.9-0.1c-1.6-0.1-3.2-0.1-4.7-0.2c-1,0-2,0-3-0.1c-1.4,0-2.9,0-4.2,0c-1,0-2,0-3,0c-1.3,0-2.6,0.1-3.9,0.2
	c-1,0-2,0.1-2.9,0.2c-1.2,0.1-2.4,0.2-3.6,0.3c-1,0.1-1.9,0.2-2.8,0.3c-1.1,0.1-2.2,0.3-3.3,0.5c-0.9,0.1-1.8,0.3-2.7,0.5
	c-1,0.2-2,0.4-3,0.7c-0.8,0.2-1.7,0.4-2.5,0.6c-0.9,0.3-1.8,0.5-2.7,0.8c-0.8,0.2-1.5,0.5-2.2,0.8c-0.8,0.3-1.6,0.7-2.4,1.1
	c-0.7,0.3-1.3,0.6-2,1c-0.7,0.4-1.4,0.9-2.1,1.3c-0.6,0.4-1.1,0.7-1.7,1.1c-0.6,0.5-1.2,1-1.7,1.5c-0.5,0.4-1,0.8-1.4,1.3
	c-0.5,0.6-1,1.2-1.4,1.9c-0.3,0.5-0.7,0.9-1,1.4c-0.5,0.7-0.8,1.5-1.1,2.3c-0.2,0.5-0.5,0.9-0.7,1.4c-0.5,1.3-0.8,2.7-1,4.2
	c-0.3,1.6-0.3,3.1-0.2,4.6c0,0.4,0.2,0.8,0.2,1.2c0.2,1,0.3,2.1,0.7,3.1c0.2,0.4,0.4,0.8,0.6,1.2c0.4,1,0.8,1.9,1.3,2.9
	c0.2,0.4,0.6,0.7,0.8,1.1c0.6,0.9,1.3,1.8,2,2.7c0.3,0.4,0.8,0.7,1.1,1.1c0.9,0.8,1.7,1.7,2.7,2.5c0.4,0.3,0.9,0.6,1.3,0.9
	c1,0.8,2.1,1.6,3.3,2.3c0.5,0.3,1,0.6,1.6,0.9c1.2,0.7,2.5,1.4,3.8,2.2c0.5,0.2,1,0.5,1.5,0.7c1.5,0.7,3,1.4,4.6,2.1
	c0.5,0.2,1,0.4,1.5,0.5c1.7,0.7,3.5,1.4,5.3,2c0.5,0.2,1.1,0.4,1.7,0.5c1.9,0.6,3.8,1.2,5.8,1.8c0.5,0.1,1,0.3,1.5,0.4
	c2.1,0.6,4.3,1.1,6.5,1.6c0.5,0.1,0.9,0.2,1.4,0.3c2.3,0.5,4.7,1,7.2,1.5c0.5,0.1,1,0.2,1.6,0.3c2.4,0.4,4.9,0.9,7.5,1.3
	c0.4,0,0.8,0.1,1.2,0.1c2.7,0.4,5.4,0.8,8.2,1.1c0.3,0,0.7,0.1,1,0.1c2.9,0.3,5.8,0.6,8.8,0.9c0.3,0.1,0.5,0.1,0.8,0.1
	c3.1,0.2,6.2,0.5,9.3,0.7c0.2,0,0.5,0,0.8,0c3.1,0.2,6.4,0.4,9.5,0.4h0.5c3.4,0.1,6.7,0.2,10.1,0.2h0.4c3.4,0.1,6.8,0.1,10.2,0
	c0.2,0,0.4,0,0.6,0c3.4-0.1,6.8-0.1,10.1-0.3h0.3c3.5-0.1,7-0.3,10.4-0.5c0.2,0,0.3,0,0.5,0c3.4-0.2,6.8-0.5,10.2-0.7
	c0.2,0,0.3,0,0.5-0.1c3.4-0.3,6.8-0.6,10.1-1c0.2,0,0.5,0,0.7-0.1c3.3-0.4,6.6-0.8,9.8-1.2c0.2,0,0.5,0,0.7-0.1
	c3.2-0.5,6.4-0.9,9.6-1.5c0.3,0,0.6-0.1,1-0.2c3-0.5,6.1-1.1,9.1-1.6c0.4-0.1,0.8-0.2,1.3-0.3c2.8-0.6,5.7-1.2,8.5-1.8
	c0.6-0.1,1.1-0.3,1.7-0.4c2.6-0.6,5.2-1.2,7.7-1.9c0.7-0.2,1.3-0.3,2-0.5c2.4-0.7,4.7-1.3,7-2c0.8-0.3,1.5-0.5,2.3-0.7
	c2.1-0.7,4.2-1.4,6.3-2.1c0.9-0.3,1.7-0.6,2.5-1c1.8-0.7,3.7-1.4,5.5-2.1c1-0.4,1.9-0.8,2.8-1.2c1.4-0.6,2.8-1.2,4.1-1.8h0.1
	c-0.3,0.2-0.6,0.3-0.9,0.5l3.9,4.9c1-0.5,1.9-1,2.9-1.5c54.4,34.8,144.9,22,172.1-3.3c1.2-1.1,2.2-2.2,3.2-3.3
	c-0.1,0.2-0.3,0.4-0.3,0.4l6.5,0.7c0,0,0.2-0.3,0.5-0.7c38.7,2.5,147.3,6.6,133.9-26.6c-14.2-35.1-78.4-0.4-124.3-0.7
	c0-0.3,0.1-0.6,0-0.9l-6.7,0.7c-1.8-26.7-29.4-54.1-38.8-67.4c-5.7-8.1-24.7-33.4-45-62.9c2,0.6,3.9,1.2,5.5,1.4
	c-1.3-2.5-3.5-3.6-4.7-3.9c0.4,0,0.7,0.1,1,0.1c0.1,0,0.3,0,0.4,0c1.1,0,2.2-0.1,3.2-0.3c0.1,0,0.2,0,0.3,0c1-0.3,1.8-0.8,2.6-1.4
	c0.2-0.1,0.3-0.3,0.4-0.4c0.7-0.7,1.3-1.6,1.7-2.7c0.8-1.9,1.4-3.8,1.9-5.7c0.1-0.4,0.1-0.8,0.2-1.3c0.3-1.4,0.6-2.9,0.7-4.4
	c0.1-0.9,0-1.8,0-2.6c0-1,0.1-2,0-3c-0.1-1.3-0.4-2.6-0.6-3.8c-0.1-0.6-0.1-1.2-0.3-1.7c-0.4-1.6-0.9-3.2-1.5-4.8
	c-0.1-0.2-0.1-0.4-0.2-0.6c-7.6-19.7-30.4-35.8-55.8-37.8c-6.1-11.9-10.4-22.5-12.3-31.1"/>
<path class="st4" d="M308.8,527.9c1.3,9,6.2,21.1,13,34.6c36.9,2.9,68.3,35.8,55.6,65.7c-1.7,5-6.9,5.6-12.5,4.3
	c21,30.8,41.2,57.5,47.1,65.8c9.3,13.4,37,40.8,38.8,67.4c46.1,4.2,116.1-35.9,131,1c14.4,35.4-110,28.4-140.6,26.2
	c-1,1.1-2.1,2.2-3.3,3.3c-28.2,26.2-124.5,39.1-178-0.5c-77,36.4-258.7,29.9-251.3-20.1c7.2-48.7,150.9-6.9,230.3-1.9
	c-4.3-6.5-7.9-13.8-10.5-21.9c-6.2-19.4-3.4-59.7,1.8-103.3c-6.5,2.2-13.2,2.4-18.4-2.1c-13.8-12.1-5.9-43.7,27.3-72.5l1.1,2
	c3.4-23.5,6.5-45,8.1-61c-9.6-15.8-23.5-88.8-42-180C111.9,282.8,34,127.9,42.5,69.4C93.6,102.2,185.3,215.3,209,324.7
	c0,0,127.3-253.4,154.6-291.6c27.3-38.2,27-20.2,26-4C380.7,167,364.1,238.5,215,326.2c128.9-16.9,224.4,22.9,223.4,41.3
	C426.5,406.1,360.3,485.8,308.8,527.9"/>
<path class="st5" d="M261.1,633.1c73.6,16.5,162,185,101.8,187.6c-60.3,2.7-163.1-14.9-134.4-149.8
	C237.7,643.3,244.6,629.9,261.1,633.1"/>
<path class="st2" d="M349.1,604.4c0,0-2,49.4-21.1,50.6c-19,1.2-22.9-27.4-16.6-61.6c6.3-34.2,16.9-28.1,41.8-6.9
	c-13.8-9.5-30.4-23.5-35.5-9.6c-5.2,13.9-17.1,72.2,9.3,74.9C341.6,652.7,346.1,616.3,349.1,604.4"/>
<path class="st6" d="M401.5,785c-84.2,6.8-119.1-108-48.9-122C379.4,661.8,485.6,778.3,401.5,785"/>
<path class="st7" d="M367.3,635.5c25.6,37.7,25.2,37.5,58.7,80.8c-28.1-35.4-132.4-34-200.7,17.3c-3.1-56.2,4.3-82.4,4.3-82.4
	c12.3-7.3,21.5-14,21.5-14c14.9,36,40.9,25.3,45.2,8.9c4.3-16.5-9.7-64.5-26.8-61.2c-13.2,2.5-25.2,16.9-25.2,16.9
	c2.3-17.8-4.7-26.8-4.7-26.8l4-24.3c29.9,6.7,53.2,23,53.2,23l18.9-23.2l6,12.3c0,0,23.8,2,32,10.2c-1.8,8.6-4.4,10.5-4.4,10.5
	s-18.8-17.3-25.6-14.2c-6.7,3-13.2,13.2-14.7,50.2c-0.8,18.3,3.3,34.6,17.2,35.6c15.2,1.1,20.1-28.5,20.1-28.5L367.3,635.5z"/>
<path class="st8" d="M260.8,795.3C184.2,832.2,1.1,825.9,8.5,775.7c6.8-46.2,136.7-10.9,217.8-2.9"/>
<path class="st2" d="M49.2,97.9c0,0,117,116.4,145.8,209.7C192.7,290.4,126.4,187.9,49.2,97.9"/>
<path class="st8" d="M49.2,97.9c0,0,117,116.4,145.8,209.7C192.7,290.4,126.4,187.9,49.2,97.9z"/>
<path class="st2" d="M234,301.3c11.9-46.1,92.4-182.6,142-259C331,118.3,243.8,280.8,234,301.3"/>
<path class="st8" d="M234,301.3c11.9-46.1,92.4-182.6,142-259C331,118.3,243.8,280.8,234,301.3z"/>
<path class="st2" d="M345.7,624.1c11.6,7.6,21.3,8.7,21.3,8.7s3.7,0.7,5.5,4.2c-9-1.4-26.8-10.3-26.8-10.3L345.7,624.1z"/>
<path class="st2" d="M225.1,765.5c15.9,2.7,40.2-0.4,40.2-0.4s0.7,1.9,2.2,8.5c-10.9,1.4-25,0.9-41.2-0.7L225.1,765.5z"/>
<path class="st8" d="M225.1,765.5c15.9,2.7,40.2-0.4,40.2-0.4s0.7,1.9,2.2,8.5c-10.9,1.4-25,0.9-41.2-0.7L225.1,765.5z"/>
<path class="st2" d="M262.9,801.1c9.6-4.7,16.4-9,21.7-13.7l-3.9-4.8c-5.3,4.7-12.1,9-21.7,13.7L262.9,801.1z"/>
<path class="st8" d="M262.9,801.1c9.6-4.7,16.4-9,21.7-13.7l-3.9-4.8c-5.3,4.7-12.1,9-21.7,13.7L262.9,801.1z"/>
<path class="st2" d="M457.4,765.2c1.2,12.5-10,29-10,29l-6.5-0.7c0,0,11.1-15.7,9.9-27.6L457.4,765.2z"/>
<path class="st0" d="M326.3,343.8c-4.7-0.3-15.8,0.4-15.8,0.4"/>
<path class="st0" d="M382.6,342.6c0.4,3-0.5,9.4-0.7,10"/>
<path class="st0" d="M388.5,349c-4.1-1.5-11.6-2.1-11.6-2.1"/>
<path class="st9" d="M44.1,68.7c36.4,20.6,126.7,115.9,164.8,251C166.8,224.5,87.3,87.5,44.1,68.7"/>
<path class="st5" d="M195,307.5C132.6,200.3,78.5,118.9,49.2,97.9C117.7,216.6,160.9,267.2,195,307.5"/>
<path class="st5" d="M242,801c-84.2,41-235.6,15.5-232.4-21.3c3.2-36.8,126.8,10.7,139.6,14.9C162,798.9,253.7,781.3,242,801"/>
<path class="st5" d="M558,765.9c13.3,14.4,27.7,34.1-108.8,27.7l5.9-14.4C455.2,779.2,546.3,757.3,558,765.9"/>
<path class="st5" d="M325.1,580.4c15.5,8,11.7,69.3,2.1,67.7C317.6,646.5,303.8,575,325.1,580.4"/>
<path class="st9" d="M373.5,21.4c16.1-24.2,16.7-5,16,7.7C387.4,14,381.2,12.9,373.5,21.4"/>
<path class="st9" d="M440.8,362.9c3.7,8.4-29.3,53.5-29.3,53.5c22.7-46.1,22.3-56.8-6.6-69.2c-25.6-11-98.2-27.2-152.7-24.6
	C378.4,312.2,437.4,354.9,440.8,362.9"/>
<path class="st9" d="M318.5,692.2L312,665l17.1-5.9l5.8,5.1l1.2,9.2l-5.6,4.8l-8.7,0.9l3.3,11.5L318.5,692.2z M329.4,671.6l-2-6.7
	l-8.1,2.2l1.7,6.4L329.4,671.6z"/>
<path class="st8" d="M318.5,692.2L312,665l17.1-5.9l5.8,5.1l1.2,9.2l-5.6,4.8l-8.7,0.9l3.3,11.5L318.5,692.2z M329.4,671.6l-2-6.7
	l-8.1,2.2l1.7,6.4L329.4,671.6z"/>
<path class="st2" d="M410.1,392.1c-0.6-8.9-3.1-8.1-2.4-2.1c2.6,36.2-110,72.1-174,2c-4.3-5-5.6,1-0.7,6
	C298,459.5,413.1,423.9,410.1,392.1"/>
<path class="st8" d="M410.1,392.1c-0.6-8.9-3.1-8.1-2.4-2.1c2.6,36.2-110,72.1-174,2c-4.3-5-5.6,1-0.7,6
	C298,459.5,413.1,423.9,410.1,392.1z"/>
<path class="st2" d="M352.1,389.8c-1.4-1.7-11.9-22.9-24.9-33.3c16.4-0.6,34.8-0.6,50.1,0.8C374.1,387.3,353.4,391.5,352.1,389.8"/>
<path class="st8" d="M352.1,389.8c-1.4-1.7-11.9-22.9-24.9-33.3c16.4-0.6,34.8-0.6,50.1,0.8C374.1,387.3,353.4,391.5,352.1,389.8z"
	/>
<path class="st9" d="M289.8,358.7c6.9-1.1,21.4-2.5,38.1-3.1c16.3-0.7,34.8-0.7,50.1,0.8c8.1,0.8,15.2,2,20.8,3.7
	C372.5,352.5,289.8,358.7,289.8,358.7"/>
</svg>
